<?xml version="1.0" encoding="utf-8"?>
<!-- Generator: Adobe Illustrator 26.0.2, SVG Export Plug-In . SVG Version: 6.00 Build 0)  -->
<svg version="1.1" id="Calque_3" xmlns="http://www.w3.org/2000/svg" xmlns:xlink="http://www.w3.org/1999/xlink" x="0px" y="0px"
	 viewBox="0 0 841.89 595.28" style="enable-background:new 0 0 841.89 595.28;" xml:space="preserve">
<style type="text/css">
	.st0{fill:#A88B57;}
	.st1{fill:#6BBE9F;}
	.st2{fill:#BF8321;}
	.st3{fill:#6AAF9D;}
	.st4{fill:#A0793E;}
	.st5{fill:#79BBA7;}
	.st6{fill:#A37637;}
	.st7{fill:#8A6942;}
	.st8{fill:#BFAC80;}
	.st9{fill:#65BDA2;}
	.st10{fill:#9E7B44;}
	.st11{fill:#B39762;}
	.st12{fill:#7A6145;}
	.st13{fill:#6C5744;}
	.st14{fill:#71C1A6;}
	.st15{fill:#B2945F;}
	.st16{fill:#604824;}
	.st17{fill:#594B3E;}
	.st18{fill:#161515;}
	.st19{fill:#206953;}
	.st20{fill:#925E24;}
	.st21{fill:#3F362E;}
	.st22{fill:#AD7A3C;}
	.st23{fill:#419B7D;}
	.st24{fill:#25775A;}
	.st25{fill:#2D2825;}
	.st26{fill:#FFFFFF;}
	.st27{fill:#1E1B1A;}
	.st28{fill:#1B563F;}
	.st29{fill:#143928;}
	.st30{fill:#826FB0;}
	.st31{fill:#CEB98E;}
	.st32{fill:#231F1B;}
</style>
<g>
	<g id="XMLID_00000044178164101831099210000000182610232946534294_">
		<g>
			<path class="st0" d="M697.85,145.04c0,0,5.57,11.57-20.73,15.43c-5.8,0.84-13.87,0.27-22.94-1.13c-0.04-0.01-0.07-0.01-0.11-0.03
				c-16.81-2.61-37.03-8.1-52.45-12.73c-12.94-3.89-22.53-7.16-23.94-7.66c10.61,2.16,20.18,3.84,25.76,4.23
				c15.54,1.07,16.61-10.86,16.61-10.86C629.69,133.5,697.85,145.04,697.85,145.04z"/>
			<path class="st1" d="M678.76,166.24c9.17,2.77,17.16,5.5,16.08,6.36c-2.41,1.93,0,16.14-16.08,13.86
				c-4.37-0.61-9.73-2.17-15.21-4.1c-2.16-0.76-4.34-1.57-6.49-2.41c2.31-0.06,6.91-0.49,11.79-3.27
				C674.83,173.26,677.7,168.31,678.76,166.24z"/>
			<path class="st2" d="M678.76,166.24c-1.06,2.07-3.93,7.01-9.91,10.43c-4.87,2.79-9.47,3.21-11.79,3.27
				c-12.44-4.87-23.78-10.6-23.78-10.6c10.44-4.33,20.78-10.03,20.78-10.03c0.04,0.01,0.07,0.01,0.11,0.03
				C655.52,159.7,667.96,162.99,678.76,166.24z"/>
			<path class="st3" d="M663.55,182.36c5.49,1.93,10.84,3.49,15.21,4.1c0,0-16.08,12.09-28.16,6.51c-2.64-1.21-5.87-2.81-9.3-4.57
				c-1.79-0.91-3.63-1.86-5.47-2.83c3.61,0.89,9.67,1.84,16.91,0.49c4.53-0.84,8.17-2.34,10.8-3.69V182.36z"/>
			<path class="st4" d="M663.55,182.36v0.01c-2.63,1.34-6.27,2.84-10.8,3.69c-7.24,1.36-13.3,0.4-16.91-0.49h-0.01
				c-1.56-0.81-3.13-1.64-4.66-2.46c-9.09-4.81-17.06-9.21-17.06-9.21c3.7,1.11,11.46-1.36,19.17-4.56c0,0,11.34,5.73,23.78,10.6
				C659.21,180.79,661.39,181.6,663.55,182.36z"/>
			<path class="st5" d="M641.31,188.4v0.01c0,0-20.46,21.41-47.81,6.47c-1.23-0.67-2.4-1.31-3.51-1.91
				c4.43,0.97,13.36,2.29,23.9-0.74c8.2-2.37,14-6.41,17.28-9.1v-0.01c1.53,0.81,3.1,1.64,4.66,2.46h0.01
				C637.68,186.54,639.52,187.48,641.31,188.4z"/>
			<path class="st6" d="M654.06,159.31c0,0-10.34,5.7-20.78,10.03c-7.71,3.2-15.47,5.67-19.17,4.56c-2.14-0.64-5.93-2.29-10.69-4.41
				c-14.54-6.51-38.03-17.71-50.65-19.61c7.13,0.56,15.43,0.74,24.64,0.11c9.11-0.61,17.26-1.9,24.2-3.4
				C617.04,151.22,637.25,156.7,654.06,159.31z"/>
			<path class="st7" d="M631.16,183.11v0.01c-3.29,2.69-9.09,6.73-17.28,9.1c-10.54,3.03-19.47,1.71-23.9,0.74
				c-2.93-1.6-5.5-3-7.74-4.23c-13.7-7.49-15.74-8.6-16.04-8.77c26.08,9.4,37.23-10.49,37.23-10.49c4.76,2.13,8.54,3.77,10.69,4.41
				C614.11,173.9,622.08,178.3,631.16,183.11z"/>
			<path class="st8" d="M577.52,138.89c-19-3.87-41.33-9.23-50.25-11.29c-15.68-2.16-65.04-6.9-113.17,23.06
				c-18.66,11.61-32.78,25.76-43.48,39.91c-3.11,4.11-5.93,8.21-8.49,12.27c-10.56,16.74-16.66,32.48-20.18,42.93
				c-0.99,2.87-1.76,5.34-2.39,7.33c-4.09,13.01-6.3,24.8-7.53,34.46c-6.46,1.34-12.73,3.51-18.28,5.37
				c0.83-9.73,3.16-24.73,7.99-41.67c6.26-21.94,16.74-47.14,33.66-68.28c10.81-13.51,23.26-24.14,36.44-32.48
				c5.06-3.2,10.23-6.06,15.44-8.61c7.2-3.53,14.5-6.49,21.77-8.94c0.03,0,0.06,0,0.07-0.01h0.01c7.99-2.71,15.94-4.83,23.68-6.46
				c7.86-1.66,15.48-2.84,22.7-3.64c0.01,0,0.01,0,0.03,0c0.4,0.03,2.09,0.1,3.94-0.41c4.1-0.4,8.06-0.69,11.81-0.86
				c0.01,0,0.07,0,0.16-0.01c21.4-1.06,36.66,0.81,38.9,1.11l89.68,9.66c0,0-1.07,11.93-16.61,10.86
				c-5.57-0.39-15.14-2.07-25.76-4.23C577.61,138.92,577.55,138.9,577.52,138.89z"/>
			<path class="st9" d="M589.98,192.97c1.11,0.6,2.29,1.24,3.51,1.91c0,0-10.07,20.13-32.16,8.99c-0.01-0.01-0.01-0.01-0.01-0.01
				c-2.1-1.06-4-2.01-5.71-2.89c3.43-0.1,9.56-0.76,16.17-4.19c4.96-2.57,8.37-5.76,10.46-8.04
				C584.48,189.97,587.05,191.37,589.98,192.97z"/>
			<path class="st10" d="M552.77,149.87c12.63,1.9,36.11,13.1,50.65,19.61c0,0-11.14,19.88-37.23,10.49
				c-0.06-0.03-0.06-0.03-0.06-0.03c-23.87-8.63-51.2-23.8-74.58-24.17c6.54-0.3,16.71-0.77,24.51-1.16
				c12.47-0.6,17.34-10.03,17.34-10.03C540.34,146.24,546.84,147.9,552.77,149.87z"/>
			<path class="st11" d="M485.01,156.07c0.87,1.41,2.39,4.33,1.9,7.8c-0.76,5.37-5.76,8.4-8.26,9.86
				c-7.53,4.4-13.74,2.94-23.93,3.61c-5.67,0.37-13.89,1.5-23.81,5.01c-0.01,0.01-0.01,0.01-0.03,0.01
				c-13.07,1.84-21.6,4.09-21.6,4.09l-38.67,4.11c10.7-14.16,24.83-28.3,43.48-39.91c48.13-29.96,97.48-25.21,113.17-23.06
				c8.93,2.06,31.26,7.41,50.25,11.29c0.03,0.01,0.09,0.03,0.14,0.04c1.41,0.5,11,3.77,23.94,7.66c-6.94,1.5-15.08,2.79-24.2,3.4
				c-9.21,0.63-17.51,0.44-24.64-0.11c-5.93-1.97-12.43-3.63-19.36-5.29c0,0-4.87,9.43-17.34,10.03c-7.8,0.39-17.97,0.86-24.51,1.16
				c-0.01-0.01-0.03-0.01-0.04,0c-2.14-0.04-4.23,0.04-6.29,0.29C485.09,156.07,485.01,156.07,485.01,156.07z"/>
			<path class="st12" d="M582.24,188.74c-2.09,2.29-5.5,5.47-10.46,8.04c-6.61,3.43-12.74,4.09-16.17,4.19
				c-16.4-8.29-16.4-8.29-16.4-8.29c4.79-2.5,26.93-12.74,26.93-12.74s0,0,0.06,0.03C566.5,180.14,568.54,181.26,582.24,188.74z"/>
			<path class="st13" d="M561.34,203.87c0.31,0.51,7.4,12.09-22.13,7.91c-30.18-4.27-45.45-7.9-45.45-7.9
				c6.74-0.67,13.86-1.83,21.06-3.67c16.77-4.3,19.58-6.57,18.36-7.76c3.04,0.56,5.14,0.7,6.04,0.23c0,0,0,0,16.4,8.29
				c1.71,0.87,3.61,1.83,5.71,2.89C561.32,203.86,561.32,203.86,561.34,203.87z M541.1,204.91c0-2.17-2.14-3.94-4.77-3.94
				c-2.64,0-4.77,1.77-4.77,3.94c0,2.17,2.13,3.94,4.77,3.94C538.95,208.86,541.1,207.08,541.1,204.91z"/>
			<path class="st14" d="M566.14,179.94c0,0-22.14,10.24-26.93,12.74c-0.9,0.47-3,0.33-6.04-0.23c-1.1-1.07-5.47-1.26-5.87-1.27
				c-0.01,0-0.03,0-0.03,0c-3.5-0.83-7.6-1.87-12.1-3c-14.71-3.67-33.68-8.13-50.08-8.24c-5.43-0.03-10.7,0.16-15.7,0.49
				c-6.76,0.44-13.01,1.16-18.47,1.93c9.93-3.51,18.14-4.64,23.81-5.01c10.19-0.67,16.4,0.79,23.93-3.61
				c2.5-1.46,7.5-4.49,8.26-9.86c0.49-3.47-1.03-6.39-1.9-7.8c0,0,0.07,0,0.21-0.01c0.69-0.03,3.03-0.13,6.29-0.29
				c0.01-0.01,0.03-0.01,0.04,0C514.94,156.14,542.27,171.31,566.14,179.94z"/>
			<path class="st15" d="M538.35,342.31c0.76-5.07,1.21-9.7,1.21-13.66c0-16.04-12.96-27.1-24.76-35.26
				c5.93,0.73,25.53,3.89,33.87,18.64c5.53,9.76-0.99,11.99,1.89,41.83c0.31,3.29,1.06,10.11-2.9,15.97c0,0,0,0-6.57-4.4
				c-4.59-3.07-4.11-13.11-3.4-18.91c0.01-0.14,0.04-0.27,0.06-0.41c0.2-1.17,0.39-2.34,0.54-3.47
				C538.33,342.52,538.34,342.41,538.35,342.31z"/>
			<path class="st16" d="M541.1,365.43c6.57,4.4,6.57,4.4,6.57,4.4c-0.49,0.73-4.93,7.34-9.44,6.01c-2.51-0.74-4.3-3.73-4.8-7.39
				v-0.01c1.56-7.54,3.11-15.04,4.27-21.93C536.98,352.32,536.51,362.36,541.1,365.43z"/>
			<path class="st8" d="M308.12,365.43c-7.19-0.59-17.84-2.59-28.36-9.37c-2.37-1.54-4.47-3.16-6.34-4.77
				c0.66,0.51,1.49,0.81,2.39,0.81c2.19,0,3.96-1.77,3.96-3.96c0-1.1-0.44-2.09-1.16-2.8l0.89-0.04c0.67,0.56,1.56,0.9,2.51,0.9
				c2.19,0,3.96-1.77,3.96-3.96c0-2.19-1.77-3.96-3.96-3.96l1.79-1.44c0.71,1.06,1.91,1.74,3.29,1.74c2.19,0,3.96-1.77,3.96-3.96
				c0-1.9-1.34-3.49-3.13-3.87l0.13-0.56c0.56,0.3,1.2,0.47,1.89,0.47c2.19,0,3.96-1.77,3.96-3.96c0-1.86-1.29-3.43-3.01-3.84
				l0.07-0.29c0.37,0.11,0.77,0.17,1.17,0.17c2.19,0,3.96-1.77,3.96-3.96s-1.77-3.96-3.96-3.96l0.6-1.39
				c0.37,0.11,0.77,0.17,1.17,0.17c2.19,0,3.96-1.77,3.96-3.96s-1.77-3.96-3.96-3.96l0.64-1.53c0.47,0.2,0.99,0.31,1.54,0.31
				c2.19,0,3.96-1.77,3.96-3.96c0-1.91-1.36-3.51-3.16-3.87l0.04-0.2c0.3,0.07,0.61,0.11,0.93,0.11c0.39,0,0.76-0.06,1.1-0.16
				c1.9,0.07,4.16-0.33,6.71-1c2.46-0.64,5.17-1.53,8.1-2.51c5.56-1.86,11.83-4.03,18.28-5.37c-0.04,0.39-0.09,0.77-0.13,1.14
				c0.74,0.31,21.07,8.84,19.18,3.96c-0.36-0.93-0.9-3.17-1.56-6.19c20.86,0.81,43.35,0.06,63.47-4.47
				c21.46-4.83,79.91-3.21,92.78,5.37c2.73,1.83,5.84,3.81,9.03,6.03c11.8,8.16,24.76,19.21,24.76,35.26
				c0,3.96-0.46,8.59-1.21,13.66c-0.01,0.1-0.03,0.21-0.06,0.33c-0.11,0.59-0.33,1.84-0.54,3.47c-0.01,0.14-0.04,0.27-0.06,0.41
				c-1.16,6.89-2.71,14.38-4.27,21.93v0.01c-3.1,14.98-6.19,30.16-6.19,41.17c0,21.98,19.84,55.24,19.84,55.24
				s-2.69,16.63-3.21,29.5c-0.54,12.87-3.76,35.93-3.76,44.5c0,5.14-1.34,6.06-2.89,7.33c0,0,0,0,0,0.01
				c-1.04,0.86-2.16,1.89-3.01,4.46c0,0-1.21,3.9-8.44,4.7c-2.71,0.3-4.3-0.41-5.16-1.59c-0.01-0.01-0.03-0.03-0.03-0.03
				c-1.4-1.93-0.8-5.09-0.06-6.83c1.21-2.81,5.64-12.87,7.64-26.56c2.01-13.67-1.2-36.2-8.44-52.68
				c-3.4-7.73-15.76-28.3-27.94-47.97c-13.77-22.26-27.3-43.34-27.3-43.34c-4.17-6.37-3.61-23.84-2.36-37.78
				c0,0-5.66,32.48-33,45.88c-27.36,13.41-64.9,19.21-64.9,19.21c-0.67,5.29-3.64,8.93-4.59,12.39c-0.96,3.51-5.64,17.41-8.57,31.07
				c-1.99,9.27-3.19,18.41-1.89,24.16c3.21,14.21-1.34,17.7-3.49,23.07c-2.14,5.36-3.21,32.71-2.14,45.84
				c0.84,10.3,1.01,12.04-0.37,14.11c-0.37,0.57-0.87,1.17-1.51,1.99c-2.94,3.74-9.11,3.74-12.87,0c-1.14-1.14-1.51-1.87-1.43-2.56
				c0.19-1.59,2.73-3.01,3.84-8.99c1.61-8.57-4.29-45.31-7.23-50.94c-2.96-5.63-0.81-5.9,1.07-23.6c1.87-17.7-4.03-50.41-5.37-58.98
				c-1.34-8.59-8.31-12.61-12.87-25.74C304.48,378.73,306.04,371.16,308.12,365.43z"/>
			<ellipse class="st9" cx="536.33" cy="204.91" rx="4.77" ry="3.94"/>
			<path class="st17" d="M539.21,211.78c0,0,11.94,19.8-24.4,18.21c-36.36-1.57-36.36-1.57-36.36-1.57
				c6.44-5.63,6.54-23.9,6.54-23.9c2.83-0.13,5.76-0.33,8.76-0.64C493.76,203.88,509.03,207.51,539.21,211.78z M509.78,222.25
				c0-1.63-1.97-2.94-4.4-2.94s-4.4,1.31-4.4,2.94c0,1.63,1.97,2.96,4.4,2.96S509.78,223.88,509.78,222.25z"/>
			<path class="st8" d="M538.3,342.63c-0.16,1.13-0.34,2.3-0.54,3.47C537.97,344.48,538.18,343.22,538.3,342.63z"/>
			<path class="st18" d="M537.23,546.21c-0.03,0.57-0.93,17.64-4.36,19.74c-3.39,2.1-11.79-11.39-12.26-12.17
				c0.86,1.17,2.44,1.89,5.16,1.59c7.23-0.8,8.44-4.7,8.44-4.7C535.07,548.1,536.18,547.07,537.23,546.21z"/>
			<path class="st15" d="M533.41,83.63c0,0,7.81,9.11-0.51,11.8c-0.94,0.3-2.51,0.69-4.56,1.11c-5.3,1.13-13.8,2.6-22.96,4.1
				c-18.53,3.01-39.7,6.04-42.13,6.04c0,0-53.44-5.9-91.78,0.59c-38.34,6.47-37.81,18.18-51.78,55.94
				c-13.97,37.76,1.91,88.5,2.04,88.04c-4.83,16.94-7.16,31.94-7.99,41.67c-2.93,0.99-5.64,1.87-8.1,2.51
				c0,0-13.27-106.12-5.23-134.56s43.58-63.84,103.57-64.37C463.99,95.96,533.41,83.63,533.41,83.63z"/>
			<path class="st9" d="M533.17,192.46c1.23,1.19-1.59,3.46-18.36,7.76c-7.2,1.84-14.31,3-21.06,3.67c-3,0.31-5.93,0.51-8.76,0.64
				c-19.58,0.87-34.56-1.9-37.1-2.1c-1.96-0.14-20.27,0.86-37.41,1.86c-14.37,0.84-27.91,1.69-30.31,1.83
				c4.27-0.43,42.7-4.21,54.85-7.46c12.87-3.41,14.36-18.23,14.36-18.23c5-0.33,10.27-0.51,15.7-0.49
				c16.4,0.11,35.37,4.57,50.08,8.24c4.5,1.13,8.6,2.17,12.1,3c0,0,0.01,0,0.03,0C529.51,191.71,531.48,192.16,533.17,192.46z"/>
			<path class="st19" d="M494.98,114.76c-3.37,0.76-6.76,1.29-10.04,1.63c-2.07,0.21-4.11,0.37-6.09,0.46
				c4.2-1.03,10.37-3.09,16.77-7.47c4.29-2.94,7.49-6.1,9.76-8.73c9.16-1.5,17.66-2.97,22.96-4.1
				c-10.71,10.03-20.6,14.41-27.36,16.58C499,113.76,497,114.3,494.98,114.76z"/>
			<path class="st9" d="M505.38,219.31c2.43,0,4.4,1.31,4.4,2.94c0,1.63-1.97,2.96-4.4,2.96s-4.4-1.33-4.4-2.96
				C500.98,220.63,502.96,219.31,505.38,219.31z"/>
			<path class="st20" d="M463.26,106.69c2.43,0,23.6-3.03,42.13-6.04c-2.27,2.63-5.47,5.79-9.76,8.73
				c-6.4,4.39-12.57,6.44-16.77,7.47c-8.33,0.4-15.54-0.17-19.51-0.61c0.01-0.27,0.01-0.43,0.01-0.43l-1.64,0.24h-0.01
				c-0.9-0.11-1.54-0.21-1.89-0.26c0.17,0.01,0.43,0.01,0.79,0.01C473.89,115.8,463.26,106.69,463.26,106.69z"/>
			<path class="st3" d="M494.98,114.76c0.13,0.21,1.14,2.19,0.1,4.26c-1,2-3.04,2.43-3.63,2.51c-0.09,0.01-0.14,0.01-0.16,0.01
				c-3.76,0.17-7.71,0.46-11.81,0.86c1.53-0.43,3.19-1.26,4.34-2.84c0.63-0.86,0.99-1.76,1.19-2.57l-0.07-0.6
				C488.23,116.05,491.61,115.52,494.98,114.76z"/>
			<path class="st9" d="M490.39,240.23c1.86,0,3.37,0.84,3.37,1.87c0,1.04-1.51,1.89-3.37,1.89c-1.87,0-3.39-0.84-3.39-1.89
				C487,241.07,488.51,240.23,490.39,240.23z"/>
			<path class="st21" d="M514.81,230c0,0-1.23,17.73-27.1,15.58c-2.33-0.2-4.51-0.37-6.57-0.54c0,0,0,0-0.01,0
				c-20.77-1.71-27.87-2.24-27.87-2.24l-10.36-0.7c15.33-1.34,20.06-3.77,20.34-6.17c0.29-2.36-4.04-4.84-7.93-6.63v-0.01
				c11.66,1.01,20.86,1.14,23.14-0.86C478.46,228.43,478.46,228.43,514.81,230z M493.76,242.1c0-1.03-1.51-1.87-3.37-1.87
				c-1.87,0-3.39,0.84-3.39,1.87c0,1.04,1.51,1.89,3.39,1.89C492.24,243.98,493.76,243.14,493.76,242.1z"/>
			<path class="st16" d="M491.97,447.97c1.21,12.47,4.03,25.34-1.6,32.98c-3.16,4.29-9.09,14.24-14.71,23.88c0,0,0,0-0.94-5.6
				c-0.94-5.6,4.81-11.8,4.29-25.74c-0.54-13.94-20-19.9-20-19.9c-4.03-11.66-9.81-66-9.81-66c12.64-8.3,15.3-11.23,15.3-11.23
				s13.53,21.08,27.3,43.34C491.73,420.5,490.8,435.83,491.97,447.97z"/>
			<path class="st22" d="M484.94,116.39l0.07,0.6c-0.2,0.81-0.56,1.71-1.19,2.57c-1.16,1.59-2.81,2.41-4.34,2.84
				c-1.3,0.11-2.61,0.26-3.94,0.41c-0.01,0-0.01,0-0.03,0c-7.21,0.8-14.84,1.99-22.7,3.64l-0.16-0.73c5.93-1.31,6.61-7.77,6.69-9.5
				c3.97,0.44,11.19,1.01,19.51,0.61C480.83,116.76,482.87,116.6,484.94,116.39z"/>
			<path class="st23" d="M485,204.53c0,0-0.1,18.27-6.54,23.9c-2.29,2-11.49,1.87-23.14,0.86c-16.33-1.4-37.51-4.5-51.33-5.84
				c-4.07-0.4-7.5-0.64-9.99-0.64c16.37-4.66,24.46-8.89,24.26-12.67c-0.1-2.09-2.7-4.03-7.77-5.84c17.14-1,35.46-2,37.41-1.86
				C450.44,202.63,465.42,205.4,485,204.53z"/>
			<path class="st15" d="M479,473.5c0.53,13.94-5.23,20.14-4.29,25.74c0.94,5.6,0.94,5.6,0.94,5.6c-4.4,7.56-8.63,14.91-11.17,19.16
				c-5.76,9.64-5.9,17.7-9.07,22.51c-3.17,4.83-12.51-1.6-12.51-5.23c0-3.61,19.31-34.58,23.74-45.84
				c4.41-11.27-3.63-30.17-7.64-41.84C459,453.6,478.46,459.56,479,473.5z"/>
			<path class="st11" d="M403.1,141.36l-1.26-0.16l-36-4.49c2,0.31,25.23,3.17,36,4.49C402.29,141.26,402.7,141.32,403.1,141.36z
				 M403.68,141.43c0.37,0.04,0.73,0.09,1.04,0.13L403.68,141.43z M405.18,141.62c0.3,0.04,0.57,0.07,0.8,0.1L405.18,141.62z
				 M391.83,150.49c-13.19,8.34-25.63,18.97-36.44,32.48c-16.91,21.14-27.4,46.34-33.66,68.28c-0.13,0.46-16.01-50.28-2.04-88.04
				c13.97-37.76,13.44-49.47,51.78-55.94c38.34-6.49,91.78-0.59,91.78-0.59s10.63,9.11-6.66,9.11l-42.53-2.1
				c-0.01-0.1-0.03-0.14-0.03-0.14l-0.89,0.09l-53.95,5.59c0,0,43.04,4.41,50.08,3.81c0.3,0.03,0.96,0.1,1.8,0.2
				c0.71,0.09,1.71,0.19,2.96,0.31c0,0-2.34,6.33-6.77,7.13c0,0,19.93,2.54,21.77,2.24c-7.27,2.46-14.57,5.41-21.77,8.94
				C402.06,144.43,396.89,147.29,391.83,150.49z"/>
			<path class="st24" d="M455.32,229.3c3.89,1.79,8.21,4.27,7.93,6.63c-0.29,2.4-5.01,4.83-20.34,6.17
				c-2.83,0.24-5.99,0.47-9.49,0.6c-11.59,0.43-26.94-0.1-46.61-3.54c-3.51-0.61-7.19-1.33-10.99-2.14l0.01-0.04
				c0,0,14.93,2.14,20.7-0.93c5.79-3.06,7.46-12.6,7.46-12.6c13.81,1.34,35,4.44,51.33,5.84V229.3z"/>
			<path class="st25" d="M453.26,242.8c0,0,7.1,0.53,27.87,2.24c-0.61,0.46-16.37,11.8-31.63,11.27c-2.2-0.07-4.41-0.13-6.6-0.19
				c-13.24-0.29-25.27-0.14-25.27-0.14c14.67-4.34,15.78-13.19,15.78-13.19v-0.1c3.5-0.13,6.66-0.36,9.49-0.6L453.26,242.8z
				 M449.39,252.91c0-1.23-1-2.23-2.23-2.23c-1.21,0-2.21,1-2.21,2.23c0,1.23,1,2.21,2.21,2.21
				C448.39,255.12,449.39,254.14,449.39,252.91z"/>
			<path class="st15" d="M462.13,338.59c-1.26,13.94-1.81,31.41,2.36,37.78c0,0-2.66,2.93-15.3,11.23
				c-5.3,3.47-12.36,7.9-21.7,13.44c-23.01,13.66-48.45,15.4-60.6,15.33c-4.56-0.03-7.24-0.3-7.24-0.3
				c0.94-3.46,3.91-7.1,4.59-12.39c0,0,37.54-5.8,64.9-19.21C456.47,371.08,462.13,338.59,462.13,338.59z"/>
			<path class="st26" d="M459.36,115.8c0,0,0,0.16-0.01,0.43c-0.61-0.06-1.16-0.13-1.63-0.19L459.36,115.8z"/>
			<path class="st6" d="M457.72,116.05c0.47,0.06,1.01,0.13,1.63,0.19c-0.07,1.73-0.76,8.19-6.69,9.5c-0.7,0.16-1.49,0.24-2.36,0.23
				c-12.53-0.13-28.74-1.61-36.26-2.4c-1.24-0.13-2.24-0.23-2.96-0.31c-0.84-0.1-1.5-0.17-1.8-0.2c0.3-0.03,0.57-0.07,0.84-0.13
				l47.57-6.87H457.72z"/>
			<path class="st6" d="M455.82,115.79c0.34,0.04,0.99,0.14,1.89,0.26l-47.57,6.87c5.54-1.11,4.19-8.14,3.94-9.21l42.53,2.1
				C456.24,115.8,455.99,115.8,455.82,115.79z"/>
			<path class="st18" d="M455.42,546.51c0,0-1.64,6.84-5.54,8.93c-3.89,2.07-15.54-0.34-15.68-0.74c-0.13-0.4,8.71-13.41,8.71-13.41
				C442.9,544.91,452.24,551.34,455.42,546.51z"/>
			<path class="st10" d="M452.66,125.73l0.16,0.73c-7.74,1.63-15.7,3.74-23.68,6.46h-0.01l-15.07-9.36
				c7.51,0.79,23.73,2.27,36.26,2.4C451.17,125.97,451.96,125.89,452.66,125.73z"/>
			<path class="st9" d="M447.16,250.68c1.23,0,2.23,1,2.23,2.23c0,1.23-1,2.21-2.23,2.21c-1.21,0-2.21-0.99-2.21-2.21
				C444.94,251.68,445.94,250.68,447.16,250.68z"/>
			<path class="st11" d="M449.39,180.43c0,0-1.49,14.81-14.36,18.23c-12.16,3.24-50.58,7.03-54.85,7.46c-0.09,0-0.16,0-0.21,0.01
				c-0.11,0.01-0.17,0.01-0.17,0.01s-7.6-0.01-12.63-1.66s-5.03-1.64-5.03-1.64c2.56-4.06,5.37-8.16,8.49-12.27l38.67-4.11
				c0,0,8.53-2.24,21.6-4.09c0.01,0,0.01,0,0.03-0.01C436.37,181.59,442.63,180.87,449.39,180.43z"/>
			<path class="st27" d="M442.9,256.12v0.2c0,0-6.27,6.66-13.77,9.76c-3.86,1.6-15.11,1.8-25.14,1.64
				c-9.49-0.17-17.87-0.67-17.87-0.67l-0.03-0.03c4.83-3.47,9.04-8.31,9.04-8.31c2.7-0.17,5.64-0.34,8.86-0.53
				c5.51-0.31,10-1.11,13.64-2.2C417.63,255.98,429.66,255.84,442.9,256.12z M418.2,263.81c0-0.97-0.13-1.76-0.29-1.76
				s-0.29,0.79-0.29,1.76c0,0.99,0.13,1.77,0.29,1.77S418.2,264.8,418.2,263.81z"/>
			<path class="st28" d="M433.42,242.7v0.1c0,0-1.11,8.84-15.78,13.19c-3.64,1.09-8.13,1.89-13.64,2.2
				c-3.21,0.19-6.16,0.36-8.86,0.53c-14.26,0.84-21.93,1.29-27.97,0.77c0,0,24-2.97,22.76-11.49c-1.24-8.5-3.11-8.83-3.11-8.83
				v-0.01C406.48,242.6,421.83,243.12,433.42,242.7z"/>
			<path class="st10" d="M414.05,123.56l15.07,9.36c-0.01,0.01-0.04,0.01-0.07,0.01c-1.84,0.3-21.77-2.24-21.77-2.24
				C411.7,129.89,414.05,123.56,414.05,123.56z"/>
			<path class="st11" d="M394,222.8c2.49,0,5.91,0.24,9.99,0.64c0,0-1.67,9.54-7.46,12.6c-5.77,3.07-20.7,0.93-20.7,0.93l-0.01,0.04
				c3.8,0.81,7.47,1.53,10.99,2.14v0.01c0,0,1.87,0.33,3.11,8.83c1.24,8.51-22.76,11.49-22.76,11.49c-2.69-0.23-5.04-0.64-7.51-1.3
				l-14.21-6.83l-2.46,0.3c-0.63-3.59-1.03-5.89-1.03-5.89c3.53-10.44,9.63-26.18,20.18-42.93c0,0,0,0,5.03,1.64
				s12.63,1.66,12.63,1.66s0.06,0,0.17-0.01c0.06,0,0.13,0,0.21-0.01c2.4-0.14,15.94-0.99,30.31-1.83c5.07,1.81,7.67,3.76,7.77,5.84
				C418.46,213.91,410.37,218.14,394,222.8z"/>
			<path class="st11" d="M414.07,113.7c0.24,1.07,1.6,8.1-3.94,9.21l-0.84,0.13c-7.04,0.6-50.08-3.81-50.08-3.81l53.95-5.59
				L414.07,113.7z"/>
			<path class="st26" d="M414.07,113.7l-0.91-0.06l0.89-0.09C414.05,113.56,414.06,113.6,414.07,113.7z"/>
			<path class="st26" d="M409.29,123.05l0.84-0.13C409.86,122.97,409.59,123.02,409.29,123.05z"/>
			<path class="st26" d="M405.18,141.62l0.8,0.1C405.75,141.69,405.48,141.66,405.18,141.62z"/>
			<path class="st26" d="M403.68,141.43l1.04,0.13C404.4,141.52,404.05,141.47,403.68,141.43z"/>
			<path class="st18" d="M403.99,267.72v0.04c0,0-0.07,12.06-9.99,11.57c-9.79-0.49-38.23,2.54-39.08,2.63
				c5.29-4.09,9.46-9.59,9.46-9.59c5.86-0.29,12.01-1.31,15.41-2.13c2.01-0.49,4.21-1.73,6.3-3.23l0.03,0.03
				C386.12,267.05,394.5,267.55,403.99,267.72z M389.98,275.51c0-0.36-0.71-0.64-1.59-0.64c-0.89,0-1.59,0.29-1.59,0.64
				s0.7,0.64,1.59,0.64C389.26,276.15,389.98,275.87,389.98,275.51z"/>
			<path class="st26" d="M401.85,141.2l1.26,0.16C402.7,141.32,402.29,141.26,401.85,141.2z"/>
			<path class="st18" d="M365.85,136.72l36,4.49C391.08,139.89,367.85,137.03,365.85,136.72z"/>
			<path class="st18" d="M398.33,543.72c0.21-0.24,0.39-0.53,0.51-0.87c0.46,1.54-1.71,18.13-7.01,18.74
				c-2,0.24-5.07-4.1-9.96-20.57c0.89,1.3,2.36,2.21,4.73,2.67C392.8,544.9,396.75,545.52,398.33,543.72z"/>
			<path class="st15" d="M398.26,536.05c0.91,3.27,1.11,5.44,0.59,6.8c-0.09-0.29-0.26-0.06-0.51,0.87
				c-1.59,1.8-5.53,1.17-11.73-0.03c-2.37-0.46-3.84-1.37-4.73-2.67c-3.03-4.41,0.59-13.3-2.51-23.87
				c-0.47-1.61-1.04-3.19-1.67-4.73c0,0,0,0,0-0.01c-0.19-0.67-6.11-22.6-7.99-25.77c-1.9-3.21-2.39-6.7-3.19-15.81
				c-0.81-9.13,3.19-27.68,3.19-27.68c2.01,14.48,14.07,17.3,12.47,32.18C380.56,490.21,395.45,526.01,398.26,536.05z"/>
			<path class="st29" d="M395.13,258.71c0,0-4.21,4.84-9.04,8.31c-2.09,1.5-4.29,2.74-6.3,3.23c-3.4,0.81-9.56,1.84-15.41,2.13
				c-3.91,0.19-7.7,0.04-10.4-0.71c3.83-1.41,5.67-13.49,5.67-13.49c2.47,0.66,4.83,1.07,7.51,1.3
				C373.21,260,380.88,259.55,395.13,258.71z"/>
			<path class="st16" d="M369.71,486.64c1.87,3.17,7.8,25.1,7.99,25.77c-4.69-11.41-13.09-20.63-18.04-29.84
				c-5.63-10.46-8.56-35.43-8.56-35.43h-0.01c2.93-13.66,7.61-27.56,8.57-31.07c0,0,2.69,0.27,7.24,0.3c0,0,0.8,12.3,2.81,26.77
				c0,0-4,18.56-3.19,27.68C367.32,479.94,367.81,483.43,369.71,486.64z"/>
			<path class="st11" d="M353.98,271.67c2.7,0.76,6.49,0.9,10.4,0.71c0,0-4.17,5.5-9.46,9.59c-0.01,0-0.01,0-0.01,0
				c-1.79,1.39-3.69,2.6-5.6,3.39c-2.01-9.46-4.83-25.18-6.33-33.7l2.46-0.3l14.21,6.83C359.65,258.18,357.81,270.25,353.98,271.67z
				"/>
			<path class="st8" d="M351.09,292.65c1.89,4.89-18.44-3.64-19.18-3.96c0.04-0.37,0.09-0.76,0.13-1.14
				c4.44-0.94,8.96-1.47,13.4-1.26c1.36,0.07,2.73,0.13,4.1,0.17C350.19,289.48,350.74,291.72,351.09,292.65z"/>
			<path class="st8" d="M349.54,286.47c-1.37-0.04-2.74-0.1-4.1-0.17c1.27-0.06,2.57-0.4,3.87-0.94
				C349.38,285.74,349.46,286.11,349.54,286.47z"/>
			<path class="st8" d="M349.31,285.35c-1.3,0.54-2.6,0.89-3.87,0.94c-4.44-0.21-8.96,0.31-13.4,1.26
				c1.23-9.66,3.44-21.44,7.53-34.46c0.63-1.99,1.4-4.46,2.39-7.33c0,0,0.4,2.3,1.03,5.89
				C344.48,260.17,347.29,275.89,349.31,285.35z"/>
			<path class="st18" d="M341.68,556.31c0.64-0.81,1.14-1.41,1.51-1.99c-0.41,1.44-3.06,10.09-10.79,12.8
				c-5.84,2.06-13.11,0.23-13.59-2.1c-0.21-1.1,1.17-1.83,4.23-5.43c1.93-2.27,3.36-4.33,4.33-5.84c-0.09,0.69,0.29,1.41,1.43,2.56
				C332.56,560.05,338.74,560.05,341.68,556.31z"/>
			<path class="st15" d="M306.82,385.5c4.56,13.13,11.53,17.16,12.87,25.74c-11.74-5.99-28.4-15.86-45.58-31.48
				c-4.53-4.13-9.01-8.19-13.26-12.46c0.06-0.26,0.09-0.53,0.09-0.8c0-1.23-0.56-2.33-1.44-3.06l1.7-0.17
				c0.69,0.56,1.57,0.9,2.51,0.9c2.19,0,3.96-1.77,3.96-3.94c0-1.1-0.44-2.09-1.16-2.8l0.4-0.26c0.69,0.56,1.57,0.9,2.51,0.9
				c2.19,0,3.96-1.77,3.96-3.96c0-1.1-0.44-2.09-1.16-2.8l0.64-0.56c0.06,0.07,0.13,0.14,0.19,0.21c0.13,0.11,0.24,0.21,0.37,0.31
				c1.87,1.61,3.97,3.23,6.34,4.77c10.51,6.79,21.17,8.79,28.36,9.37C306.04,371.16,304.48,378.73,306.82,385.5z"/>
			<path class="st9" d="M297.84,288.69c2.17,0,3.94,1.77,3.94,3.96c0,1.79-1.2,3.31-2.84,3.79c-1.89-0.04-3.41-0.57-4.47-1.73
				c-0.37-0.6-0.59-1.3-0.59-2.06C293.88,290.47,295.65,288.69,297.84,288.69z"/>
			<path class="st30" d="M296.87,296.68c1.8,0.36,3.16,1.96,3.16,3.87c0,2.19-1.77,3.96-3.96,3.96c-0.56,0-1.07-0.11-1.54-0.31
				c-1.41-0.6-2.41-2-2.41-3.64c0-2.19,1.77-3.96,3.96-3.96C296.34,296.59,296.61,296.62,296.87,296.68z"/>
			<path class="st26" d="M298.94,296.44c-0.34,0.1-0.71,0.16-1.1,0.16c-0.31,0-0.63-0.04-0.93-0.11c-1.03-0.24-1.9-0.89-2.44-1.77
				C295.52,295.87,297.05,296.39,298.94,296.44z"/>
			<path class="st9" d="M293.88,305.72c2.19,0,3.96,1.77,3.96,3.96s-1.77,3.96-3.96,3.96c-0.4,0-0.8-0.06-1.17-0.17
				c-1.61-0.51-2.79-2.01-2.79-3.79C289.92,307.49,291.7,305.72,293.88,305.72z"/>
			<path class="st8" d="M296.91,296.48l-0.04,0.2c-0.26-0.06-0.53-0.09-0.8-0.09c-2.19,0-3.96,1.77-3.96,3.96
				c0,1.64,1,3.04,2.41,3.64l-0.64,1.53c-2.19,0-3.96,1.77-3.96,3.96c0,1.77,1.17,3.27,2.79,3.79l-0.6,1.39
				c-2.19,0-3.96,1.77-3.96,3.96c0,1.77,1.17,3.27,2.79,3.79l-0.07,0.29c-0.3-0.07-0.61-0.11-0.94-0.11c-2.19,0-3.96,1.77-3.96,3.96
				c0,1.5,0.84,2.81,2.07,3.49l-0.13,0.56c-0.27-0.06-0.54-0.09-0.83-0.09c-2.19,0-3.96,1.77-3.96,3.96c0,0.83,0.24,1.59,0.67,2.21
				l-1.79,1.44c-2.19,0-3.96,1.77-3.96,3.96c0,1.23,0.56,2.33,1.44,3.06l-0.89,0.04c-0.71-0.71-1.7-1.16-2.8-1.16
				c-2.17,0-3.94,1.77-3.94,3.96c0,0.91,0.3,1.74,0.81,2.4c-8.03-9.14-17.94-22.43-26.1-40.13c-7.56-16.4-11.37-31.74-13.3-44.27
				c-0.37-4.59-0.9-9.51-1.63-14.74c0-0.01,0-0.04,0-0.06c-2.07-14.76-5.83-31.96-12.51-51.14c0.99,0.79,2.01,1.27,3.13,1.59
				c0,0,14.07,8.53,16.07,11.94c2.01,3.43,1.01,4.83,8.66,8.04c4.53,1.91,12.59,0.54,14.8-4.61c0.7-1.63,0.67-3.31,0.39-4.77
				c5.47,15.17,26.87,74.2,31.77,81.67c0.16,0.24,0.33,0.46,0.51,0.64C295.01,295.59,295.88,296.24,296.91,296.48z"/>
			<path class="st30" d="M292.11,314.85c2.19,0,3.96,1.77,3.96,3.96s-1.77,3.96-3.96,3.96c-0.4,0-0.8-0.06-1.17-0.17
				c-1.61-0.51-2.79-2.01-2.79-3.79C288.15,316.62,289.92,314.85,292.11,314.85z"/>
			<path class="st9" d="M290.87,322.88c1.73,0.41,3.01,1.99,3.01,3.84c0,2.19-1.77,3.96-3.96,3.96c-0.69,0-1.33-0.17-1.89-0.47
				c-1.23-0.67-2.07-1.99-2.07-3.49c0-2.19,1.77-3.96,3.96-3.96C290.25,322.76,290.57,322.81,290.87,322.88z"/>
			<path class="st30" d="M287.91,330.76c1.79,0.39,3.13,1.97,3.13,3.87c0,2.19-1.77,3.96-3.96,3.96c-1.37,0-2.57-0.69-3.29-1.74
				c-0.43-0.63-0.67-1.39-0.67-2.21c0-2.19,1.77-3.96,3.96-3.96C287.37,330.68,287.64,330.71,287.91,330.76z"/>
			<path class="st9" d="M282.01,338.29c2.19,0,3.96,1.77,3.96,3.96c0,2.19-1.77,3.96-3.96,3.96c-0.96,0-1.84-0.34-2.51-0.9
				c-0.89-0.73-1.44-1.83-1.44-3.06C278.05,340.06,279.82,338.29,282.01,338.29z"/>
			<path class="st30" d="M278.61,345.35c0.71,0.71,1.16,1.7,1.16,2.8c0,2.19-1.77,3.96-3.96,3.96c-0.9,0-1.73-0.3-2.39-0.81
				c-0.13-0.1-0.24-0.2-0.37-0.31c-0.06-0.07-0.13-0.14-0.19-0.21c-0.06-0.07-0.13-0.14-0.19-0.21c-0.51-0.66-0.81-1.49-0.81-2.4
				c0-2.19,1.77-3.96,3.94-3.96C276.91,344.19,277.9,344.63,278.61,345.35z"/>
			<path class="st15" d="M272.87,350.76l-0.64,0.56c-0.71-0.71-1.71-1.16-2.8-1.16c-2.19,0-3.96,1.77-3.96,3.96
				c0,1.23,0.56,2.33,1.44,3.06l-0.4,0.26c-0.71-0.71-1.71-1.16-2.8-1.16c-2.19,0-3.96,1.77-3.96,3.96c0,1.21,0.56,2.31,1.44,3.04
				l-1.7,0.17c-0.67-0.56-1.56-0.9-2.51-0.9c-0.21,0-0.43,0.01-0.63,0.06c-7.2-7.9-13.49-16.68-17.9-27.78
				c-7.74-19.46-3.73-30.9-4.56-57.38c-0.11-3.5-0.31-7.27-0.61-11.29c1.93,12.53,5.74,27.87,13.3,44.27
				c8.16,17.7,18.07,30.98,26.1,40.13C272.74,350.62,272.81,350.69,272.87,350.76z"/>
			<path class="st9" d="M272.22,351.32c0.71,0.71,1.16,1.7,1.16,2.8c0,2.19-1.77,3.96-3.96,3.96c-0.94,0-1.83-0.34-2.51-0.9
				c-0.89-0.73-1.44-1.83-1.44-3.06c0-2.19,1.77-3.96,3.96-3.96C270.51,350.16,271.51,350.61,272.22,351.32z"/>
			<path class="st15" d="M267.14,198c0.14,2.9-1.31,5.13-2.31,6.64c-0.54,0.29-1.21,0.54-2,0.61c-3.2,0.33-5.54-2.47-5.84-2.83
				c1.53-2.99,0.21-6.21-0.03-6.77c1.13-0.16,1.66-0.77,1.66-0.77c2.11-0.63,4.24-1.27,6.37-1.91
				C266.45,195.3,267.07,196.24,267.14,198z"/>
			<path class="st30" d="M266.51,357.43c0.71,0.71,1.16,1.7,1.16,2.8c0,2.17-1.77,3.94-3.96,3.94c-0.94,0-1.83-0.34-2.51-0.9
				c-0.89-0.73-1.44-1.83-1.44-3.04c0-2.19,1.77-3.96,3.96-3.96C264.8,356.28,265.8,356.72,266.51,357.43z"/>
			<path class="st16" d="M264.98,192.97c-2.13,0.64-4.26,1.29-6.37,1.91c0.53-0.63,2.11-1.87,5.1-3.93
				C264.18,191.74,264.61,192.4,264.98,192.97z"/>
			<path class="st31" d="M256.17,195.51c-1.19-0.41-3.26-1.71-5.59-3.79c-1.39-1.77-2.99-2.43-3.74-1.96
				c-0.51,0.33-0.7,1.21-0.51,1.9c0.3,1.09,1.59,1.61,3.01,2.11C250.94,194.34,253.23,195.01,256.17,195.51z M228.53,160.2
				c4.16-1.13,8.14-1.63,11.79-1.63c1.77,0,3.46,0.11,5.04,0.34c3.7,0.51,6.84,1.61,9.17,3.13c0.01,0,0.01,0.01,0.03,0.01
				c0.5,0.39,1.03,0.77,1.53,1.16c3.34,2.94,6,8.74,6.13,9.04c0.47,1.03,1.41,3.17,0.69,3.81c-0.1,0.09-0.21,0.13-0.31,0.16
				c0,0,0,0-0.01,0c-0.21,0.03-0.36,0.04-0.36,0.04c-1.19-0.31-6.56-0.19-7.19,0c0.46,0.63,0.87,1.23,1.24,1.8c0,0,0,0,0.01,0.01
				c0.93,1.39,1.69,2.61,2.29,3.63c2.57,4.39,2.09,4.03,3.63,6.7c0.56,0.97,1.06,1.81,1.51,2.54c-2.99,2.06-4.57,3.3-5.1,3.93
				c0,0-0.53,0.61-1.66,0.77c-0.26-0.04-0.5-0.09-0.74-0.13c0.31,0.11,0.57,0.16,0.74,0.13c0.24,0.56,1.56,3.79,0.03,6.77
				c0.3,0.36,2.64,3.16,5.84,2.83c0.79-0.07,1.46-0.33,2-0.61c-0.97,1.49-2.31,2.99-3.91,4.21c-2.16,1.66-4.77,2.86-7.54,2.93
				c-4.41,0.1-5.89-2.74-11.37-5.74c-8.89-4.86-14.98-2.93-19.73-4.24c-1.11-0.31-2.14-0.8-3.13-1.59
				c-3.84-3.1-6.5-10.76-0.97-30.87c0.11-0.94,0.23-2.37,0.2-4.11c-0.01-0.56-0.03-1.07-0.07-1.57c0.26-2.47,0.81-5.26,1.89-8.19
				c1.24-3.37,2.43-4.86,4.33-8.86c1.53-3.2,3.5-7.97,5.03-14.27c-1.03,5.47-1.76,11.99-1.6,19.3
				C228.01,154.67,228.23,157.53,228.53,160.2z M231.21,178.63c0,0,0.61-0.41,2.69-4.16c0,0-9.13-1.74-9.66-1.87
				c0,0-0.27,0.87-0.3,2c-0.01,0.51,0.03,2.24,1.1,3.44C226.51,179.67,229.51,179.79,231.21,178.63z"/>
			<path class="st16" d="M261.8,137.17c2.8,3.23,1.67,8.34,0.81,12.16c-0.34,1.56-0.91,3.63-1.93,6.01
				c-1.01,2.37-2.49,5.07-4.6,7.87c-0.46-0.4-0.97-0.79-1.53-1.16c-0.01,0-0.01-0.01-0.03-0.01c0,0-0.06-1.94,0.96-5.47
				c1.7-5.96,3.61-7.9,4.09-11.46c0.31-2.33,0-5.84-3.3-10.56C256.6,133.5,260.18,135.32,261.8,137.17z"/>
			<path class="st32" d="M262.21,176.27c1.21,0.31-0.41,3.73-0.41,3.73c-0.41-0.26-0.6-0.1-2.6-0.8c-1.29-0.44-2.73-1.04-2.91-1.11
				c-0.01-0.01-0.01-0.01-0.01-0.01c-0.37-0.57-0.79-1.17-1.24-1.8C255.65,176.09,261.03,175.96,262.21,176.27z"/>
			<path class="st15" d="M261.8,180c0.96,0.6,1.69,2.5,0.4,8.41c-1.54-2.67-1.06-2.31-3.63-6.7c-0.6-1.01-1.36-2.24-2.29-3.63
				c0.19,0.07,1.63,0.67,2.91,1.11C261.2,179.9,261.38,179.74,261.8,180z"/>
			<path class="st16" d="M262.18,212.4c0.29,1.46,0.31,3.14-0.39,4.77c-2.21,5.16-10.27,6.53-14.8,4.61
				c-7.64-3.21-6.64-4.61-8.66-8.04c-2-3.41-16.07-11.94-16.07-11.94c4.74,1.31,10.84-0.61,19.73,4.24c5.49,3,6.96,5.84,11.37,5.74
				c2.77-0.07,5.39-1.27,7.54-2.93C260.91,208.86,261.37,210.14,262.18,212.4z"/>
			<path class="st9" d="M260.94,366.5c0,0.27-0.03,0.54-0.09,0.8c-1.53-1.54-3.03-3.1-4.5-4.7c0.2-0.04,0.41-0.06,0.63-0.06
				c0.96,0,1.84,0.34,2.51,0.9C260.38,364.18,260.94,365.28,260.94,366.5z"/>
			<path class="st9" d="M260.85,367.3c-0.36,1.8-1.96,3.16-3.87,3.16c-2.19,0-3.96-1.77-3.96-3.96c0-1.97,1.44-3.6,3.33-3.9
				C257.83,364.2,259.33,365.76,260.85,367.3z"/>
			<path class="st15" d="M256.27,134.56c3.3,4.71,3.61,8.23,3.3,10.56c-0.47,3.56-2.39,5.5-4.09,11.46
				c-1.01,3.53-0.96,5.47-0.96,5.47c-2.33-1.51-5.47-2.61-9.17-3.13l0.07-0.43c0.27-0.53,0.7-1.36,1.3-2.31
				c2.86-4.56,4.67-4.61,6.34-7.74c0.26-0.5,0.83-2.89,1.94-7.64c0.71-3,0.97-4.51,1.06-5.06
				C256.15,135.09,256.17,134.87,256.27,134.56z"/>
			<path class="st16" d="M250.58,191.73c2.33,2.07,4.4,3.37,5.59,3.79c-2.94-0.5-5.23-1.17-6.83-1.73c-1.43-0.5-2.71-1.03-3.01-2.11
				c-0.19-0.69,0-1.57,0.51-1.9C247.6,189.3,249.2,189.96,250.58,191.73z"/>
			<path class="st32" d="M233.9,174.47c-2.07,3.74-2.69,4.16-2.69,4.16c-1.7,1.16-4.7,1.04-6.17-0.59c-1.07-1.2-1.11-2.93-1.1-3.44
				c0.03-1.13,0.3-2,0.3-2C224.77,172.73,233.9,174.47,233.9,174.47z"/>
			<path class="st16" d="M222.9,134.96c4.03-3.21,6.64-2.61,6.64-2.61c-1.53,6.3-3.5,11.07-5.03,14.27c-1.9,4-3.09,5.49-4.33,8.86
				c-1.07,2.93-1.63,5.71-1.89,8.19c-0.31-5.23-1.8-7.4-2.54-11.2C215.06,148.83,218.88,138.17,222.9,134.96z"/>
		</g>
		<g>
		</g>
	</g>
</g>
</svg>
