<?xml version="1.0" encoding="utf-8"?>
<!-- Generator: Adobe Illustrator 26.0.2, SVG Export Plug-In . SVG Version: 6.00 Build 0)  -->
<svg version="1.1" id="Calque_1" xmlns="http://www.w3.org/2000/svg" xmlns:xlink="http://www.w3.org/1999/xlink" x="0px" y="0px"
	 viewBox="0 0 595.28 841.89" style="enable-background:new 0 0 595.28 841.89;" xml:space="preserve">
<style type="text/css">
	.st0{fill:#D8D6D6;}
	.st1{fill:#D29B7F;}
	.st2{fill:#B5B5B5;}
	.st3{fill:#8E706E;}
	.st4{fill:#C4C4C4;}
	.st5{fill:#8C5828;}
	.st6{fill:#858584;}
	.st7{fill:#706F6F;}
	.st8{fill:#E2A98D;}
	.st9{fill:#979696;}
	.st10{fill:#93602F;}
	.st11{fill:#846967;}
	.st12{fill:#93661D;}
	.st13{fill:#8F6047;}
	.st14{fill:#946B32;}
	.st15{fill:#895740;}
	.st16{fill:#B4B4B4;}
	.st17{fill:#999998;}
	.st18{fill:#8E6950;}
	.st19{fill:#DF9D76;}
	.st20{fill:#777776;}
	.st21{fill:#E2A181;}
	.st22{fill:#B58161;}
	.st23{fill:#7D4A06;}
	.st24{fill:#774D30;}
	.st25{fill:#75492A;}
	.st26{fill:#7F4D28;}
	.st27{fill:#ADADAD;}
</style>
<g>
	<g id="XMLID_00000144322299749003134420000015499300311566304160_">
		<g>
			<path class="st0" d="M534.14,454.59c0.31,3.31-3,9.63-6.31,5.03c-0.25-0.34-0.64-0.64-1.16-0.88
				c-6.83-5.06-12.71-6.72-16.74-7.35c-9.55-1.44-29.29-0.16-35.07-1.72c-5.92-1.61-2.91-5.22-8.13-8.03
				c-5.2-2.8-8.42-3.2-5.41-6.31c3-3.11,7.02-1.7,8.22-3.95c1.2-2.24-6.81-8.58-8.22-9.36s-3.41-9.25-13.35-17.21
				c-9.94-7.94-16.94-25.76-20.96-34.57c-4.02-8.83-10.03-43.56-10.03-43.56s0,0-0.02,0c10.71-19.48,27.1-44.33,27.1-44.33
				s16.65,7.63,25.09,21.27c2.19,3.55,5.69,12.65,9.74,24.23c1.61,4.6,3.3,9.6,5.02,14.79c0.88,4.6,4.7,24.52,9.16,42.14
				c2.81,11.14,4.27,16.79,6.33,20.04c2.05,3.27,2.75,4.91,3.6,8.33c0.31,1.31,0.42,2.45,0.61,3.99c0.45,3.77-5.16,6.47-5.16,6.47
				c2.05,0,4.35-0.38,6.22-1.06c0.05-0.02,0.09-0.03,0.14-0.05c3.66-1.2,7.47-0.02,9.28,2.72c0.38,0.55,0.63,1.13,0.8,1.69h-0.02
				c0,0-5.25,2.42-11.43,2.13c-6.16-0.31-8.57,3.08-10.52,4.81c-1.97,1.72-1.89,3.53-1.89,3.53s3.39-2.86,5.72-3.61
				c2.33-0.75,5.8-0.83,5.8-0.83c6.5-0.19,9-1.55,12.32-1.55c1.75,0,3.74,0.41,6.64,1.55c3.16,1.25,4.64,3.25,5.27,5.28
				c-0.36-0.17-5.39-2.39-10.61-1.75c-5.42,0.67-7.75,1.55-9.55,1.75c-1.81,0.2-4.97-0.31-7.99,0.81c-3,1.13-3.53,2.11-3.53,2.11
				s0.69-0.05,1.78-0.06c1-0.02,2.64-0.05,4.39,0.06c2.19,0.13,2.31,0.33,4.28,0.45c1.52,0.09,2.78,0.05,3.6-0.02
				c0.03,0,0.06,0,0.09,0c6.27,0.02,8.3,0.31,13.16,1.59c1.39,0.36,2.78,1.03,4.1,1.88C530.6,447.68,533.93,452.09,534.14,454.59z"
				/>
			<path class="st1" d="M526.67,458.75c0.38,0.28,0.77,0.56,1.16,0.88c-1.61,3.47-3.22,7-4.81,10.61
				c-2.02,4.58-3.94,9.08-5.77,13.52c-7.52-9.89-18.74-22.16-22.93-24.54C497.46,460.54,520.56,455.92,526.67,458.75z"/>
			<path class="st2" d="M526.8,438.21c1.05,3.39-0.3,6.83-0.3,6.83c-1.31-0.84-2.7-1.52-4.1-1.88c-4.86-1.28-6.89-1.58-13.16-1.59
				c-0.03,0-0.06,0-0.09,0c-1.06,0-2.25,0-3.6,0.02c-1.97-0.13-2.09-0.33-4.28-0.45c-1.75-0.11-3.39-0.08-4.39-0.06
				c-1.09,0.02-1.78,0.06-1.78,0.06s0.53-0.98,3.53-2.11c3.02-1.13,6.17-0.61,7.99-0.81c1.8-0.2,4.13-1.08,9.55-1.75
				c5.22-0.64,10.25,1.58,10.61,1.75C526.8,438.21,526.8,438.21,526.8,438.21z"/>
			<path class="st3" d="M523.52,493.12c0.67,1.31,1.05,2.34,1,3c-0.3,5.13,0,0-9.33,3.31c-9.32,3.31-68.01,21.98-68.01,21.98
				c-1.08-0.28-9.08-4.38-12.5-6.96c0,0,4.78-2.34,8.49,0.25c3.72,2.58,3.72,2.99,8.42,2.19c4.72-0.81,48.77-17.66,57.08-18.76
				C517,497.02,523.52,493.12,523.52,493.12z"/>
			<path class="st4" d="M444.07,429.09v-0.08l-38.33-58.79c0,0-0.39-10.44,2.41-24.09c0.83-4.03,4.31-11.29,8.82-19.48
				c0.02,0,0.02,0,0.02,0s6.02,34.73,10.03,43.56c4.02,8.82,11.02,26.63,20.96,34.57c9.94,7.96,11.94,16.43,13.35,17.21
				s9.43,7.13,8.22,9.36c-1.2,2.25-5.22,0.84-8.22,3.95c-3.02,3.11,0.2,3.52,5.41,6.31c5.22,2.81,2.2,6.42,8.13,8.03
				c5.78,1.56,25.52,0.28,35.07,1.72c4.03,0.63,9.91,2.28,16.74,7.35c-6.11-2.83-29.21,1.8-32.35,0.47
				c-0.08-0.05-0.14-0.08-0.19-0.11c-1.86-0.97-3.7-0.63-5.74,0.52l-27.07-2.92c-0.61-4.52-15.35-13.85-18.96-15.05
				c0,0-0.02,0-0.05-0.02c-0.41-0.14-3.78-1.41-7.17-4.8c-3.61-3.61-5.13-7.82,3-7.82C440.25,429.02,442.24,429.06,444.07,429.09z"
				/>
			<path class="st5" d="M429.98,526.68c1.45,0.31,3.95,0.59,8.16,0.64c0,0-1.2,15.76-1.8,21.77c-0.61,6.02,0.59,9.63-6.33,12.94
				c-1.59,0.77-3.45,1.5-5.39,2.17c-6.17,2.16-12.99,3.72-13.54,3.83h-0.02c0.17-0.39,3.22-7.5,2.56-17.65
				c-0.67-10.43,1.34-8.02-4.67-18.85c-6.02-10.83-5.63-24.88,0-27.29c5.61-2.41,15.65,0,15.65-4.81s-6.02-5.22,0-12.04
				c6.02-6.83,36.72-30.7,36.72-30.7c0.59,4.52-9.63,22.27-9.93,25.59c-0.31,3.3,3.61-1.2,16.85-7.86
				c9.36-4.7,15.26-12.07,20.15-14.8c2.03-1.14,3.88-1.48,5.74-0.52c0.05,0.03,0.11,0.06,0.19,0.11
				c4.19,2.38,15.41,14.65,22.93,24.54c2.77,3.64,5.03,6.97,6.27,9.36c0,0-6.52,3.91-14.85,5.02c-8.32,1.09-52.36,17.94-57.08,18.76
				c-4.7,0.8-4.7,0.39-8.42-2.19c-3.7-2.59-8.49-0.25-8.49-0.25c3.42,2.58,11.43,6.67,12.5,6.96c0.42,0.11,0.66,0.52,0.73,1.08
				c0,0-1.44,1.33-3.44,1.52c-2.02,0.2-4.31,0.11-9.63-0.39C429.51,523.11,429.98,526.68,429.98,526.68z"/>
			<path class="st2" d="M514.89,426.89c0.64,2.11,0.11,4.08-0.02,4.49c-3.31,0-5.81,1.36-12.32,1.55c0,0-3.47,0.08-5.8,0.83
				c-2.33,0.75-5.72,3.61-5.72,3.61s-0.08-1.81,1.89-3.53c1.95-1.73,4.36-5.13,10.52-4.81c6.17,0.3,11.43-2.13,11.43-2.13H514.89z"
				/>
			<path class="st2" d="M508.07,417.17c1.44,2.41-0.42,4.22-3.27,5.31c-0.05,0.02-0.09,0.03-0.14,0.05
				c-1.88,0.69-4.17,1.06-6.22,1.06c0,0,5.61-2.7,5.16-6.47c-0.19-1.53-0.3-2.67-0.61-3.99c-0.84-3.42-1.55-5.06-3.6-8.33
				c-2.06-3.25-3.52-8.89-6.33-20.04c-4.45-17.62-8.28-37.54-9.16-42.14C494.57,374.75,506.54,414.62,508.07,417.17z"/>
			<path class="st6" d="M502.56,696.45c0,0-0.44,1.06-1.22,2.95c0,0-0.02,0.02-0.03,0.03c-10.77,15.1-87.42,61.29-87.67,62.02
				c-0.27,0.8-227.99-48.55-281.85-60.6c-53.88-12.04-95.61-39.31-98.82-40.92s98.82-87.58,98.82-87.58l20.46,17.55l223.7,81.65
				l12.43-6.31l-7.94-20.46l-28.56-9.89v-5.86l61.76,16.99l13.99,3.85l33.7,9.27C461.32,659.14,501.85,686.03,502.56,696.45z"/>
			<path class="st7" d="M501.3,699.44c-2.94,7.03-10.69,25.37-18.41,42.47l-0.02-0.02c-16.04,14.1-41.56,32.62-76.4,42.23
				c-22.65,6.25-54.83,10.27-192.54-29.49c0,0-35.95-10.38-153.49-48.14c-3.34-4.06-6.31-8.07-9.02-12.04
				c-9.16-13.44-14.93-25.79-18.46-34.51c3.2,1.61,44.94,28.89,98.82,40.92c53.86,12.05,281.58,61.4,281.85,60.6
				C413.88,760.73,490.54,714.54,501.3,699.44z"/>
			<path class="st8" d="M461.32,456.7l27.07,2.92c-4.89,2.74-10.78,10.1-20.15,14.8c-13.24,6.66-17.16,11.16-16.85,7.86
				C451.69,478.97,461.92,461.22,461.32,456.7z"/>
			<path class="st9" d="M482.88,741.89l0.02,0.02c-6.56,14.52-13.15,28.13-16.76,33.2c-9.03,12.63-7.03,25.88-33.92,31.29
				c-26.87,5.42-75.03,13.24-91.88,9.63c-56.5-12.1-129.37-11.68-208.56-54.55c-36.26-19.65-57.18-37.78-71.34-54.99
				c117.54,37.76,153.49,48.14,153.49,48.14c137.7,39.76,169.89,35.75,192.54,29.49C441.32,774.51,466.84,755.99,482.88,741.89z"/>
			<path class="st10" d="M442.36,441.65c3.61,1.2,18.35,10.53,18.96,15.05c0,0-30.7,23.87-36.72,30.7c-6.02,6.81,0,7.22,0,12.04
				s-10.03,2.41-15.65,4.81c-5.63,2.41-6.02,16.46,0,27.29c6.02,10.83,4,8.42,4.67,18.85c0.66,10.14-2.39,17.26-2.56,17.65
				c-0.02,0.02-0.02,0.02-0.02,0.02c-6.31,2.7-11.72,4.81-16.24,4.22c-2.02-0.27-1.22-1.86,0.31-4c0.06-0.08,0.13-0.16,0.17-0.22
				c0.13-0.16,0.23-0.31,0.34-0.47c0.88-1.17,1.91-2.49,2.75-3.81c0.09-0.14,0.09-0.14,0.09-0.14c0.94-1.47,1.66-2.95,1.73-4.3
				c0.22-3.7,0.13-5.99,0.06-11.27c-0.03-2.03-0.06-4.52-0.06-7.69c0-11.44-8.42-21.37-13.24-24.98c-3.25-2.45-3.2-1.45-5.81-1.95
				c0,0,0,0-0.02,0c-1.25-0.23-3.09-0.81-6.21-2.27c-9.55-4.49-8.44-5.1-6.36-6.89c0.03-0.02,0.05-0.03,0.05-0.03l1.78-1.58
				c4.47-4.03,14.77-13.47,14.77-13.47l28.29-6.91c0,0,18.96-17.46,22.87-21.68c3.89-4.19,2.42-20.02,5.97-18.98
				C442.35,441.65,442.36,441.65,442.36,441.65z"/>
			<path class="st11" d="M447.91,522.49c0.19,1.06-0.14,2.63-0.73,3.42c-0.91,1.2-9.03,1.41-9.03,1.41
				c-4.2-0.05-6.71-0.33-8.16-0.64c0,0-0.47-3.56,4.86-3.06c5.31,0.5,7.61,0.59,9.63,0.39
				C446.47,523.82,447.91,522.49,447.91,522.49z"/>
			<path class="st0" d="M441.61,277.03c5.56,3.61,2.45,5.31,2.45,5.31s-16.4,24.85-27.1,44.33c-0.47-0.09-11.1-2.02-15.11,5.83
				c-4.13,8.03-0.83,18.07-6.1,24.88c-6.14,7.97-9.93,8.82-13.6,17.21c-3.61,8.27-1.91,16.97,0,22.91
				c-7.71-7.22-3.5-24.48-0.98-30.49c2.5-6.02,2.63-31.78,2.63-31.78h-0.02c4.6-15.18,9.89-30.23,15.55-42.86
				c8.41-18.77,14.99-25.29,18.52-27.24c0.75,0.14,1.34,0.16,1.78,0.11C419.64,265.24,436.05,273.42,441.61,277.03z"/>
			<path class="st0" d="M427.01,210.72c7,18.52,15.69,27.4,13.79,34.75c-0.5,1.94-1.69,3.16-2.55,4.33
				c-8.08,10.85-22.1,12.74-27.93,13.16c-6.02-1.38-8.46,0-14.6,4.74c-1.42,1.09-3.99,5.27-7.35,11.38c0,0,0,0-0.02,0.02
				c-0.2,0.16-1.72,1.38-3.97,3.25c0,0,4.1-13.24,3.99-21.46c-0.02-1.34,0.22-3,0.64-4.88c2.08-9.55,8.49-24.88,6.3-35.45
				c-2.61-12.65-10.24-57.58-37.92-55.77c-27.7,1.8-40.33-4.42-43.55,1.2c-1.39,2.42-4.99,8.08-8.64,13.75
				c-0.3,0.45-0.58,0.91-0.88,1.36c-4.55,7.03-8.92,13.69-8.92,13.69s-0.66,1.73-1.39,4.1c-0.42,1.34-0.86,2.91-1.23,4.45
				c-0.67,2.8-1.06,5.58-0.59,7.17c1.09,3.66,1.38,20.48,3.59,24.9c-2.78-2.91-7.25-1.42-7.25-1.42l-4.81-1.02
				c0,0,10.88-1.59,3.06-13.43c-7.83-11.85-21.88-31.9-21.88-31.9s9.83-14.05,25.88-21.48c6.52-3.02,10.16-8.69,13.57-14.58
				c4.99-8.6,9.47-17.69,21.74-19.73c20.68-3.41,63.8-18.21,81.26,9.16S418.59,188.45,427.01,210.72z"/>
			<path class="st12" d="M424.62,564.2l3,85.67l-13.99-3.85l-25.26-72.92v-0.02c3.3-1.99,5.78-3.69,6.75-4.83
				c-1.53,2.14-2.33,3.74-0.31,4c4.52,0.59,9.93-1.52,16.24-4.22c0,0,0,0,0.02-0.02h0.02C411.63,567.92,418.45,566.36,424.62,564.2z
				"/>
			<path class="st13" d="M416.18,264.69c0.63,0.2,1.17,0.34,1.67,0.44c-3.53,1.95-10.11,8.47-18.52,27.24
				c-5.66,12.63-10.96,27.68-15.55,42.86c-10.08,33.29-16.8,67.2-16.62,77.53c0.19,10.32-3.44,15.51-6.71,17.57
				c-1.14,0.72-2.25,1.06-3.13,1.08l-0.73-0.03c-3.02-0.56-105.94-21.63-105.94-21.63s-1.48-17.49-0.89-34.39
				c0.23-7.11,0.84-14.13,2.09-19.68c4.22-18.76,25.27-124.09,25.27-124.09l6.58,1.39c0,0-25.26,130.83-23.63,137.25
				c1.61,6.41,57.38,34.9,73.63,31.7c18.04-3.56,25.54-27.99,38.73-60.19c7.11-17.4,6.44-21.44,14.83-38.53
				c9.28-18.87,23.04-40.25,23.04-40.25C411.96,263.33,413.87,263.91,416.18,264.69z"/>
			<path class="st4" d="M401.85,332.5c4.02-7.85,14.65-5.92,15.11-5.83c-4.5,8.19-7.99,15.44-8.82,19.48
				c-2.8,13.65-2.41,24.09-2.41,24.09l-4.44,43.84l-1.02-0.11c0,0-10.41-9.24-18.13-16.46c-1.91-5.94-3.61-14.65,0-22.91
				c3.67-8.39,7.46-9.24,13.6-17.21C401.02,350.57,397.72,340.53,401.85,332.5z"/>
			<path class="st14" d="M388.38,573.11l25.26,72.92l-61.76-16.99V591.2v-0.02c1.48-0.23,2.63-0.53,3.33-0.86
				c5.05-2.39,22.98-11.1,33.17-17.22V573.11z"/>
			<path class="st12" d="M411.05,465.73c3.52,5.2,2.42,16.55,2.42,16.55l-28.29,6.91c0,0-10.3,9.44-14.77,13.47l0.53-0.48
				l3.09-60.54v-0.08h27.81C404.55,449.93,408.79,462.36,411.05,465.73z"/>
			<path class="st15" d="M395.72,267.7c6.14-4.74,8.58-6.11,14.6-4.74c0,0-13.75,21.38-23.04,40.25
				c-8.39,17.08-7.72,21.13-14.83,38.53c-13.19,32.2-20.69,56.63-38.73,60.19c-16.26,3.2-72.03-25.29-73.63-31.7
				c-1.63-6.42,23.63-137.25,23.63-137.25l4.81,1.02c0,0-5.41,113.16-5.69,118.57c-0.28,5.42,32.82,20.46,47.27,21.07
				c11.83,0.48,43.06-66.87,58.25-94.55c0.02-0.02,0.02-0.02,0.02-0.02C391.74,272.96,394.3,268.79,395.72,267.7z"/>
			<path class="st11" d="M401.85,441.57h-27.81h-14.86c0.38-3.33,0.75-6.66,1.14-9.99l39.01,2.05
				C399.33,433.63,400.36,436.99,401.85,441.57z"/>
			<path class="st2" d="M401.3,414.07l-1.97,19.55l-39.01-2.05c0.05-0.42,0.09-0.83,0.14-1.25c3.27-2.06,6.89-7.25,6.71-17.57
				c-0.19-10.33,6.53-44.23,16.62-77.53h0.02c0,0-0.13,25.76-2.63,31.78c-2.52,6.02-6.72,23.27,0.98,30.49
				c7.72,7.22,18.13,16.46,18.13,16.46L401.3,414.07z"/>
			<path class="st16" d="M238.73,595.56c2.81-9.57,6.38-20.57,7.72-23.2c2.41-4.7,45.53,0,45.53,0s4.42-8.53,11.04-21.77
				c4.24-8.46,29.85-25.02,47.78-35.89v-0.02c9.71-5.86,17.16-10.07,17.79-10.41c-2.08,1.8-3.19,2.41,6.36,6.89
				c3.11,1.45,4.95,2.03,6.21,2.27c-0.3,0.16-4.17,2.08-9.71,4.89c-5.52,2.81-12.66,6.52-19.57,10.24v0.02
				c-7.82,4.24-15.32,8.5-19.76,11.58c-12.44,8.63-25.29,20.46-29.31,31.09c-4,10.64-15.24,10.03,5.42,10.83
				c14.93,0.59,30.64,1.17,41.73-0.53c4.28-0.64,7.88-1.63,10.49-3.08c4.61-2.55,14.35-9.97,23.02-16.83
				c8.96-7.08,16.8-13.58,16.8-13.58c0.06,5.28,0.16,7.57-0.06,11.27c-0.08,1.34-0.8,2.83-1.73,4.3c0,0,0,0-0.09,0.14
				c-0.2,0.28-0.83,1.14-2.75,3.81c-0.11,0.16-0.22,0.31-0.34,0.47c-0.05,0.06-0.11,0.14-0.17,0.22c-0.97,1.14-3.45,2.84-6.75,4.83
				c-10.19,6.13-28.12,14.83-33.17,17.22c-0.7,0.33-1.84,0.63-3.33,0.86v0.02c-12.77,2.13-50.66,1.33-50.66,1.33
				c-0.53,7.89-1.08,15.79-1.61,23.68l-0.19,0.53l-7.74-2.69l0.3-0.86c0,0-1.59-19.26-3.45-26.48c-1.84-7.22-2.95-2.41-17.41-5.42
				c-14.44-3-17.44,4.81-27.09,16.26c-6.81,8.1-8.21,12.27-8.64,13.38l-0.38-0.14C234.74,609.99,236.49,603.23,238.73,595.56z"/>
			<path class="st12" d="M400.22,540.37c0,3.17,0.03,5.66,0.06,7.69c0,0-7.85,6.5-16.8,13.58c-3.06-6.52-6.22-14.58-8.63-24.09
				c-1.78-7.03-2.81-13.52-3.41-19.23c5.53-2.81,9.41-4.74,9.71-4.89c0.02,0,0.02,0,0.02,0c2.61,0.5,2.56-0.5,5.81,1.95
				C391.8,519,400.22,528.93,400.22,540.37z"/>
			<path class="st1" d="M395.32,220.55c2.19,10.57-4.22,25.9-6.3,35.45c0,0-1.13-9.97-0.64-11.77c0.48-1.8-7.71-8.13-10.63-11.16
				c-2.92-3.02-2.5-13.52-5.2-16.54c-2.7-3-9.03-4.52-13.5-6c-4.47-1.5-16.9-3.02-19.98-0.77c-3.08,2.25-4.74,13.4-7.5,12.41
				c-2.77-0.98-8.97,1.28-12.58,0c-3.61-1.28,5.36-23.7,5.36-23.7s0.25-4.22-0.66-4.92c-0.55-0.42-1.61,0.52-2.36,1.33l-2.06-2.05
				c2.42,0,3.67-1.78,4.67-4.28c1.2-3.02-0.3-2.41-4.66-1.2c-4.36,1.2-14.07-7.61-14.07-7.61c3.66-5.67,7.25-11.33,8.64-13.75
				c3.22-5.63,15.85,0.59,43.55-1.2C385.08,162.97,392.7,207.91,395.32,220.55z M372.99,187.35c0,0,5.86,1.2,1.05-3.02
				c-4.81-4.2-9.47-3.91-16.24-4.52c-6.78-0.59-10.24,1.95-16.41,5.27c-6.17,3.31-9.02,0.45-9.33,1.2c-0.3,0.75,3.02,6.47,6.39,6.33
				c3.38-0.16,5.35-1.66,14.54-5.27C362.16,183.74,372.39,187.2,372.99,187.35z"/>
			<path class="st8" d="M322.1,229.04c-0.98,0.03-2.06,0.02-3.24-0.06c-7.92-0.56-8.39-2.02-6.42-8.99
				c0.13-0.44,0.27-0.91,0.41-1.39c1.58-5.36,4.38-13.47,6.11-18.41c0.91-2.59,1.52-4.31,1.52-4.31s0.36-0.47,0.84-0.98
				c0.75-0.81,1.81-1.75,2.36-1.33c0.91,0.7,0.66,4.92,0.66,4.92s-8.97,22.41-5.36,23.7c3.61,1.28,9.82-0.98,12.58,0
				c2.77,0.98,4.42-10.16,7.5-12.41c3.08-2.25,15.51-0.73,19.98,0.77c4.47,1.48,10.8,3,13.5,6c2.7,3.02,2.28,13.52,5.2,16.54
				c2.92,3.03,11.11,9.36,10.63,11.16c-0.48,1.8,0.64,11.77,0.64,11.77l-2.94,0.66c1.61-8.82-26.07-18.41-33.29-23.04
				c-7.22-4.64-20.87-1.83-29.29-2.03c-0.42-0.02-0.88,0-1.36,0.02L322.1,229.04z"/>
			<path class="st8" d="M386.08,256.66l2.94-0.66c-0.42,1.88-0.66,3.53-0.64,4.88c0.11,8.22-3.99,21.46-3.99,21.46
				c-8.1,6.75-25.7,21.95-25.7,26.59c0,6.02-8.42,16.55-13.83,17.76c-5.42,1.2-18.07,4.81-25.29,11.44
				c-6.17,5.66-6.63,6.47-6.63,6.6c-0.22-0.23-2.13-2.78-2.7-19.84c-0.59-18.07,1.2-13.55,4.22-18.07
				c0.95-1.42-0.42-7.02-2.74-14.38c0.61,1.77,15.24,13.57,26.73,9.18c11.52-4.42,9.52-3.13,21.15-9.19
				c11.64-6.06,13.65-7.66,18.87-12.49C383.67,275.12,384.48,265.49,386.08,256.66z"/>
			<path class="st17" d="M380.43,644.79l7.94,20.46l-152.99-54.33c0.44-1.11,1.83-5.28,8.64-13.38l47.66,16.51l7.74,2.69
				l52.46,18.16L380.43,644.79z"/>
			<path class="st16" d="M388.38,665.26l-12.43,6.31l-223.7-81.65l-20.46-17.55l103.22,38.42c0.17,0.53,0.19,0.59,0.38,0.14
				L388.38,665.26z"/>
			<path class="st9" d="M352.78,233.62c7.22,4.63,34.9,14.22,33.29,23.04c-1.59,8.83-2.41,18.46-7.61,23.27
				c-5.22,4.83-7.22,6.42-18.87,12.49c-11.63,6.06-9.63,4.77-21.15,9.19c-11.49,4.39-26.12-7.41-26.73-9.18v-0.02
				c-4.97-15.86-14.24-39.97-13.82-48.8c0.16-3.45-0.44-5.75-1.39-7.27c0,0,16.71-4.47,25.62-4.75c0.48-0.02,0.94-0.03,1.36-0.02
				C331.92,231.79,345.56,228.98,352.78,233.62z M347.11,245.73c0.97-0.75,1.05-1.5,1.05-1.5s-2.41,0-12.46-1.2
				c-10.07-1.2-19.74,1.2-19.74,1.2s0.3,0.48,1,1.08c0,0-1.7,1.63-0.59,3.38c1.09,1.77-0.41,2.36,6.52,2.86
				c6.92,0.5,11.68-0.2,15.57,0c3.77,0.2,8.36-5.46,8.64-5.8C347.11,245.73,347.11,245.73,347.11,245.73z"/>
			<path class="st0" d="M312.94,344.72c0-0.13,0.45-0.94,6.63-6.6c7.22-6.63,19.87-10.24,25.29-11.44
				c5.41-1.2,13.83-11.74,13.83-17.76c0-4.64,17.6-19.84,25.7-26.59c2.25-1.88,3.77-3.09,3.97-3.25
				c-15.19,27.68-46.42,95.03-58.25,94.55c-14.44-0.61-47.55-15.65-47.27-21.07c0.28-5.41,5.69-118.57,5.69-118.57
				s4.47-1.48,7.25,1.42c0.22,0.45,0.47,0.77,0.73,0.94c0.95,1.52,1.55,3.81,1.39,7.27c-0.42,8.83,8.85,32.93,13.82,48.8v0.02
				c2.31,7.36,3.69,12.96,2.74,14.38c-3.02,4.52-4.81,0-4.22,18.07C310.82,341.94,312.72,344.49,312.94,344.72z"/>
			<path class="st14" d="M374.85,537.55c2.41,9.5,5.56,17.57,8.63,24.09c-8.67,6.86-18.41,14.29-23.02,16.83
				c-2.61,1.45-6.21,2.44-10.49,3.08l1.91-52.97v-0.02c6.91-3.72,14.05-7.42,19.57-10.24C372.04,524.03,373.07,530.52,374.85,537.55
				z"/>
			<path class="st9" d="M374.04,184.34c4.81,4.22-1.05,3.02-1.05,3.02c-0.61-0.16-10.83-3.61-20.01,0
				c-9.19,3.61-11.16,5.11-14.54,5.27c-3.38,0.14-6.69-5.58-6.39-6.33c0.31-0.75,3.16,2.11,9.33-1.2c6.17-3.31,9.63-5.86,16.41-5.27
				C364.57,180.43,369.23,180.13,374.04,184.34z"/>
			<path class="st14" d="M374.04,441.57v0.08l-3.09,60.54l-0.53,0.48l-1.78,1.58c0,0-0.02,0.02-0.05,0.03
				c-0.63,0.34-8.08,4.55-17.79,10.41c2.8-24.38,5.58-48.75,8.38-73.12H374.04z"/>
			<path class="st18" d="M359.18,441.57c-2.8,24.37-5.58,48.74-8.38,73.12v0.02c-17.93,10.86-43.55,27.43-47.78,35.89
				c-6.61,13.24-11.04,21.77-11.04,21.77s-43.12-4.7-45.53,0c-1.34,2.63-4.91,13.63-7.72,23.2l-38.56-17.52l5.75-17.21
				c2.8-16.85,44.73-151.08,44.73-151.08s102.93,21.07,105.94,21.63c0.22,0.05,0.47,0.06,0.73,0.03l2.99,0.17
				C359.93,434.91,359.55,438.24,359.18,441.57z"/>
			<path class="st18" d="M351.88,629.04v5.86l-52.46-18.16l0.19-0.53c0.53-7.89,1.08-15.79,1.61-23.68c0,0,37.89,0.8,50.66-1.33
				V629.04z"/>
			<path class="st18" d="M351.88,528.58l-1.91,52.97c-11.1,1.7-26.81,1.13-41.73,0.53c-20.66-0.8-9.43-0.19-5.42-10.83
				c4.02-10.63,16.87-22.46,29.31-31.09C336.56,537.09,344.06,532.82,351.88,528.58z"/>
			<path class="st19" d="M340.64,247.23c3.6,0,5.47-0.75,6.46-1.48c-0.28,0.34-4.88,6-8.64,5.8c-3.89-0.2-8.64,0.5-15.57,0
				c-6.92-0.5-5.42-1.09-6.52-2.86c-1.11-1.75,0.59-3.38,0.59-3.38c1.27,1.08,3.86,2.5,8.33,1.92
				C332.21,246.33,333.42,247.23,340.64,247.23z"/>
			<path class="st20" d="M259.05,109.94l4-15.46l6.56-25.4c0,0,0.61-5.88,4.97-11.6c4.36-5.71,12.33-4.2,29.74-1.64
				c17.41,2.55,21.12,12.04,21.12,12.04l-12.32,40.14l-4.85,15.8l-8.13,26.49l-0.09,0.33c0,0-5.02,2.25-21.87,0.89
				c-16.85-1.34-26.04-14.9-26.04-14.9L259.05,109.94z"/>
			<path class="st9" d="M319.27,187.35c4.36-1.2,5.86-1.81,4.66,1.2c-1,2.5-2.25,4.28-4.67,4.28c-0.48,0-1.02-0.06-1.59-0.22
				c-3.5-0.91-5.91-1.06-7.11-3.02c-1.2-1.95-6.22-8.5-6.22-8.5c0.3-0.45,0.58-0.91,0.88-1.36
				C305.21,179.74,314.91,188.56,319.27,187.35z"/>
			<path class="st21" d="M311.9,219.83l0.55,0.16c-1.97,6.97-1.5,8.42,6.42,8.99c1.17,0.08,2.25,0.09,3.24,0.06l0.03,2.56
				c-8.91,0.28-25.62,4.75-25.62,4.75c-0.23-0.36-0.47-0.67-0.73-0.94c-2.22-4.42-2.5-21.24-3.59-24.9
				c-0.47-1.59-0.08-4.38,0.59-7.17c0,0,10.05-0.13,14.51,2.92c4.47,3.05,2.8,4,4.19,8.16C312.27,216.86,312.15,218.71,311.9,219.83
				z"/>
			<path class="st22" d="M300.06,200.27c-2.72-0.55-3.16-0.89-3.16-1.06l-2.89-0.31c0.73-2.36,1.39-4.1,1.39-4.1
				s4.38-6.66,8.92-13.69c0,0,5.02,6.55,6.22,8.5c1.2,1.95,3.61,2.11,7.11,3.02c0.58,0.16,1.11,0.22,1.59,0.22l2.06,2.05
				c-0.48,0.52-0.84,0.98-0.84,0.98s-0.61,1.72-1.52,4.31l-1.3,0.55c0,0-5.2,1.45-13.65,0.2
				C302.35,200.69,301.05,200.47,300.06,200.27z"/>
			<path class="st22" d="M317.66,200.73l1.3-0.55c-1.73,4.94-4.53,13.05-6.11,18.41c-0.14,0.48-0.28,0.95-0.41,1.39l-0.55-0.16
				c0.25-1.13,0.38-2.97-0.42-5.41c-1.39-4.16,0.28-5.11-4.19-8.16c-4.45-3.05-14.51-2.92-14.51-2.92c0.38-1.55,0.81-3.11,1.23-4.45
				l2.89,0.31c0,0.17,0.44,0.52,3.16,1.06c0.98,0.2,2.28,0.42,3.95,0.67C312.46,202.19,317.66,200.73,317.66,200.73z"/>
			<path class="st23" d="M317.66,113.3c0.95,4.19-2.91,7.53-3.33,10.25c-0.42,2.7-4.99,0.59-4.99,0.59l-1.06-0.33l4.85-15.8
				C313.13,108.01,316.71,109.11,317.66,113.3z"/>
			<path class="st18" d="M291.98,613.19l-0.3,0.86l-47.66-16.51c9.64-11.44,12.65-19.26,27.09-16.26
				c14.46,3.02,15.57-1.8,17.41,5.42C290.39,593.93,291.98,613.19,291.98,613.19z"/>
			<path class="st0" d="M268.71,222.55c4.24,1.14,7.49,4.64,8.42,9.03c0,0-21.05,105.33-25.27,124.09
				c-1.25,5.55-1.86,12.57-2.09,19.68h-0.02c0,0-6.41-0.72-6.66-17.18c-0.27-16.44,8.49-28.89,8.53-32.9
				c0.03-4,6.39-32.9,4.22-38.51c-2.17-5.63-2.69-19.43-8.46-23.56c6.03-21.84,10.72-38.25,10.72-38.25
				C258.53,224.62,262.99,221.02,268.71,222.55z"/>
			<path class="st23" d="M263.05,94.48l-4,15.46c-5.02-1.61-10.03-3.22-15.04-4.83c-0.03-1.3-0.27-2.5-0.92-3.39v-0.02
				c3.63-6.35,5.64-11.35,6.05-12.94c4.47,1.88,8.94,3.74,13.41,5.6L263.05,94.48z"/>
			<path class="st4" d="M255.84,286.76c2.17,5.61-4.19,34.51-4.22,38.51c-0.05,4.02-8.8,16.46-8.53,32.9
				c0.25,16.46,6.66,17.18,6.66,17.18h0.02c-0.59,16.9,0.89,34.39,0.89,34.39s-5.41-3-16.26-11.43
				c-10.83-8.42-12.04-15.66-13.24-27.7c-0.59-5.92,8.35-41.31,17.58-75.71c2.95-11,5.94-21.9,8.64-31.7
				C253.16,267.34,253.67,281.14,255.84,286.76z"/>
			<path class="st0" d="M238.74,215.04c2.28,2.11,19.37,9.93,19.37,9.93s-4.69,16.41-10.72,38.25c-5.77-4.14-29.64-3.13-36.15-3.63
				c-6.52-0.52-9.74,4.53-12.54,3.63c-2.81-0.92-5.83-1.95-5.83-1.95c-1.14,1.39-2.38,2.74-3.6,3.99c0,0-0.02,0-0.02,0.02
				c-0.73,0.59-11.85-1.59-12.05-5.67c-0.19-4.13-2.77-9.78-2.77-9.78l-0.02,0.02c-0.5,0.13-8.49,2.17-16.26-2.44
				c-8.03-4.75-11.24-7.92-11.64-13.75c-0.38-5.66-2-11.08-2.11-11.43c0-0.02,0-0.02,0-0.02c0.8-1.59,1.38-2.83,1.73-3.58
				c-0.77,2.06-1.86,7.02,5.8,6.06c2.16-0.27,5.88-1.63,10.44-3.61c15.82-6.88,41.84-21.27,48.85-24.07
				c9.02-3.61,14.74-5.42,15.35,0c0.17,1.5,0.47,2.74,0.91,3.75c1.09,2.64,3.02,3.89,5.41,4.97
				C236.21,207.21,236.48,212.93,238.74,215.04z"/>
			<path class="st24" d="M249.75,84.27c0,0,0,0.53-0.08,1.34c-0.08,0.83-0.23,1.94-0.53,3.14c-0.41,1.59-2.42,6.6-6.05,12.94
				c-0.19-0.27-0.42-0.52-0.7-0.72c-0.94-0.7-2.05-0.81-2.94-0.78c0.19-0.55,0.28-1.05,0.3-1.48c0.06-2.33,3.05-12.19,4.47-19.16
				C247.97,81.07,249.23,82.97,249.75,84.27z"/>
			<path class="st25" d="M244.93,73.74c0.08,1.28-0.22,3.38-0.72,5.81c-1.42,6.97-4.41,16.83-4.47,19.16
				c-0.02,0.44-0.11,0.94-0.3,1.48h-0.02c-1.17,3.45-5.5,8.82-8.49,10.46c-3.45,1.91-6.22,3.41-10.25,2.2
				c-3.99-1.19-4.02-2.17-4.02-2.2l-0.16-0.69c3.83-0.83,8.19-2.2,10.61-2.67c3.85-0.75,4.72-6.92,5.02-13.24
				c0.3-6.31,3.16-19.41,2.41-23.02C234.56,71.03,244.64,68.78,244.93,73.74z"/>
			<path class="st5" d="M244.01,105.11c0.06,3.19-1.19,6.96-1.19,8.19c0,3.89-2.55,10.1-11.29,15.21
				c-8.72,5.13-14.86,4.06-14.86,4.06s-0.33,8.42-0.03,20.16c0.31,11.74-1.59,42.76-5.41,44.25c-3.81,1.47-24.38,4.81-24.09,3.75
				c0.31-1.06-2.7-27.84-2.09-29.64c0,0-14.15,24.68-14.76,27.38l-0.06,0.19c-0.55,1.05-3.53,1.52-7.55,0.97
				c1.69-5.58,6.8-46.8,14.52-57.33c8.24-11.24,11.05-19.26,7.85-22.87c-3.22-3.61-4.24-8.49-3.13-14.68
				c1.41-7.8,7.69-16.05,15.3-17.15c0.95-0.14,1.77-0.14,2.33-0.11l8.33,3.95c-0.52,0.88-1.16,1.61-1.92,2.14
				c-4.22,2.86-7.38,4.06-8.74,7.06c-1.38,3.02,1.81,3.77,5.13,4.06c1.02,0.09,2.61-0.09,4.35-0.41c0.02,0.34,0.42,5.85,4.08,6.28
				c1.39,0.17,3.49-0.14,5.74-0.64l0.16,0.69c0,0.03,0.03,1.02,4.02,2.2c4.03,1.2,6.8-0.3,10.25-2.2c2.99-1.64,7.32-7,8.49-10.46
				h0.02c0.89-0.03,2,0.08,2.94,0.78c0.28,0.2,0.52,0.45,0.7,0.72v0.02C243.75,102.61,243.98,103.81,244.01,105.11z"/>
			<path class="st4" d="M247.39,263.21c-2.7,9.8-5.69,20.69-8.64,31.7c0,0-32.93-18.94-44.97-21.12c-4.53-0.81-8.42-1.28-11.85-1.84
				c0,0,3.56-2.84,7.33-6.69c0-0.02,0.02-0.02,0.02-0.02c1.22-1.25,2.45-2.59,3.6-3.99c0,0,3.02,1.03,5.83,1.95
				c2.8,0.91,6.02-4.14,12.54-3.63C217.75,260.08,241.62,259.07,247.39,263.21z"/>
			<path class="st17" d="M200.17,578.04l38.56,17.52c-2.24,7.67-3.99,14.43-3.72,15.22l-103.22-38.42l25.88-13.65L200.17,578.04z"/>
			<path class="st26" d="M234.56,71.03c0.75,3.61-2.11,16.71-2.41,23.02c-0.3,6.31-1.17,12.49-5.02,13.24
				c-2.42,0.47-6.78,1.84-10.61,2.67c-2.25,0.5-4.35,0.81-5.74,0.64c-3.66-0.44-4.06-5.94-4.08-6.28c3.92-0.75,8.58-2.19,8.89-2.59
				c0.45-0.61,6.31-32.06,6.17-33.4c-0.06-0.53-1.03-1.55-2.2-2.58c0,0,8.67-1.64,9.72-1.03C230.34,65.31,233.81,67.42,234.56,71.03
				z"/>
			<path class="st10" d="M206.7,104.33c-1.73,0.31-3.33,0.5-4.35,0.41c-3.31-0.3-6.5-1.05-5.13-4.06c1.36-3,4.52-4.2,8.74-7.06
				c0.77-0.53,1.41-1.27,1.92-2.14c2.33-3.88,2.39-10.47,2.14-13.05c-0.3-3.17-17.16-10.69-17.16-10.69
				c0.91-0.14,22.43-5.41,22.43-5.41s2.39,1.77,4.27,3.44c1.17,1.03,2.14,2.05,2.2,2.58c0.14,1.34-5.72,32.79-6.17,33.4
				C215.28,102.14,210.63,103.58,206.7,104.33z"/>
			<path class="st23" d="M210.03,78.41c0.25,2.58,0.19,9.18-2.14,13.05l-8.33-3.95l-18.08-8.6l-34.95-16.6L153,51.46l39.87,16.26
				C192.87,67.72,209.73,75.24,210.03,78.41z"/>
			<path class="st10" d="M181.48,78.91l18.08,8.6c-0.56-0.03-1.38-0.03-2.33,0.11c-7.61,1.09-13.9,9.35-15.3,17.15
				c-1.11,6.19-0.09,11.07,3.13,14.68c3.2,3.61,0.39,11.63-7.85,22.87c-7.72,10.53-12.83,51.75-14.52,57.33
				c-3.92-0.52-8.82-2-13.33-4.85c-1.84-1.14-3.61-2.52-5.24-4.14c-9.93-9.93-12.65-15.35-12.65-15.35s24.99-25.57,30.1-36.4
				c2.13-4.52,5.85-9.05,7.22-15.96c1.42-7.17-0.02-11.27,0-16.55C168.81,99.78,171.1,90.41,181.48,78.91z"/>
			<path class="st2" d="M189.26,265.26c-3.77,3.85-7.33,6.69-7.33,6.69c-5.64-0.92-9.97-2.08-13.74-5.46
				c-6.02-5.41-6.31-6.61-7.82-6.91c0,0,6.99-4.25,14.05-9.77l0.02-0.02c0,0,2.58,5.66,2.77,9.78
				C177.41,263.66,188.52,265.85,189.26,265.26z"/>
			<path class="st21" d="M187.15,200.73c-0.3,1.06,20.27-2.28,24.09-3.75c-7,2.8-33.03,17.19-48.85,24.07l7.85-22.38l0.06-0.19
				c0.61-2.7,14.76-27.38,14.76-27.38C184.44,172.9,187.46,199.67,187.15,200.73z"/>
			<path class="st27" d="M174.43,249.81c-7.06,5.52-14.05,9.77-14.05,9.77c-1.5-0.31-11.44,1.2-15.35-3.92
				c-3.91-5.11-12.33-13.1-6.92-22.04c2.75-4.55,4.88-8.57,6.31-11.43c0.11,0.34,1.73,5.77,2.11,11.43c0.41,5.83,3.61,9,11.64,13.75
				C165.94,251.99,173.93,249.94,174.43,249.81z"/>
			<path class="st8" d="M162.69,199.64c4.02,0.55,7,0.08,7.55-0.97l-7.85,22.38c-4.56,1.99-8.28,3.34-10.44,3.61
				c-7.66,0.95-6.56-4-5.8-6.06c0.08-0.19,0.14-0.36,0.2-0.48c0.02-0.02,0.03-0.05,0.03-0.06c0,0,0,0,0-0.02
				c0.03-0.05,0.05-0.08,0.06-0.13c0.05-0.11,0.08-0.17,0.08-0.17l2.83-22.95C153.87,197.64,158.76,199.12,162.69,199.64z"/>
		</g>
		<g>
		</g>
	</g>
</g>
</svg>
