<?xml version="1.0" encoding="utf-8"?>
<!-- Generator: Adobe Illustrator 26.0.2, SVG Export Plug-In . SVG Version: 6.00 Build 0)  -->
<svg version="1.1" id="Calque_1" xmlns="http://www.w3.org/2000/svg" xmlns:xlink="http://www.w3.org/1999/xlink" x="0px" y="0px"
	 viewBox="0 0 595.28 841.89" style="enable-background:new 0 0 595.28 841.89;" xml:space="preserve">
<style type="text/css">
	.st0{fill:#F9F4F4;}
	.st1{fill:#C2C1C1;}
	.st2{fill:#D7D5D5;}
	.st3{fill:#7C574D;}
	.st4{fill:#785148;}
	.st5{fill:#EAB6AC;}
	.st6{fill:#A53851;}
	.st7{fill:#7A5344;}
	.st8{fill:#CEB9B7;}
	.st9{fill:#C8C8C8;}
	.st10{fill:#B4B4B4;}
	.st11{fill:#7C2D2D;}
	.st12{fill:#E52722;}
</style>
<g>
	<g id="XMLID_00000012462120196708213110000013165627371889463977_">
		<g>
			<path class="st0" d="M485.18,669.29c0.88,4.36,1.35,6.77,1.35,6.77s-17.45,3.95-22.83,13.34c0,0-22.15-33.95-31.21-115.3
				c-3.95-35.53-10.22-62.2-16.02-80.96c0.7,1.26,1.73,3.16,2.94,5.53c20.27,39.77,20.44,71.22,23.49,95.82
				C448.26,637.81,481.16,668.6,485.18,669.29z"/>
			<path class="st1" d="M416.47,493.14c5.8,18.76,12.06,45.43,16.02,80.96c9.07,81.35,31.21,115.3,31.21,115.3s0,0-0.02,0.02
				c-0.39,0.51-8.3,9.99-30.68-20.12c-22.99-30.9-30.38-71.18-34.41-98.02c-4.03-26.85-12.34-61.08-15.89-80.55
				c-0.45-2.48-0.76-8.55-2.54-16.27c0,0-1.04-17.35-2.26-33.11c-1.23-15.77-36.35-84.18-36.35-84.18s-1.5-2.56-2.89-6.74
				l18.32-4.18l0.59-0.2c1.18,3.56,2.09,6.07,2.09,6.07s61.23,96.93,66.77,119.59c5.54,22.65,23.16,74.95,28.7,82.77
				c5.53,7.83,9.14,12,9.14,12h0.02c9.28,44.63,17.71,86.8,20.89,102.8c-4.03-0.7-36.92-31.49-42.28-74.81
				c-3.06-24.6-3.22-56.05-23.49-95.82C418.2,496.3,417.17,494.39,416.47,493.14z"/>
			<path class="st2" d="M464.29,566.49h-0.02c0,0-3.62-4.18-9.14-12c-5.54-7.83-23.16-60.13-28.7-82.77
				c-5.54-22.66-66.77-119.59-66.77-119.59s3.44-3.89,5.9-7.45c1.65-2.39,2.86-4.63,2.29-5.43c2.86,2.69,55.3,52.91,69.01,104.16
				C443.33,467.57,454.3,518.45,464.29,566.49z"/>
			<path class="st0" d="M463.69,689.41c-5.34,9.39,2.71,14.76-8.04,19.45c-10.73,4.71-30.87,8.05-36.24,9.4
				c0,0-27.19-61.91-30.2-87.09c-7.43-61.91-15.14-126.23-15.11-129.88c0.06-7.55,0.42-25.61-4.71-48.79
				c-0.38-1.68-0.76-3.32-1.17-4.92c0.67,0.94,1.67,2.38,2.79,4.18c4.9,7.96,7.6,15.96,9.14,22.69c1.79,7.72,2.09,13.79,2.54,16.27
				c3.56,19.47,11.87,53.69,15.89,80.55c4.03,26.84,11.41,67.12,34.41,98.02C455.39,699.4,463.29,689.93,463.69,689.41z"/>
			<path class="st2" d="M260.61,475.06c0.38-6.6,0.06-11.47-1.29-13.88C259.33,461.18,259.86,466.56,260.61,475.06z M260.61,475.09
				c-1.5,25.51-13.61,76.66-18.41,110.11c-4,27.9-19.19,73.98-28.99,101.91c0,0-1.71-10.46-20.92-23.89
				c-19.22-13.43-21.16-30.38-11.81-42.7c9.37-12.34,30.35-124.42,29.25-136.5c-1.09-12.08,16.2-92.13,23.08-119.98
				c6.45-26.11,11.1-32.64,11.64-33.35c0.05-0.06,0.06-0.08,0.06-0.08c2.62-3.13,6.16-7.4,10.2-12.37l0.02,0.02
				c0,0,3.92,6.68,17,13.73c13.09,7.04,30.88,7.72,41.95,11.75c11.08,4.03,27.87,13.43,27.87,13.43s35.12,68.41,36.35,84.18
				c1.21,15.76,2.26,33.11,2.26,33.11c-1.54-6.74-4.24-14.73-9.14-22.69c-1.12-1.8-2.12-3.24-2.79-4.18
				c0.41,1.6,0.79,3.24,1.17,4.92c5.13,23.18,4.77,41.24,4.71,48.79c-0.03,3.65,7.67,67.97,15.11,129.88
				c3.01,25.17,30.2,87.09,30.2,87.09s-26.25,1.35-52.06-25.51c-25.79-26.85-30.64-97.11-30.58-112.99c0.2-42.79,5.53-50.14,0-81.11
				c-5.16-29.06-16.26-51.71-25.08-66.58c3.21,8.36,7.6,25.52,7.8,44.78c0.24,25.4-4.78,78.81-6.8,138.21
				c-1.45,42.75,2.57,82.62,5.04,103.19h-0.02c-0.74-0.32-24.7-11.08-48.58-42.2c-24.24-31.62-6.78-73.64-4.1-101.97
				C267.03,552.92,262.85,500.31,260.61,475.09z"/>
			<path class="st0" d="M367.35,692.76c25.81,26.85,52.06,25.51,52.06,25.51c-5.37,1.35-11.41,9.4-18.8,12.75
				c-7.37,3.36-17.44,7.39-51.35,4.03c-11.08-1.11-20.81-1.91-29.78-2.5c-0.08-1.18-0.79-6.27-1.76-14.27
				c-2.47-20.57-6.49-60.44-5.04-103.19c2.01-59.4,7.04-112.81,6.8-138.21c-0.2-19.26-4.59-36.42-7.8-44.78
				c8.83,14.87,19.92,37.51,25.08,66.58c5.53,30.97,0.2,38.31,0,81.11C336.71,595.65,341.56,665.9,367.35,692.76z"/>
			<path class="st0" d="M391.09,220.87c1.8,7.77-7.86,47.37-8.39,71.53c-0.54,24.16-2.89,23.37-5.92,30.82
				c-3.01,7.43-13.08,10.63-13.08,10.63c-1.88-3.47-3.66-8.6-4.03-15.61c-0.02-0.41-0.02-0.85,0-1.33
				c0.59-14.34,19.54-58.08,22.15-68.77c2.68-11.05-1.68-40.31-1.68-40.31S389.27,213.1,391.09,220.87z"/>
			<path class="st0" d="M311.78,174.69c-1.42,2.66-4.77,8.83-8.73,13.9c0,0-7.4,2.07-9.04-9.01c-1.65-11.07-6.77-25.84,0-48.32
				c6.75-22.49,13.32-40.95,25.48-43.29c12.14-2.35,12.19,0,29.78,3.69c17.61,3.69,23.24,5.15,23.24,5.15
				c6.66,8.17,14.38,20.6,17.21,37.03c1.42,8.31,4.34,30.28-7.75,44.69c-1.14,1.35-2.44,2.62-3.95,3.77l-0.5-0.68
				c0,0-5.71-9.07-6.49-25.52c-0.79-16.44,0.45-20.13,0-25.16c-0.45-5.04-4.15-4.71-5.49,4.69c-1.33,9.4-3.63,10.4-4.66,22.48
				c-1.04,12.08,4.69,30.09,4.69,30.09c-0.48,0.14-0.95,0.27-1.42,0.39c-3.91,1.09-7.22,2.07-10.05,2.95c0,0-12.34-3.38-12.52-18.24
				c-0.2-14.87,0-19.89,0-19.89s-9.6,8.27-9.93,19.06c-0.33,10.81,5.15,22.22,5.15,22.22l4.78,0.71c-5.4,1.48-7.4,1.18-12.5-1.17
				C324.27,192.03,317.41,183.22,311.78,174.69z"/>
			<path class="st3" d="M380.14,207.82c0,0,4.36,29.26,1.68,40.31c-2.6,10.69-21.56,54.44-22.15,68.77l-1.8-0.02
				c0.02-2.54-0.17-5.04-0.89-7.37c-0.47-1.51-0.44-4.04-0.06-7.25c1.86-15.21,12.03-45.69,17.85-56.34c7.04-12.91,0-39.77,0-39.77
				L380.14,207.82z"/>
			<path class="st2" d="M377.51,181.6l0.5,0.68c-3.16,2.47-7.24,4.47-12.46,5.9c0,0-5.74-18.01-4.69-30.09
				c1.03-12.08,3.33-13.08,4.66-22.48c1.35-9.4,5.04-9.73,5.49-4.69c0.45,5.03-0.79,8.72,0,25.16
				C371.8,172.54,377.51,181.6,377.51,181.6z"/>
			<path class="st4" d="M374.77,206.16c0,0,7.04,26.85,0,39.77c-5.81,10.66-15.99,41.13-17.85,56.34l-2.98-0.38
				c1.67-12.93,3.98-27.04,5.06-34.14c2.01-13.28,1.5-37.81,1.5-37.81v-0.02c4.57-1.5,7.92-4.27,9.92-7.52
				c1.48-2.39,0.02-10.49-1.86-18.17L374.77,206.16z"/>
			<path class="st5" d="M368.55,204.23c1.88,7.67,3.35,15.77,1.86,18.17c-2,3.25-5.34,6.02-9.92,7.52c-2.3,0.79-4.93,1.24-7.87,1.29
				c-1.03,0.02-2.16,0.03-3.36,0.03c-8.9,0.12-21.63-0.15-27.85-7.11c-7.04-7.92-9.05-10.26-11.07-17.64
				c-2.01-7.39-9.85-14.88-9.85-14.88c0.88-0.94,1.73-1.95,2.56-3.03c3.97-5.07,7.31-11.23,8.73-13.9
				c5.63,8.54,12.49,17.35,17.27,19.54c5.1,2.35,7.1,2.65,12.5,1.17c2.88-0.79,6.72-2.09,12.52-3.86c2.83-0.88,6.15-1.86,10.05-2.95
				C364.13,188.58,366.56,196.17,368.55,204.23z"/>
			<path class="st2" d="M372.5,96.8c0,0-5.63-1.45-23.24-5.15c-17.59-3.69-17.64-6.04-29.78-3.69
				c-12.16,2.35-18.73,20.8-25.48,43.29c-6.77,22.48-1.65,37.25,0,48.32c1.63,11.08,9.04,9.01,9.04,9.01
				c-0.83,1.07-1.68,2.09-2.56,3.03c-2.98,3.18-6.13,5.31-8.95,4.69c-1.53-0.33-2.8-1.44-3.84-3.07
				c-5.39-8.34-5.24-30.43-5.21-33.73c0.14-18.65,0.47-64.23,30.7-77.46c22.15-9.7,46.78,3.91,52.36,7.14
				C367.46,91.06,369.89,93.61,372.5,96.8z"/>
			<path class="st3" d="M367.85,339.25c0.58,0.8-0.64,3.04-2.29,5.43h-0.02c0,0-1.18-1.6-5.87-8.51c-3.45-5.06-1.85-12.32-1.8-19.29
				l1.8,0.02c-0.02,0.48-0.02,0.92,0,1.33c0.36,7.01,2.15,12.14,4.03,15.61c1.53,2.85,3.12,4.57,4.03,5.28
				C367.77,339.16,367.82,339.2,367.85,339.25z"/>
			<path class="st4" d="M365.55,344.68h0.02c-2.47,3.56-5.9,7.45-5.9,7.45s-0.91-2.51-2.09-6.07c-1.8-5.37-4.27-13.17-5.28-18.42
				c-0.79-4.07,0.18-14.46,1.65-25.75l2.98,0.38c-0.38,3.21-0.41,5.74,0.06,7.25c0.73,2.33,0.91,4.83,0.89,7.37
				c-0.05,6.96-1.65,14.23,1.8,19.29C364.37,343.08,365.55,344.68,365.55,344.68z"/>
			<path class="st6" d="M360.49,229.94c0,0,0.51,24.54-1.5,37.81c-1.07,7.1-3.39,21.21-5.06,34.14
				c-1.47,11.29-2.44,21.68-1.65,25.75c1.01,5.25,3.48,13.05,5.28,18.42l-0.59,0.2l-18.32,4.18c-0.74-2.21-1.45-4.89-1.89-7.89
				c-0.53-3.59-0.67-7.64,0-11.9c2.29-14.43,12.49-99.38,12.49-99.38v-0.03c1.2,0,2.33-0.02,3.36-0.03c2.94-0.05,5.57-0.5,7.87-1.29
				V229.94z"/>
			<path class="st7" d="M349.26,231.24v0.03c0,0-10.2,84.95-12.49,99.38c-0.67,4.25-0.53,8.31,0,11.9c0,0-17.17-4.51-31.37-17.94
				c-14.2-13.43-12.52-21.48-8.83-27.85c3.69-6.37,14.12-21.78,15.11-28c1-6.22,8.2-16.26,7.8-28.69
				c-0.42-12.44,1.92-15.94,1.92-15.94C327.63,231.09,340.36,231.36,349.26,231.24z"/>
			<path class="st2" d="M341.56,173.29c0.18,14.87,12.52,18.24,12.52,18.24c-5.8,1.77-9.64,3.07-12.52,3.86l-4.78-0.71
				c0,0-5.48-11.41-5.15-22.22c0.33-10.79,9.93-19.06,9.93-19.06S341.36,158.43,341.56,173.29z"/>
			<path class="st3" d="M338.66,350.43c1.39,4.18,2.89,6.74,2.89,6.74s-16.79-9.4-27.87-13.43c-11.07-4.03-28.85-4.71-41.95-11.75
				c-13.08-7.05-17-13.73-17-13.73l-0.02-0.02c18.36-22.46,47.26-58.98,49.91-66.8c3.86-11.4-7.39-43.79-17.62-49.83
				c-6.02-3.56-9.2-4.09-10.79-3.92l11.47-4.47c1.04,1.63,2.32,2.74,3.84,3.07c2.82,0.62,5.96-1.51,8.95-4.69
				c0,0,7.84,7.49,9.85,14.88c2.01,7.37,4.03,9.72,11.07,17.64c0,0-2.35,3.5-1.92,15.94c0.41,12.43-6.8,22.46-7.8,28.69
				c-0.98,6.22-11.41,21.63-15.11,28c-3.69,6.37-5.37,14.43,8.83,27.85c14.2,13.43,31.37,17.94,31.37,17.94
				C337.21,345.54,337.92,348.22,338.66,350.43z"/>
			<path class="st0" d="M317.71,718.26h0.02c0.97,8.01,1.68,13.09,1.76,14.27c-5.84-0.39-11.38-0.68-16.73-0.91
				c-23.96-1-21,0.53-33.62-0.62c-16.24-1.47-42.13-3.81-64.52-20.13c0,0,3.6-9.52,8.6-23.77c9.79-27.93,24.99-74.01,28.99-101.91
				c4.8-33.45,16.91-84.6,18.41-110.11c2.24,25.22,6.42,77.82,4.42,99c-2.68,28.32-20.13,70.34,4.1,101.97
				C293.01,707.18,316.97,717.95,317.71,718.26z"/>
			<path class="st0" d="M220.11,281.86c0,0,7.55-17.64,15.44-35.23c1.54-3.41,3.09-6.81,4.59-10.08c1.53-3.33,3.01-6.52,4.39-9.45
				c3.47-7.25,6.31-12.85,7.75-14.74c5.54-7.31,22.49-14.11,22.49-14.11l1.44-0.56h0.02c1.59-0.17,4.77,0.36,10.79,3.92
				c10.23,6.04,21.48,38.43,17.62,49.83c-2.65,7.83-31.55,44.34-49.91,66.8c-4.04,4.97-7.58,9.23-10.2,12.37
				c0,0-0.02,0.02-0.06,0.08c-2.82,3.35-4.57,5.37-4.77,5.49c-0.71,0.42-6.34,2.85-14.26,2.92c-5.89,0.09-13.06-1.15-20.47-5.43
				c-17.38-10.07-39.27-46.53-39.27-46.53l1.91-2.29l15.2-18.17c0,0,26.43,11.85,26.93,17.15c0,0,5.3-5.8,6.3-2.27
				C216.03,281.57,218.76,279.91,220.11,281.86z"/>
			<path class="st8" d="M259.33,461.18c1.35,2.41,1.67,7.28,1.29,13.88C259.86,466.56,259.33,461.18,259.33,461.18z"/>
			<path class="st9" d="M192.3,229.86l52.23-2.76c-1.38,2.92-2.86,6.12-4.39,9.45l-47.59,2.15c-0.24-1.27-0.53-2.35-0.83-3.03
				c-1.35-3.01,0.17-1.85,1.17-3.35c0.44-0.67,0.15-1.62-0.59-2.47H192.3z"/>
			<path class="st6" d="M244.46,330.69c-0.54,0.71-5.19,7.24-11.64,33.35c-6.89,27.85-24.17,107.9-23.08,119.98
				c1.11,12.08-19.88,124.16-29.25,136.5c-9.36,12.32-7.42,29.28,11.81,42.7c19.21,13.43,20.92,23.89,20.92,23.89
				c-5,14.24-8.6,23.77-8.6,23.77c-8.6-6.27-8.34-8.52-20.68-17.35c-16.52-11.84-22.99-12.11-27.64-18.89
				c-10.17-14.85,2.68-40.08,5.37-45.64c14.97-31.02,35.32-116.26,63.76-289.87v-0.02c7.92-0.08,13.55-2.5,14.26-2.92
				C239.89,336.07,241.65,334.04,244.46,330.69z"/>
			<path class="st10" d="M192.54,238.7l47.59-2.15c-1.5,3.27-3.04,6.68-4.59,10.08l-41.66,2.8
				C193.89,249.44,193.39,243,192.54,238.7z"/>
			<path class="st11" d="M192.54,238.7c0.85,4.3,1.35,10.73,1.35,10.73c-0.89-0.24-8.07-2.5-16.94-3.16
				c-1.29-5.62-0.86-9.66-0.15-12.4c0.14-0.54,0.32-1.18,0.42-1.8c4.86-1.88,8.14-3.97,10.79-4.12c1.7-0.09,3.33,0.82,4.27,1.91
				c0.74,0.85,1.03,1.8,0.59,2.47c-1,1.5-2.51,0.33-1.17,3.35C192.01,236.36,192.3,237.43,192.54,238.7z"/>
			<path class="st5" d="M168.88,262.06c-0.98-0.94-2.66-2.86-3.18-5.57s0.7-6.52,1.51-8.64c0.02-0.02,0.02-0.03,0.03-0.05
				c0.23-0.35,0.53-0.88,0.8-1.56c3.04-0.23,6.06-0.18,8.9,0.03c0,0,1.71,2.01,4.1,3.97c2.39,1.95,3.21,6.1,2.95,8.81
				c-0.24,2.71-1.2,7.64-1.2,7.64l-15.2,18.17l-12.62-3.95c2.69-0.97,4.97-4.04,10.72-5.96c8.55-2.85,4.53-7.04,2.68-9.73
				c-0.44-0.62-0.91-0.85-1.42-0.85L168.88,262.06z"/>
			<path class="st5" d="M176.86,229.3c0.54,0.73,0.54,1.76,0.36,2.77c-0.68,0.26-1.39,0.51-2.13,0.76c-1.73,0.58-3.88,1-6.25,1.32
				c0.64-1.89,1.73-4.01,3.62-5.01C173.86,228.39,175.96,228.11,176.86,229.3z"/>
			<path class="st5" d="M177.22,232.07c-0.11,0.62-0.29,1.26-0.42,1.8c-0.71,2.74-1.14,6.78,0.15,12.4
				c-2.85-0.21-5.86-0.26-8.9-0.03c1.33-3.3-0.54-5.43,0-8.76c0.09-0.56,0.3-1.89,0.79-3.33c2.38-0.32,4.53-0.74,6.25-1.32
				C175.83,232.59,176.54,232.33,177.22,232.07z"/>
			<path class="st5" d="M168.88,262.06l-1.92,2.3c-0.95,0-2.1,0.77-3.5,1.15c-1.06,0.3-2.26,0.36-3.63-0.3
				c-4.19-2.01-3.53-15.09-3.53-15.09s-1.01-2.86,11.58-3.86c0,0-0.27,0.61-0.64,1.54c-0.02,0.02-0.02,0.03-0.03,0.05
				c-0.82,2.12-2.03,5.93-1.51,8.64S167.9,261.12,168.88,262.06z"/>
			<path class="st12" d="M168.38,265.21c1.85,2.69,5.87,6.89-2.68,9.73c-5.75,1.92-8.02,5-10.72,5.96
				c-1.32,0.48-2.74,0.45-4.72-0.47c-6.04-2.82-7.72-5.99-6.04-7.34c1-0.79,3.38-0.64,5.06-1.11c0.03,0,0.06-0.02,0.09-0.02
				c1.88-0.29,4.37-0.86,7.1-2.06c3.12-1.38,5.43-3.07,6.99-4.41c1.39-0.38,2.54-1.15,3.5-1.15
				C167.47,264.36,167.94,264.59,168.38,265.21z"/>
			<path class="st11" d="M168.05,237.48c-0.54,3.33,1.33,5.46,0,8.76c-0.06,0-0.11,0.02-0.17,0.02c-12.59,1-11.58,3.86-11.58,3.86
				s-0.67,13.08,3.53,15.09c1.38,0.67,2.57,0.61,3.63,0.3c-1.56,1.33-3.88,3.03-6.99,4.41c-2.72,1.2-5.22,1.77-7.1,2.06
				c1.09-0.32,1.86-0.92,1.73-2.24c-0.24-2.51-3.45-5.4-5.71-9.23c-0.74-1.27-1.39-2.66-1.79-4.18c-1.56-6.04-1.56-8.9-4.25-10.23
				c-0.54-0.27-1.56-0.3-2.88-0.17c-1.88,0.2-4.37,0.71-6.95,1.3c-4.57,1.03-9.42,2.29-11.64,2.38c-2.44,0.09-2.83,2.01-3.35,3.91
				h-0.02c0,0-3.36-2.23-5.54-3.22c-2.18-1.01-1.68-5.37-2.18-11.58c-0.5-6.21,2.18-5.87,2.18-5.87c0.67,1.35,21.15,2.85,23.49,1.68
				c2.35-1.18,3.36-3.36,1.18-9.23c-2.19-5.87-2.19-8.05-5.37-11.41c-1.18-1.23-2.72-2.5-3.84-3.68l0.02-0.02
				c1.98,0.7,5.74,1.7,10.37,1.01c2.89-0.42,5.19-1.36,6.75-2.16c-0.44,0.41-0.67,0.91-0.54,1.67c0.51,3.01,2.69,16.44,4.03,19.47
				c1.35,3.01-1.68,5.86,5.54,5.36c5.16-0.36,12.35-0.54,18.24-1.36C168.35,235.58,168.14,236.92,168.05,237.48z"/>
			<path class="st5" d="M152.44,223.43c0.42,5.04-1.85,12.08-1.85,12.08c-7.22,0.5-4.19-2.35-5.54-5.36
				C145.05,230.15,152.02,218.4,152.44,223.43z"/>
			<path class="st5" d="M141.51,260.52l3.88-0.02c2.26,3.83,5.46,6.72,5.71,9.23c0.14,1.32-0.64,1.92-1.73,2.24
				c-0.03,0-0.06,0.02-0.09,0.02c-1.68,0.47-4.06,0.32-5.06,1.11c0,0-12.76-9.9-14.52-13.67c-1.76-3.78-0.79-10.35,0-11.38
				l-0.18-0.82c2.57-0.59,5.07-1.11,6.95-1.3c0,0-1.48,5.21-0.98,7.58C135.97,255.75,140.89,259.99,141.51,260.52z"/>
			<path class="st12" d="M126.93,205.48c7.89-1.35,20.48-5.66,19.63-1.24c-0.62,3.33-3.69,3.59-5,4.78
				c-1.56,0.8-3.86,1.74-6.75,2.16c-4.63,0.68-8.39-0.32-10.37-1.01l-0.02,0.02C122.53,208.12,121.94,206.32,126.93,205.48z"/>
			<path class="st5" d="M145.39,260.5l-3.88,0.02c-0.62-0.53-5.54-4.77-6.02-7.01c-0.5-2.38,0.98-7.58,0.98-7.58
				c1.32-0.14,2.33-0.11,2.88,0.17c2.69,1.33,2.69,4.19,4.25,10.23C143.99,257.84,144.64,259.23,145.39,260.5z"/>
			<path class="st12" d="M114.52,253.51h0.02c-0.41,1.5-0.89,2.97-2.53,3.48c-3.69,1.18-12.26-0.5-12.43-5.71
				c-0.17-5.19-5.19-15.61-5.19-17.45c0-1.85,2.51-6.54,7.55-5.19c5.03,1.33,6.37,2.85,7.04,4.19c0,0-2.68-0.33-2.18,5.87
				c0.5,6.21,0,10.57,2.18,11.58C111.16,251.28,114.52,253.51,114.52,253.51z"/>
		</g>
		<g>
		</g>
	</g>
</g>
</svg>
