<?xml version="1.0" encoding="utf-8"?>
<!-- Generator: Adobe Illustrator 26.0.2, SVG Export Plug-In . SVG Version: 6.00 Build 0)  -->
<svg version="1.1" id="Calque_2" xmlns="http://www.w3.org/2000/svg" xmlns:xlink="http://www.w3.org/1999/xlink" x="0px" y="0px"
	 viewBox="0 0 595.28 841.89" style="enable-background:new 0 0 595.28 841.89;" xml:space="preserve">
<style type="text/css">
	.st0{fill:#7C6169;}
	.st1{fill:#60172B;}
	.st2{fill:#B5812A;}
	.st3{fill:#B38F57;}
	.st4{fill:#91764E;}
	.st5{fill:#D29871;}
	.st6{fill:#B999C8;}
	.st7{fill:#AD529A;}
	.st8{fill:#818AC3;}
	.st9{fill:#BC845A;}
	.st10{fill:#AD6930;}
	.st11{fill:#E2AFA2;}
	.st12{fill:#D89282;}
	.st13{fill:#935D2C;}
	.st14{fill:#D3A399;}
	.st15{fill:#755F43;}
	.st16{fill:#482F1C;}
	.st17{fill:#EEB7A6;}
	.st18{fill:#895D2E;}
	.st19{fill:#7F3C12;}
	.st20{fill:#DF86B6;}
	.st21{fill:#AE7BB4;}
	.st22{fill:#5E4930;}
	.st23{fill:#ACB4DC;}
</style>
<g>
	<g id="XMLID_00000004537499992370225140000007511901035994182314_">
		<g>
			<path class="st0" d="M595.28,743.24v98.65h-91.25l-48.2-74.73l-37.7-58.45c4.26-0.72,7.44-1.61,8.88-2.72
				c7.97-6.12,4.76-19.99,4.64-20.46c2.31-0.87,4.1-1.83,5.21-2.88c9.27-8.82,6.37-29.57,6.37-29.57c3.35-4.09,4.53-7.57,4.44-10.47
				h0.01c43.69,29.78,87.37,59.57,131.06,89.35C584.25,735.72,589.77,739.48,595.28,743.24z"/>
			<path class="st1" d="M462.71,545.38c19.45,5.85,33.86,21.09,43.56,34.3c0.17,0.85,0.51,2.1,1.34,3.35l71.13,148.93
				c-43.69-29.78-87.37-59.57-131.06-89.35h-0.01c-0.24-8.12-10.41-11.71-10.41-11.71l-16.74-17.93c0.68-7.73-0.83-13.98-2.02-17.66
				c0-1.38-1.88-2.71-5.38-3.96v-0.01c3.01-6.04,6.99-12.83,12.28-19.85c9.81-13.03,20.51-22.02,28.99-27.96
				C457.26,543.95,460.04,544.57,462.71,545.38z"/>
			<path class="st2" d="M148.27,232.99c-6.09,0.56-10.82,1.17-12.73,5.02c-0.66,1.32-0.71,2.49-0.46,3.75
				c0.47,2.55,2.13,5.45,2.35,10.75c0.35,8.29-3.7,14.84-11.82,27.6c-0.37,0.58-0.73,1.15-1.09,1.71c-0.87,1.37-1.71,2.68-2.5,3.92
				v0.01c-1.05,1.63-2.02,3.15-2.93,4.57c0,0,0,0,0,0.01c-1.49,2.34-2.81,4.41-3.99,6.25c0,0,0,0-0.01,0.01
				c-8.65,13.58-9.41,14.92-10.46,18.34c-1.43,4.65-5.35,18.02-0.42,32.19c2.79,8.03,7.46,13.54,12.92,18.63
				c1.81,1.7,3.71,3.34,5.66,5.02c1.08,0.93,2.13,1.83,3.15,2.71c12.5,10.73,20.65,17.49,26.5,22.28c0.02,0.03,0.03,0.04,0.03,0.04
				c2.92,2.39,5.27,4.3,7.31,5.97v0.01c3.77,3.09,6.48,5.37,9.75,8.41c6.44,5.99,12.3,11.39,17.42,16.5
				c13.15,13.12,21.46,24.36,22.5,38.96c0.05,0.68,0.08,1.37,0.09,2.04c-29.62-6.12-61.08-12.1-76.21-18.04
				c-5.26-2.06-8.55-4.12-9.09-6.18c-2.74-10.36,10.38-28.61-12.34-23.85c0,0,0,0-0.01,0.01c-1.56,0.33-3.3,0.76-5.22,1.32
				c-29.84,8.64-12.17,24.81-15.76,32.39c-3.6,7.57,16,22.96,35.03,24.1c19.03,1.13,56.84,2.14,50.32,11.77
				c-6.52,9.63-40.96,0.91-41.2,10.34c-0.23,9.43-11.69,12.02,13.19,11.85c24.87-0.17,36.13,2.59,41.77,6.28
				c3.24,2.12,12.16-0.91,22.44-2.31c0.94,1.29,1.95,2.66,2.94,4.27c-6.58,4.68-12.55,9.05-17.3,12.95
				c-0.96,0.35-1.44,0.81-1.56,1.32c-8.97,7.64-12.77,13.4-6.52,16.18c10.07,4.48,23.09,2.7,20.85-2.27
				c1.94,3.52,4.48,7.14,7.73,10.28c3.7,3.58,8.31,6.55,14,8.07c8.66,2.31,16.66,0.43,22.8-2.3c4.13,4.39,5.81-0.84,5.95,0.88
				c-7.07,7.69-15.28,10.23-16.93,10.71c-3.18,0.93-13.79,4.05-22.87-1.12c-4.82-2.74-5.22-5.55-8.3-8.09
				c-12.5-10.32-48.57,0.62-64.05,25.45c-0.33,0.54-0.81,1.3-1.36,2.26c-3.19,5.49-8.94,17.23-4.78,27.68
				c0.36,0.91,0.79,1.77,1.26,2.58c1.22,2.12,2.76,3.9,4.4,5.38c5.29,4.81,11.55,6.6,11.24,7.24c-0.24,0.5-4.25-0.14-9.67-1.76
				c-4.35-1.3-9.62-3.24-14.59-5.74c-8.6-4.32-16.31-10.31-16.85-17.56c-0.62-8.22,9.52-9.98,15.77-23.65
				c7-15.33,11.33-41.49-0.57-56.31c-10.19-12.69-29.41-13.49-44.28-14.15c-10.74-0.47-19.21-0.87-20.36-5.63
				c-1.29-5.32,8.35-8.95,14.77-17.67c16.92-22.94-9.07-53.06-18.27-105.58c-8.34-47.69-1.23-104.64,11.83-129.24
				c1.76-3.32,8.54-15.29,11.49-32.69c1.93-11.38,0.96-17.62,1.18-24.47c0.99-30.73,25.44-54.85,35.2-64.47
				c17.86-17.61,35.64-24.84,53.49-32.1c36.12-14.69,68.69-16.04,87.3-10.98c4.42,1.2,10.28,3.37,10.86,3.59
				c4.16,1.54,8.41,3.12,12.36,4.75c0,0,0,0,0.01,0c1.05-0.04,68.74-2.48,94.45,26.57c33.77,38.18,10.3,85.37,52.37,115.44
				c15.34,10.97,27.77,10.2,49.27,29.57c11.22,10.1,23.25,20.94,29,38.01c10.39,30.81-12.52,43.77-3.94,72.64
				c8.3,27.91,32.75,26.03,41.11,56.87c7.11,26.28-4.2,51.39-5.63,51.25c-1-0.1,1.62-12.48-5.07-17.46
				c-3.27-2.43-8.12-2.63-11.26-1.13c-7.34,3.51-9.66,18.24-5.07,36.61c10.41,17.59,17.98,30.97,22.52,40.54
				c1.62,3.42,4.32,9.44,10.33,12.02c4.89,2.09,9.9,1.02,10.13,2.25c0.33,1.78-10.07,4.82-9.76,6c0.25,0.94,7-0.18,16.89,1.13
				c2.72,0.36,3.69,0.64,3.76,1.13c0.22,1.43-7.54,4.08-14.27,5.25c-2.68,0.47-5.48,0.96-8.42,1.06c-3.45,0.14-7.08-0.25-10.91-1.81
				c-2.07-0.84-9.13-3.71-10.88-9.78c-0.55-1.94,0.54-2.17-0.38-4.01c-1.69-3.38-8.45-13.52-16.9-13.52c-3.7,0-6.43-1.46-8.23-3.53
				c-0.01-0.02-0.02-0.04-0.04-0.05c-0.16-0.21-0.29-0.38-0.4-0.49c-1.97-2.59-2.62-5.94-2.03-8.6c0.99-4.43-10.28-8.21-35.68-18.68
				c-3.67-1.5-7.63-3.16-11.9-4.97c-22.86-9.71-28.71-10.15-42.13-19.36c5,0.78,9.15,0.74,12.22-0.59
				c10.51-4.58,15.77-4.59,17.27-12.85c1.5-8.25-15.82-17.39,8.98-10.38s25.18,19.5,26.68,5.93c1.5-13.56-6.38-15.84-7.51-18.64
				c-1.12-2.8-1.83-16.13-1.83-16.13c1.76-1.09,2.44-2.1,2.45-3.03c0.01-1.17-1.11-3.64,0.25-5.94c1.13-1.92,3.77-1.69,5.76-9.28
				c3-11.46-5.63-7.3-11.64-9.55s-4.13-6.38,9.38-7.14c13.52-0.75,7.51-22.9,8.64-26.65s-0.38-14.27-9.39-19.52
				c-9.01-5.26-12.01-17.65-31.16-30.41c-2.29-1.53-4.36-2.66-6.24-3.43c2.25-11.21-1.3-16.86-3.69-38.2
				c-4.22-37.65-36.03-42.06-36.03-42.06s-39.15-2.51-93.77-13.2c-24.89-4.88-34.69-17.59-37.99-29.98c-0.55-2.05-0.92-4.1-1.15-6.1
				c-0.47-4.09-0.35-7.99,0.01-11.38l0.01-0.02c0.28-2.59,0.7-4.88,1.12-6.73c-0.5,0.18-16.46,5.98-29.76,6.73
				c-13.52,0.76-27.03,6.37-31.14,10.5s-5.65,14.64-8.28,22.89c-2.63,8.24-6.38,2.64-9.76,0.76c-3.38-1.88-11.9,0.1-13.73,1.76
				v-0.01c-2.13,1.81-4.55,3.46-7.29,4.82C161.7,231.9,154.32,232.42,148.27,232.99z"/>
			<path class="st3" d="M571.25,590.91c1.75,1.06,2.57,1.64,2.48,1.95c-0.29,0.98-6.64-1.51-14.03,0.03c0,0-8.16-4.23-18.86-5.92
				c-10.7-1.69-6.76-6.19-8.73-10.7c-1.97-4.5-3.66-6.47-8.45-9.01c-4.46-2.36-12.45-15.73-14.92-18.98
				c1.8,2.07,4.53,3.53,8.23,3.53c8.45,0,15.21,10.14,16.9,13.52c0.92,1.84-0.17,2.07,0.38,4.01c1.75,6.07,8.81,8.94,10.88,9.78
				c3.83,1.56,7.46,1.95,10.91,1.81v0.03c0,0,0.01,0,0.01,0.01C556.36,581.18,565.71,587.59,571.25,590.91z"/>
			<path class="st4" d="M540.84,586.97c10.7,1.69,18.86,5.92,18.86,5.92c-5.42,1.12-5.48,3.18-9.57,3.94
				c-5.13,0.95-7.52-1.85-12.67-4.73c0,0-0.01,0-0.02-0.01c-0.66-0.37-1.38-0.75-2.15-1.11c-0.01-0.01-0.02-0.02-0.04-0.03
				c-2.1-1.22-5.07-3.34-5.96-5.95c-1.42-4.16-3.66-6.47-6.19-7.6c-2.53-1.13-10.14-4.22-15.49-9.85
				c-5.34-5.64-5.91-12.67-14.64-23.72c-8.72-11.05-22.38-23.37-22.38-23.37c25.4,10.47,36.67,14.25,35.68,18.68
				c-0.59,2.66,0.06,6.01,2.03,8.6c0.13,0.17,0.26,0.33,0.4,0.49c0.02,0.01,0.03,0.03,0.04,0.05c2.47,3.25,10.46,16.62,14.92,18.98
				c4.79,2.54,6.48,4.51,8.45,9.01C534.08,580.78,530.14,585.28,540.84,586.97z"/>
			<path class="st5" d="M529.29,585c0.89,2.61,3.86,4.73,5.96,5.95c-1.32-0.62-2.81-1.23-4.53-1.78c-11.38-3.64-19.3-0.4-23.11-6.14
				c-0.83-1.25-1.17-2.5-1.34-3.35c-9.7-13.21-24.11-28.45-43.56-34.3c-1.9-3.91-4.2-13.75-20.63-22.57
				c-17.46-9.39-31.69-14.27-33.21-17.64c-1.45-3.23-3.73-6.09-4.76-11.94c4.56,1.29,8.74,2.32,12.45,2.9
				c13.42,9.21,19.27,9.65,42.13,19.36c4.27,1.81,8.23,3.47,11.9,4.97c0,0,13.66,12.32,22.38,23.37
				c8.73,11.05,9.3,18.08,14.64,23.72c5.35,5.63,12.96,8.72,15.49,9.85C525.63,578.53,527.87,580.84,529.29,585z"/>
			<polygon class="st1" points="455.83,767.16 504.03,841.89 490.72,841.89 455.03,767.68 			"/>
			<path class="st1" d="M455.03,767.68l35.69,74.21H0v-15.31l138.39-111.76c0.05,4.91,1.03,13.35,7.14,18.55
				c3.23,2.75,7.59,3.77,16.17,5.7c8.54,1.92,15.14,2.51,16.17,2.59c1.13,0.1,2.31,0.18,3.52,0.26v0.01
				c-1.34,3.2-3.8,7.96-8.27,12.57c-3.07,3.17-6.17,5.32-8.64,6.76c30.31,3.59,64.01,6.06,100.62,6.38
				c43,0.38,82.18-2.29,116.75-6.38c-2.68-2.17-5.93-5.23-9.01-9.39c-4.39-5.91-6.67-11.66-7.9-15.69v-0.01
				c4.51-0.07,8.96-0.3,12.83-0.62c1.05-0.08,7.8-0.67,16.53-2.59c8.77-1.93,13.23-2.95,16.54-5.71c6.24-5.19,7.24-13.64,7.29-18.54
				l37.7,58.45L455.03,767.68z"/>
			<path class="st6" d="M477.82,362.36c9.01,5.25,10.52,15.77,9.39,19.52s4.88,25.9-8.64,26.65c-13.51,0.76-15.39,4.89-9.38,7.14
				s14.64-1.91,11.64,9.55c-1.99,7.59-4.63,7.36-5.76,9.28c-1.36,2.3-0.24,4.77-0.25,5.94c-0.01,0.93-0.69,1.94-2.45,3.03
				c0,0,0,0-0.01,0.01c-3.57,2.22-11.6,4.8-27.53,7.66c9.09-6.69,28.22-18.29-1.92-30.81c-24.37-10.12-42.04-8.9-49.5-2.89
				c6.4-8.01,13.61-17.27,20.39-28.55c1.21-0.04,2.48-0.08,3.81-0.12c31.31-0.88,50.08-0.13,48.2-12.9
				c-1.78-12.08-17.01-38.08-32-28.18c3.63-8.53,5.65-14.36,6.61-19.17c1.88,0.77,3.95,1.9,6.24,3.43
				C465.81,344.71,468.81,357.1,477.82,362.36z"/>
			<path class="st7" d="M474.2,459.6c1.13,2.8,9.01,5.08,7.51,18.64c-1.5,13.57-1.88,1.08-26.68-5.93s-7.48,2.13-8.98,10.38
				c-1.5,8.26-6.76,8.27-17.27,12.85c-3.07,1.33-7.22,1.37-12.22,0.59c-4.6-3.15-10.09-7.34-17.47-13.29
				c-0.04-0.04-0.09-0.07-0.13-0.11c-0.02-0.01-0.03-0.03-0.05-0.04c-2.86-2.31-6-4.88-9.48-7.75c-0.12-0.1-0.23-0.19-0.34-0.28
				c9.18-2.15,12.48-5.14,15.26-5.14c1.41,0,2.68,0.77,4.52,2.79c6.02,6.64,10.52,12.64,14.65,9.64c4.13-3,5.63-6.13,6.38-9.64
				c0.76-3.5-7.5-7.63,9.01-8c16.26-0.37,32.93-20.21,33.45-20.83c0.01-0.01,0.01-0.01,0.01-0.01S473.08,456.8,474.2,459.6z"/>
			<path class="st8" d="M444.83,451.14c15.93-2.86,23.96-5.44,27.53-7.66c-0.52,0.62-17.19,20.46-33.45,20.83
				c-16.51,0.37-8.25,4.5-9.01,8c-0.75,3.51-2.25,6.64-6.38,9.64c-4.13,3-8.63-3-14.65-9.64c-1.84-2.02-3.11-2.79-4.52-2.79
				l0.03-0.61c15.5,0.79,33.98-10.54,36.81-14.57C441.81,453.46,443.15,452.38,444.83,451.14z"/>
			<path class="st2" d="M465.81,375.87c1.88,12.77-16.89,12.02-48.2,12.9c-1.33,0.04-2.6,0.08-3.81,0.12
				c2.86-4.76,5.64-9.87,8.25-15.41c0.5-1.06,0.99-2.1,1.46-3.11c4.73,0.62,9.78-5.38,9.78-5.38s-3.93-0.08-6.46-1.73
				c2.8-6.06,5.1-11.17,6.98-15.57C448.8,337.79,464.03,363.79,465.81,375.87z"/>
			<path class="st9" d="M442.08,522.81c16.43,8.82,18.73,18.66,20.63,22.57c-2.67-0.81-5.45-1.43-8.32-1.85
				c0.21-0.15,0.43-0.3,0.64-0.45c-3.65-4.03-7.01-6.69-9.2-8.26c-14.43-10.37-30.51-11.65-44.39-21.02
				c-2.77-1.87-4.42-3.42-5.58-5.68c-1.25-2.44-1.41-5.04-1.58-8.2c-0.09-1.7-0.18-3.56-0.44-5.64c-0.24-1.93-0.63-3.35-1.19-4.5
				c4.03,1.25,7.86,2.43,11.46,3.45c1.03,5.85,3.31,8.71,4.76,11.94C410.39,508.54,424.62,513.42,442.08,522.81z"/>
			<path class="st10" d="M455.03,543.08c-0.21,0.15-0.43,0.3-0.64,0.45c-0.2-0.03-0.41-0.06-0.62-0.09
				c-5.25-0.7-9.04-0.72-11.69-0.36c-3.09-1.71-4.28-4.93-4.51-5.44c-2.1-4.81-23.11-8.94-40.73-18.21
				c-4.49-2.36-8.03-4.67-8.63-8.26c-0.72-4.29,3.4-6.65,3.17-11.09l2.9-0.16c0.17,3.16,0.33,5.76,1.58,8.2
				c1.16,2.26,2.81,3.81,5.58,5.68c13.88,9.37,29.96,10.65,44.39,21.02C448.02,536.39,451.38,539.05,455.03,543.08z"/>
			<path class="st11" d="M453.77,543.44c0.21,0.03,0.42,0.06,0.62,0.09c-8.48,5.94-19.18,14.93-28.99,27.96
				c-5.29,7.02-9.27,13.81-12.28,19.85c-5.31-1.91-14.38-3.65-26.29-5.14c0.07-1.44,0.06-3.75-0.5-6.48
				c-0.74-3.63-1.67-8.21-5.47-10.44c-2.45-1.43-5-1.25-6.16-1.17c-0.5,0.03-4.33,0.36-7.54,3.22c-5.18,4.62-4.33,11.85-4.24,12.54
				c-22.26-1.7-49.67-2.7-79.31-2.7c-2.78,0-5.55,0.01-8.29,0.03c-0.9-2.96-0.99-4.57,0.29-7.46c2.25-5.07,23.76,3.1,3.85-12.39
				c-19.9-15.48-25.53-13.45-21.87-18.27S273.17,527,273.17,527s2.05-3.64,3.61-9.01c3.46-11.93,4.5-32.43-24.82-40.55
				c-9.51-2.64-21.02-5.25-33.18-7.82c-3.04-0.65-6.13-1.29-9.24-1.93c-0.01-0.67-0.04-1.36-0.09-2.04
				c-1.04-14.6-9.35-25.84-22.5-38.96c-0.07-0.07-1.67-6.07-1.67-6.07c14.62,12.28,33.51,24.67,56.96,33.64
				c9.13,3.5,17.34,5.3,26.33,5.34c7.19,0.03,13.94-1.1,20.75-3.32c-3.88,6.45-1.37,18.64-0.59,28.09
				c0.87,10.51,18.28,28.91,29.54,45.65c11.27,16.74,1.5,29.81,1.5,29.81s13.37-3.01,12.77-17.58c1.74-2.18,6.62-8.43,11.24-15.51
				c3.19,2.73,7.71,5.08,13.09,7.08c0.4,0.22,0.68,0.27,0.84,0.31c0.02,0.01,0.03,0.01,0.05,0.02c7.68,2.76,17.01,4.86,26.71,6.37
				c0,0,0,0.01,0.01,0.01c14.08,2.21,28.94,3.21,40.67,3.3c0.01,0,0.01,0,0.01,0c7.05,0.05,12.98-0.22,16.92-0.75
				C444.73,542.72,448.52,542.74,453.77,543.44z"/>
			<path class="st12" d="M392.77,652.03c4.16-1.61,11.28-5.09,16.86-12.41c1.72-2.25,3-4.47,3.96-6.5
				c2.22-3.45,6.07-10.47,6.93-20.15l16.74,17.93c0,0,10.17,3.59,10.41,11.71c0.09,2.9-1.09,6.38-4.44,10.47
				c-12.74,15.56-45.19,16.08-49.82,18.68c-4.64,2.59-52.14-5.71-59.68-8.3c-2.15-0.74-5.39-2.16-8.33-3.84
				c-7.34-4.18-12.77-9.95,5.44-10.69C352.8,648.04,379.5,652.23,392.77,652.03z"/>
			<path class="st7" d="M390.28,421.37c1.02-1.28,2.07-2.59,3.13-3.93c7.46-6.01,25.13-7.23,49.5,2.89
				c30.14,12.52,11.01,24.12,1.92,30.81c-1.68,1.24-3.02,2.32-3.64,3.2c-2.83,4.03-21.31,15.36-36.81,14.57
				c-6.15-0.31-11.84-2.54-15.9-7.9c-3.6-4.76-8.5-7.69-14.24-9.25c-0.09-2.76,0.44-5.5,1.48-8.29c1.11-3.01,2.81-6.08,4.95-9.31
				C383.3,430.19,386.6,425.98,390.28,421.37z"/>
			<path class="st11" d="M431.65,685.53c-17.06,6.39-62.46,7.89-70.11,6.97c-4.62-0.55-15.77-5.78-25.99-11.35h-0.01
				c-1.44-1.27-3.99-3.17-7.69-4.35c-5.73-3.38-10.36-6.44-12.08-8.16c-1.78-1.77-3.18-7.22-0.65-9.48c1.9-1.7,6.01-1.41,10.28,0.46
				c2.94,1.68,6.18,3.1,8.33,3.84c7.54,2.59,55.04,10.89,59.68,8.3c4.63-2.6,37.08-3.12,49.82-18.68c0,0,2.9,20.75-6.37,29.57
				C435.75,683.7,433.96,684.66,431.65,685.53z"/>
			<path class="st4" d="M436.73,290.32c2.39,21.34,5.94,26.99,3.69,38.2c-13.83-5.71-17.72,7.31-28.32,16.51
				c-0.45,0.39-0.86,0.78-1.23,1.17c0.46-2.81,1.14-5.75,2.11-8.84c9.01-28.54,9.76-16.15,12.02-33.79
				c2.25-17.65-20.25-38.6-20.85-41.63c-1.08-5.18-2.28-9.77-3.45-13.68C400.7,248.26,432.51,252.67,436.73,290.32z"/>
			<path class="st13" d="M437.57,537.64c0.23,0.51,1.42,3.73,4.51,5.44c-3.94,0.53-9.87,0.8-16.92,0.75c0,0,0,0-0.01,0
				c-0.49-0.15-17.05-5.09-42.2-18.77c-25.53-13.89-6.38-13.51-8.31-19.89c-1.32-4.38-4.87-14.6-8.9-23.12
				c0.83,0.2,1.7,0.41,2.6,0.64c2.53,0.64,5.02,1.32,7.48,2.02c1.63,1.74,3.27,3.01,4.88,3.94c2.23,1.29,10.37,5.36,10.68,11.43
				c0.23,4.44-3.89,6.8-3.17,11.09c0.6,3.59,4.14,5.9,8.63,8.26C414.46,528.7,435.47,532.83,437.57,537.64z"/>
			<path class="st6" d="M412.1,345.03c10.6-9.2,14.49-22.22,28.32-16.51c-0.96,4.81-2.98,10.64-6.61,19.17
				c-0.85,0.55-1.7,1.22-2.54,2.02c-8.35,7.89-7.28,11.71-4.44,13.55c-1.04,2.24-2.14,4.6-3.32,7.11c-0.95-0.12-1.87-0.5-2.75-1.25
				c-2.63-2.26-7.83-5.68-10.84-9.85c-0.01-4.08,0.17-8.4,0.95-13.07C411.24,345.81,411.65,345.42,412.1,345.03z"/>
			<path class="st4" d="M431.27,349.71c0.84-0.8,1.69-1.47,2.54-2.02c-1.88,4.4-4.18,9.51-6.98,15.57
				C423.99,361.42,422.92,357.6,431.27,349.71z"/>
			<path class="st14" d="M431.65,685.53c0.12,0.47,3.33,14.34-4.64,20.46c-1.44,1.11-4.62,2-8.88,2.72
				c-5.64,0.95-13.19,1.59-21.15,2.02c-11.63,0.62-24.14,0.77-32.88,0.72c-6.13-0.03-10.41-0.15-11.25-0.27
				c-3.47-0.52-20.85-10.38-28.39-15.05c-2.98-1.84-15.85-13.1-12.88-17.99c1.95-3.23,10.5-3.18,16.27-1.34
				c2.41,1.42,5.02,2.9,7.69,4.35h0.01c10.22,5.57,21.37,10.8,25.99,11.35C369.19,693.42,414.59,691.92,431.65,685.53z"/>
			<path class="st6" d="M426.83,363.26c2.53,1.65,6.46,1.73,6.46,1.73s-5.05,6-9.78,5.38C424.69,367.86,425.79,365.5,426.83,363.26z
				"/>
			<path class="st15" d="M404.15,261.94c0.6,3.03,23.1,23.98,20.85,41.63c-2.26,17.64-3.01,5.25-12.02,33.79
				c-0.97,3.09-1.65,6.03-2.11,8.84c-4.64,4.77-3.72,9.23-0.95,13.07c0.01,11.13,1.44,20.41-3.85,29.93
				c-6.97,0.36-11.39,0.87-14.6,1.81c10.72-10.03,8.71-16.18,8.43-26.42c-0.33-11.81,4.83-25.36,7.72-34.37
				c2.9-9.01-0.14-27.62-0.14-27.62C408.13,286.81,406.45,273.01,404.15,261.94z"/>
			<path class="st4" d="M423.51,370.37c-0.47,1.01-0.96,2.05-1.46,3.11c-2.61,5.54-5.39,10.65-8.25,15.41
				c-2.88,0.09-5.44,0.19-7.73,0.31c5.29-9.52,3.86-18.8,3.85-29.93c3.01,4.17,8.21,7.59,10.84,9.85
				C421.64,369.87,422.56,370.25,423.51,370.37z"/>
			<path class="st16" d="M418.5,595.31c1.19,3.68,2.7,9.93,2.02,17.66c-0.86,9.68-4.71,16.7-6.93,20.15
				c-0.96,2.03-2.24,4.25-3.96,6.5c-5.58,7.32-12.7,10.8-16.86,12.41c-13.27,0.2-39.97-3.99-61.93-3.1
				c-18.21,0.74-12.78,6.51-5.44,10.69c-4.27-1.87-8.38-2.16-10.28-0.46c-2.53,2.26-1.13,7.71,0.65,9.48
				c1.72,1.72,6.35,4.78,12.08,8.16c-5.77-1.84-14.32-1.89-16.27,1.34c-2.97,4.89,9.9,16.15,12.88,17.99
				c7.54,4.67,24.92,14.53,28.39,15.05c0.84,0.12,5.12,0.24,11.25,0.27v0.01c-0.46,0.4-1.99,1.82-2.33,4.19
				c-0.51,3.52,2.09,5.96,2.33,6.18c-1.92-0.02-3.96-0.11-6.07-0.28c-2.5-0.2-9.29-0.85-14.42,1.68c-2.18,1.07-3.41,2.4-3.83,2.88
				c-0.33,0.38-2.93,3.4-2.56,5.29c0.76,3.9,14.47,5,27.72,4.77v0.01c1.23,4.03,3.51,9.78,7.9,15.69c3.08,4.16,6.33,7.22,9.01,9.39
				c-34.57,4.09-73.75,6.76-116.75,6.38c-36.61-0.32-70.31-2.79-100.62-6.38c2.47-1.44,5.57-3.59,8.64-6.76
				c4.47-4.61,6.93-9.37,8.27-12.57v-0.01c14.85,0.96,35.2,0.43,36.12-4.4c0.37-1.9-2.17-4.92-2.5-5.3
				c-0.41-0.48-1.61-1.8-3.74-2.88c-5.01-2.53-11.65-1.88-14.1-1.68c-4.16,0.34-8.05,0.34-11.28,0.19c1.95-1.59,2.84-4.1,2.25-6.39
				c-0.66-2.54-2.84-3.69-3.22-3.89c9.25,0.05,16.22-0.11,17.31-0.28c3.4-0.52,20.4-10.38,27.76-15.04c2.92-1.85,15.5-13.1,12.6-18
				c-1.91-3.22-10.25-3.18-15.9-1.34c5.61-3.38,10.12-6.44,11.8-8.15c1.74-1.78,3.11-7.23,0.64-9.49c-1.86-1.7-5.87-1.41-10.05,0.46
				c7.17-4.19,12.47-9.94-5.32-10.68c-20.8-0.87-45.93,3.03-59.28,3.11v-0.01c-2.33-1.55-6.32-4.65-9.57-9.89
				c-3.3-5.34-4.28-10.38-4.62-13.18c5.42,1.62,9.43,2.26,9.67,1.76c0.31-0.64-5.95-2.43-11.24-7.24c-0.65-1.79-1.36-4.07-1.92-6.77
				c-0.62-2.95-1.07-6.39-1.08-10.24c-0.02-7.51,1.64-13.51,3-17.28c0,7.81,60.39,14.14,134.89,14.14
				C358.1,609.45,418.5,603.12,418.5,595.31z"/>
			<path class="st17" d="M418.13,708.71c-0.05,4.9-1.05,13.35-7.29,18.54c-3.31,2.76-7.77,3.78-16.54,5.71
				c-8.73,1.92-15.48,2.51-16.53,2.59c-3.87,0.32-8.32,0.55-12.83,0.62c-13.25,0.23-26.96-0.87-27.72-4.77
				c-0.37-1.89,2.23-4.91,2.56-5.29c0.42-0.48,1.65-1.81,3.83-2.88c5.13-2.53,11.92-1.88,14.42-1.68c2.11,0.17,4.15,0.26,6.07,0.28
				c5.93,0.08,10.76-0.42,13.13-0.8c5-0.8,11.95-3.13,19.75-10.21v-0.09C404.94,710.3,412.49,709.66,418.13,708.71z"/>
			<path class="st18" d="M382.95,525.06c25.15,13.68,41.71,18.62,42.2,18.77c-11.73-0.09-26.59-1.09-40.67-3.3
				c-0.01,0-0.01-0.01-0.01-0.01c-0.42-0.36-25.46-21.9-30.94-35.44c0.04-1.48-0.27-2.73-0.99-3.67c-1.41-12.95,3.1-8.45,3.1-16.89
				c0-1.35-0.31-2.91-0.82-4.58c2.94,0.35,6.48,1.04,10.92,2.11c4.03,8.52,7.58,18.74,8.9,23.12
				C376.57,511.55,357.42,511.17,382.95,525.06z"/>
			<path class="st19" d="M190,585.13c17.41-1.76,39.32-3.03,63.75-3.61c-3.02,1.84-6.75,3.39-10.73,6.17
				c-9.08,6.32-13.27,12.46-7.24,10.52c6.04-1.95,16.74-3.82,18.99-1.19c2.26,2.62,5.42,2.44,11.16,0
				c3.62-1.54,7.68-3.39,10.18-4.55c0.57,1.37,0.86,2.43,0.63,2.84c-0.85,1.52,4.94,7.46,1.76-3.96c-1.36-4.91-2.5-7.92-3.18-10.15
				c2.74-0.02,5.51-0.03,8.29-0.03c29.64,0,57.05,1,79.31,2.7c8.84,0.68,16.87,1.46,23.91,2.33c11.91,1.49,20.98,3.23,26.29,5.14
				v0.01c3.5,1.25,5.38,2.58,5.38,3.96c0,7.81-60.4,14.14-134.89,14.14c-74.5,0-134.89-6.33-134.89-14.14
				c0-0.31,0.09-0.61,0.27-0.91c1.49-2.47,9-4.76,21-6.71C175.7,586.75,182.42,585.89,190,585.13z"/>
			<path class="st6" d="M410.87,346.2c-0.78,4.67-0.96,8.99-0.95,13.07C407.15,355.43,406.23,350.97,410.87,346.2z"/>
			<path class="st13" d="M358.02,412.67l-0.22-0.23c14.14-13.26,27.65-30.37,37.22-53.21c3.71-8.83,11.33-29.27,12.46-56.63
				c0,0,3.04,18.61,0.14,27.62c-2.89,9.01-8.05,22.56-7.72,34.37c0.28,10.24,2.29,16.39-8.43,26.42
				c-5.71,1.65-7.57,4.63-13.13,10.39c-0.67,0.69-1.25,1.38-1.74,2.06c-11.97,11.18-18.85,23.02-15.8,31.88
				c0.13,1.42,0.27,2.8,0.42,4.15c-3.38-0.05-7.23-0.36-11.57-0.94C349.57,427.05,357.77,413.1,358.02,412.67z"/>
			<path class="st17" d="M404.15,261.94c2.3,11.07,3.98,24.87,3.33,40.66c-1.13,27.36-8.75,47.8-12.46,56.63
				c-9.57,22.84-23.08,39.95-37.22,53.21c-1.78,1.68-3.58,3.29-5.38,4.84c-10.49,9.07-21.09,16.18-30.5,22.08c0,0-0.01,0-0.01,0.01
				c-15.26,3.54-27.06,11.22-31.04,14.97c-0.61,0.57-1.12,1.22-1.55,1.94c-6.81,2.22-13.56,3.35-20.75,3.32
				c-8.99-0.04-17.2-1.84-26.33-5.34c-23.45-8.97-42.34-21.36-56.96-33.64c-12.35-10.37-21.67-20.66-28.11-28.73
				c-7.55-9.45-11.18-15.88-11.18-15.88c-22.11-39.22-22.43-77.05-21.47-94.19c0.36-0.56,0.72-1.13,1.09-1.71
				c8.12-12.76,12.17-19.31,11.82-27.6c14.62,4.29,18.77,4.51,18.77,4.51c5.03,0.26,10.82,0.56,15.07-3.03
				c4.83-4.08,3.24-9.46,6.33-10.49c5.05-1.67,9.31,12.71,22.15,16.15c6.62,1.76,15.15,0.52,19.52-4.51
				c1.08-1.25,1.94-2.76,3.37-8.06c2.7-9.98,3.06-17.22,3.39-19.34c0.47-3.05,2.51-6.46,7.76-9.98l35.15-12.68
				c3.3,12.39,13.1,25.1,37.99,29.98c54.62,10.69,93.77,13.2,93.77,13.2C401.87,252.17,403.07,256.76,404.15,261.94z"/>
			<path class="st6" d="M406.07,389.2c2.29-0.12,4.85-0.22,7.73-0.31c-6.78,11.28-13.99,20.54-20.39,28.55
				c-1.43,1.15-2.48,2.48-3.13,3.93c-3.68,4.61-6.98,8.82-9.61,12.79l-0.2-0.13c1.09-1.6,1.35-3.45,0.87-5.41
				c-0.55-2.26-1.91-4.64-3.3-7.13c2.79-5.93,7.72-12.55,16.17-19.19C399.99,397.76,403.7,393.45,406.07,389.2z"/>
			<path class="st8" d="M404.38,468.91l-0.03,0.61c-2.78,0-6.08,2.99-15.26,5.14c-6.57-5.48-10.69-10.39-12.89-15.06
				c-1.26-2.67-1.88-5.27-1.96-7.84c5.74,1.56,10.64,4.49,14.24,9.25C392.54,466.37,398.23,468.6,404.38,468.91z"/>
			<path class="st8" d="M416.56,496.13c-3.71-0.58-7.89-1.61-12.45-2.9c-0.05-0.27-0.1-0.55-0.14-0.83
				c-0.83-5.62-4.08-8.84-4.88-9.56C406.47,488.79,411.96,492.98,416.56,496.13z"/>
			<path class="st8" d="M403.97,492.4c0.04,0.28,0.09,0.56,0.14,0.83c-3.6-1.02-7.43-2.2-11.46-3.45
				c-2.01-4.17-6.08-4.53-12.22-11.41c6.92,3.37,13.96,6.11,18.48,4.32c0.02,0.01,0.03,0.03,0.05,0.04
				c0.03,0.02,0.07,0.06,0.13,0.11C399.89,483.56,403.14,486.78,403.97,492.4z"/>
			<path class="st1" d="M396.98,710.73v0.09c-7.8,7.08-14.75,9.41-19.75,10.21c-2.37,0.38-7.2,0.88-13.13,0.8
				c-0.24-0.22-2.84-2.66-2.33-6.18c0.34-2.37,1.87-3.79,2.33-4.19v-0.01C372.84,711.5,385.35,711.35,396.98,710.73z"/>
			<path class="st7" d="M398.91,482.69c-4.52,1.79-11.56-0.95-18.48-4.32c-0.03-0.04-0.07-0.09-0.11-0.13
				c-0.54-0.61-1.05-1.26-1.52-1.92c1.61-0.14,3.48-0.39,5.68-0.75c1.68-0.27,3.22-0.58,4.61-0.91c0.11,0.09,0.22,0.18,0.34,0.28
				C392.91,477.81,396.05,480.38,398.91,482.69z"/>
			<path class="st6" d="M406.07,389.2c-2.37,4.25-6.08,8.56-11.86,13.1c-8.45,6.64-13.38,13.26-16.17,19.19
				c-3.03-5.43-6.2-11.42-1.44-18.03c2.74-2.56,5.76-5.09,8.98-7.54c2.3-1.75,4.25-3.38,5.89-4.91
				C394.68,390.07,399.1,389.56,406.07,389.2z"/>
			<path class="st10" d="M394.28,499.92l-2.9,0.16c-0.31-6.07-8.45-10.14-10.68-11.43c-1.61-0.93-3.25-2.2-4.88-3.94
				c5.87,1.65,11.51,3.42,16.83,5.07c0.56,1.15,0.95,2.57,1.19,4.5C394.1,496.36,394.19,498.22,394.28,499.92z"/>
			<path class="st4" d="M393.41,417.44c-1.06,1.34-2.11,2.65-3.13,3.93C390.93,419.92,391.98,418.59,393.41,417.44z"/>
			<path class="st13" d="M378.34,401.4c5.56-5.76,7.42-8.74,13.13-10.39c-1.64,1.53-3.59,3.16-5.89,4.91
				c-3.22,2.45-6.24,4.98-8.98,7.54C377.09,402.78,377.67,402.09,378.34,401.4z"/>
			<path class="st20" d="M380.43,478.37c6.14,6.88,10.21,7.24,12.22,11.41c-5.32-1.65-10.96-3.42-16.83-5.07
				c-2.02-2.16-4.01-5.05-5.86-8.92c1.85,0.53,3.83,0.8,6.71,0.68C377.91,477.11,379.17,477.75,380.43,478.37z"/>
			<path class="st12" d="M386.33,579.72c0.56,2.73,0.57,5.04,0.5,6.48c-7.04-0.87-15.07-1.65-23.91-2.33
				c-0.09-0.69-0.94-7.92,4.24-12.54c3.21-2.86,7.04-3.19,7.54-3.22c1.16-0.08,3.71-0.26,6.16,1.17
				C384.66,571.51,385.59,576.09,386.33,579.72z"/>
			<path class="st8" d="M389.09,474.66c-1.39,0.33-2.93,0.64-4.61,0.91c-2.2,0.36-4.07,0.61-5.68,0.75
				c-6.39-8.94-6.74-21.81-7.58-22.97c2.79,3.74,4.98,6.25,4.98,6.25C378.4,464.27,382.52,469.18,389.09,474.66z"/>
			<path class="st6" d="M381.34,428.62c0.48,1.96,0.22,3.81-0.87,5.41c-1.08,1.58-2.97,2.91-5.77,3.86
				c-0.26-3.95,0.2-9.74,3.34-16.4C379.43,423.98,380.79,426.36,381.34,428.62z"/>
			<path class="st21" d="M380.47,434.03l0.2,0.13c-2.14,3.23-3.84,6.3-4.95,9.31h-0.01c0,0-0.79-2.08-1.01-5.58
				C377.5,436.94,379.39,435.61,380.47,434.03z"/>
			<path class="st20" d="M380.32,478.24c0.04,0.04,0.08,0.09,0.11,0.13c-1.26-0.62-2.52-1.26-3.76-1.9
				c0.66-0.03,1.37-0.07,2.13-0.15C379.27,476.98,379.78,477.63,380.32,478.24z"/>
			<path class="st8" d="M378.8,476.32c-0.76,0.08-1.47,0.12-2.13,0.15c-1.89-0.96-3.72-1.92-5.45-2.78
				c-0.87-0.43-1.77-0.83-2.72-1.19c-2.25-5.57-4.26-12.8-5.82-22.21c2.3,0.02,4.53,0.17,6.67,0.47c0.64,0.91,1.27,1.78,1.87,2.58
				v0.01C372.06,454.51,372.41,467.38,378.8,476.32z"/>
			<path class="st20" d="M376.67,476.47c-2.88,0.12-4.86-0.15-6.71-0.68c-0.5-1.02-0.99-2.12-1.46-3.29
				c0.95,0.36,1.85,0.76,2.72,1.19C372.95,474.55,374.78,475.51,376.67,476.47z"/>
			<path class="st6" d="M375.71,443.47h0.01c-1.04,2.79-1.57,5.53-1.48,8.29c-1.57-0.44-3.2-0.76-4.89-1
				c-2.38-3.36-4.92-7.34-6.81-11.25c5.16,0,9.18-0.59,12.16-1.62C374.92,441.39,375.71,443.47,375.71,443.47z"/>
			<path class="st15" d="M378.04,421.49c-3.14,6.66-3.6,12.45-3.34,16.4c-2.98,1.03-7,1.62-12.16,1.62
				c-0.68-1.41-1.27-2.81-1.74-4.17c-3.05-8.86,3.83-20.7,15.8-31.88C371.84,410.07,375.01,416.06,378.04,421.49z"/>
			<path class="st7" d="M374.24,451.76c0.08,2.57,0.7,5.17,1.96,7.84c0,0-2.19-2.51-4.98-6.25v-0.01c-0.6-0.8-1.23-1.67-1.87-2.58
				C371.04,451,372.67,451.32,374.24,451.76z"/>
			<path class="st20" d="M375.82,484.71c-2.46-0.7-4.95-1.38-7.48-2.02c-0.9-0.23-1.77-0.44-2.6-0.64c-1.84-3.9-3.78-7.45-5.66-9.92
				c-0.02-0.02-0.03-0.04-0.04-0.06c4.7,1.54,7.15,2.93,9.92,3.72C371.81,479.66,373.8,482.55,375.82,484.71z"/>
			<path class="st22" d="M353.53,505.08c5.48,13.54,30.52,35.08,30.94,35.44c-9.7-1.51-19.03-3.61-26.71-6.37
				c-0.02-0.01-0.03-0.01-0.05-0.02c-0.28-0.1-0.56-0.2-0.84-0.31c-1.12-0.65-3.18-2.76-6.02-10.45c-0.66-1.78-1.26-3.61-1.8-5.45
				C351.64,513.09,353.47,508.48,353.53,505.08z"/>
			<path class="st20" d="M368.5,472.5c0.47,1.17,0.96,2.27,1.46,3.29c-2.77-0.79-5.22-2.18-9.92-3.72
				c-0.49-0.64-0.94-1.29-1.34-1.94C362.48,470.64,365.67,471.41,368.5,472.5z"/>
			<path class="st6" d="M362.54,439.51c1.89,3.91,4.43,7.89,6.81,11.25c-2.14-0.3-4.37-0.45-6.67-0.47
				c-0.54-3.32-1.03-6.91-1.46-10.8C361.67,439.5,362.11,439.51,362.54,439.51z"/>
			<path class="st8" d="M362.68,450.29c1.56,9.41,3.57,16.64,5.82,22.21c-2.83-1.09-6.02-1.86-9.8-2.37
				c-3.58-5.6-4.79-11.69-6.53-19.19C355.78,450.49,359.3,450.25,362.68,450.29z"/>
			<path class="st6" d="M362.68,450.29c-3.38-0.04-6.9,0.2-10.51,0.65c-0.55-2.34-1.14-4.82-1.88-7.47
				c-0.44-1.55-0.63-3.21-0.64-4.92c4.34,0.58,8.19,0.89,11.57,0.94C361.65,443.38,362.14,446.97,362.68,450.29z"/>
			<path class="st10" d="M362.54,439.51c-0.43,0-0.87-0.01-1.32-0.02c-0.15-1.35-0.29-2.73-0.42-4.15
				C361.27,436.7,361.86,438.1,362.54,439.51z"/>
			<path class="st20" d="M360.08,472.13c1.88,2.47,3.82,6.02,5.66,9.92c-4.44-1.07-7.98-1.76-10.92-2.11
				c-1.03-3.33-2.89-7.08-4.79-10.44c4.27,0.86,7.47,1.74,10.01,2.57C360.05,472.09,360.06,472.11,360.08,472.13z"/>
			<path class="st20" d="M358.7,470.13c0.4,0.65,0.85,1.3,1.34,1.94c-2.54-0.83-5.74-1.71-10.01-2.57
				c-0.01-0.02-0.03-0.04-0.04-0.06C353.22,469.55,356.1,469.78,358.7,470.13z"/>
			<path class="st18" d="M357.8,412.44l0.22,0.23c-0.25,0.43-8.45,14.38-8.37,25.88c-0.55-0.08-1.12-0.16-1.69-0.25
				c2.61-12.24,4.69-20.75,4.69-20.75l-0.23-0.27C354.22,415.73,356.02,414.12,357.8,412.44z"/>
			<path class="st15" d="M350.85,523.37c2.84,7.69,4.9,9.8,6.02,10.45c-5.38-2-9.9-4.35-13.09-7.08c1.88-2.87,3.71-5.89,5.27-8.82
				C349.59,519.76,350.19,521.59,350.85,523.37z"/>
			<path class="st22" d="M354.82,479.94c0.51,1.67,0.82,3.23,0.82,4.58c0,8.44-4.51,3.94-3.1,16.89c-1.77-2.31-4.12-4.65-6.64-7.02
				c0.04-0.5,0.1-0.97,0.17-1.43c0.53-3.45-0.45-8.24-1.63-12.34C347.18,479.69,350.27,479.41,354.82,479.94z"/>
			<path class="st8" d="M352.17,450.94c1.74,7.5,2.95,13.59,6.53,19.19c-2.6-0.35-5.48-0.58-8.71-0.69
				c-3.07-5.43-6.26-9.84-6.26-9.84c0.47-2.56,0.95-5.09,1.43-7.55C347.52,451.6,349.86,451.23,352.17,450.94z"/>
			<path class="st18" d="M352.54,501.41c0.72,0.94,1.03,2.19,0.99,3.67C353.01,503.77,352.66,502.54,352.54,501.41z"/>
			<path class="st11" d="M352.42,417.28l0.23,0.27c0,0-2.08,8.51-4.69,20.75c-0.26-0.03-0.52-0.07-0.78-0.11
				c-8.93-1.36-17.54-0.62-25.26,1.17C331.33,433.46,341.93,426.35,352.42,417.28z"/>
			<path class="st22" d="M352.54,501.41c0.12,1.13,0.47,2.36,0.99,3.67c-0.06,3.4-1.89,8.01-4.48,12.84
				c-2.51-8.54-3.73-17.41-3.15-23.53C348.42,496.76,350.77,499.1,352.54,501.41z"/>
			<path class="st20" d="M354.82,479.94c-4.55-0.53-7.64-0.25-10.38,0.68c-1.33-4.59-2.91-8.31-2.91-8.31
				c0.16-0.99,0.32-1.98,0.49-2.97c2.75-0.03,5.28,0,7.62,0.08c0.01,0,0.01,0,0.02,0c0.13,0.03,0.25,0.05,0.37,0.08
				C351.93,472.86,353.79,476.61,354.82,479.94z"/>
			<path class="st6" d="M350.29,443.47c0.74,2.65,1.33,5.13,1.88,7.47c-2.31,0.29-4.65,0.66-7.01,1.11
				c0.95-4.89,1.91-9.54,2.8-13.75c0.57,0.09,1.14,0.17,1.69,0.25C349.66,440.26,349.85,441.92,350.29,443.47z"/>
			<path class="st22" d="M349.99,469.44c0.01,0.02,0.03,0.04,0.04,0.06c-0.12-0.03-0.24-0.05-0.37-0.08
				C349.77,469.43,349.88,469.43,349.99,469.44z"/>
			<path class="st8" d="M343.73,459.6c0,0,3.19,4.41,6.26,9.84c-0.11-0.01-0.22-0.01-0.33-0.02c-0.01,0-0.01,0-0.02,0
				c-2.84-0.56-5.29-0.97-7.43-1.24C342.7,465.29,343.21,462.42,343.73,459.6z"/>
			<path class="st6" d="M332.54,542.25c0.6,14.57-12.77,17.58-12.77,17.58s9.77-13.07-1.5-29.81
				c-11.26-16.74-28.67-35.14-29.54-45.65c-0.78-9.45-3.29-21.64,0.59-28.09c7.75-2.53,15.57-6.48,24.2-11.74
				c2.66-1.62,5.47-3.34,8.39-5.17c0-0.01,0.01-0.01,0.01-0.01c7.72-1.79,16.33-2.53,25.26-1.17c0.26,0.04,0.52,0.08,0.78,0.11
				c-0.89,4.21-1.85,8.86-2.8,13.75c-10.86,2.05-22.13,5.57-32.3,8.96c-18.06,6.02-18.02,13.33-8.84,28.49
				c0.41,1.14,1.1,1.79,1.1,1.79c3.01,4.8,6.84,10.36,11.22,16.85c0,0.01,0,0.01,0.02,0.02c0.89,2.02,2.18,3.24,2.18,3.24
				c1.37,2.04,2.79,4.16,4.24,6.38C329.68,528.29,332.3,536.25,332.54,542.25z"/>
			<path class="st22" d="M349.64,469.42c-2.34-0.08-4.87-0.11-7.62-0.08c0.06-0.39,0.12-0.78,0.19-1.16
				C344.35,468.45,346.8,468.86,349.64,469.42z"/>
			<path class="st15" d="M344.44,480.62c1.18,4.1,2.16,8.89,1.63,12.34c-0.07,0.46-0.13,0.93-0.17,1.43
				c-2.16-2.04-4.46-4.11-6.63-6.21c0.21-1.77,0.44-3.57,0.69-5.39C341.47,481.88,342.9,481.14,344.44,480.62z"/>
			<path class="st15" d="M345.9,494.39c-0.58,6.12,0.64,14.99,3.15,23.53c-1.56,2.93-3.39,5.95-5.27,8.82
				c-2.39-2.03-4.04-4.28-4.75-6.75c-1.87-6.46-1.37-18.35,0.24-31.81C341.44,490.28,343.74,492.35,345.9,494.39z"/>
			<path class="st8" d="M345.16,452.05c-0.48,2.46-0.96,4.99-1.43,7.55c-7.93-8.85-13.89,0.4-14.45,9.38
				c-0.62,0.23-1.23,0.49-1.83,0.78c-1.23,0.06-2.49,0.12-3.79,0.18c-18.08,0.89-20.28,10.41-19.72,16.45
				c-0.36,1.25-0.21,2.31,0.08,3.11c-9.18-15.16-9.22-22.47,8.84-28.49C323.03,457.62,334.3,454.1,345.16,452.05z"/>
			<path class="st8" d="M343.73,459.6c-0.52,2.82-1.03,5.69-1.52,8.58c-6.09-0.77-9.71-0.41-12.93,0.8
				C329.84,460,335.8,450.75,343.73,459.6z"/>
			<path class="st20" d="M342.21,468.18c-0.07,0.38-0.13,0.77-0.19,1.16c-3.82,0.03-8.05,0.15-12.78,0.34
				c0.01-0.23,0.02-0.47,0.04-0.7C332.5,467.77,336.12,467.41,342.21,468.18z"/>
			<path class="st20" d="M342.02,469.34c-0.17,0.99-0.33,1.98-0.49,2.97c-0.57,3.52-1.1,7.03-1.57,10.48
				c-1.14,0.69-2.33,1.48-3.66,2.37c-3.2-3.46-5.77-7.02-6.63-10.72c-0.34-1.48-0.48-3.11-0.43-4.76
				C333.97,469.49,338.2,469.37,342.02,469.34z"/>
			<path class="st20" d="M341.53,472.31c0,0,1.58,3.72,2.91,8.31c-1.54,0.52-2.97,1.26-4.48,2.17
				C340.43,479.34,340.96,475.83,341.53,472.31z"/>
			<path class="st11" d="M339.96,482.79c-0.25,1.82-0.48,3.62-0.69,5.39c-1.03-1-2.03-2.01-2.97-3.02
				C337.63,484.27,338.82,483.48,339.96,482.79z"/>
			<path class="st11" d="M339.03,519.99c0.71,2.47,2.36,4.72,4.75,6.75c-4.62,7.08-9.5,13.33-11.24,15.51
				c-0.24-6-2.86-13.96-9.76-24.47c-1.45-2.22-2.87-4.34-4.24-6.38c-0.74-1.11-1.47-2.19-2.18-3.24c-0.02-0.01-0.02-0.01-0.02-0.02
				c-1.67-3.76-1.95-10.27,9.95-16.8c4.28-2.35,7.4-4.44,10.01-6.18c0.94,1.01,1.94,2.02,2.97,3.02
				C337.66,501.64,337.16,513.53,339.03,519.99z"/>
			<path class="st20" d="M329.67,474.44c0.86,3.7,3.43,7.26,6.63,10.72c-2.61,1.74-5.73,3.83-10.01,6.18
				c-11.9,6.53-11.62,13.04-9.95,16.8c-4.38-6.49-8.21-12.05-11.22-16.85c-0.02-0.02-0.03-0.06-0.05-0.1
				c-0.26-0.53-0.92-2.39-1.13-4.8c0.66-2.4,3.15-5.51,9.96-8.95c6.47-3.28,10-5.97,13.55-7.68c0.61-0.03,1.2-0.05,1.79-0.08
				C329.19,471.33,329.33,472.96,329.67,474.44z"/>
			<path class="st20" d="M329.28,468.98c-0.02,0.23-0.03,0.47-0.04,0.7c-0.59,0.03-1.18,0.05-1.79,0.08
				C328.05,469.47,328.66,469.21,329.28,468.98z"/>
			<path class="st20" d="M323.66,469.94c1.3-0.06,2.56-0.12,3.79-0.18c-3.55,1.71-7.08,4.4-13.55,7.68
				c-6.81,3.44-9.3,6.55-9.96,8.95C303.38,480.35,305.58,470.83,323.66,469.94z"/>
			<path class="st11" d="M316.36,508.16c0.71,1.05,1.44,2.13,2.18,3.24C318.54,511.4,317.25,510.18,316.36,508.16z"/>
			<path class="st6" d="M321.91,439.37c-2.92,1.83-5.73,3.55-8.39,5.17c-8.63,5.26-16.45,9.21-24.2,11.74
				c0.43-0.72,0.94-1.37,1.55-1.94C294.85,450.59,306.65,442.91,321.91,439.37z"/>
			<path class="st11" d="M305.07,491.19c0.02,0.04,0.03,0.08,0.05,0.1c0,0-0.69-0.65-1.1-1.79
				C304.36,490.05,304.7,490.61,305.07,491.19z"/>
			<path class="st11" d="M305.07,491.19c-0.37-0.58-0.71-1.14-1.05-1.69c-0.29-0.8-0.44-1.86-0.08-3.11
				C304.15,488.8,304.81,490.66,305.07,491.19z"/>
			<path class="st8" d="M279.46,561.35c19.91,15.49-1.6,7.32-3.85,12.39c-1.28,2.89-1.19,4.5-0.29,7.46
				c-1.89,0.01-3.77,0.02-5.63,0.04c-1.67-2.08,0.29-9.48,0.85-14.82c0.28-2.71-2.01-3.17-6.75-4.61c1.54-2.05,2.65-3.96,3.44-5.49
				c-0.43,0.39-2.68,2.4-6.23,4.59c-4.47-1.5-10.49-4.01-17.98-9.13c-18.57-12.7,6.69-10.14,11.19-17.63
				c4.51-7.49-1.13-8.28-18.43-16.47c-4.23-2.01-8.8-2.81-13.37-2.93c2.89-1.92,4.96-3.15,6.39-3.89c0.05,0.17,0.07,0.35,0.07,0.54
				c-0.03,3.07,6.52-3.9-0.07-0.54c-0.84-3.49-10.52-3.41-19.57-0.16c-3.91-6.75-3.47-13.87-2.25-21.49
				c30.34-1.06,23.02-12.42,18.51-10.97c-3.74,1.21-12.16-9.17-6.81-8.15c1.08,0.21,2.74,0.88,5.12,2.22
				c14.08,7.95,19.22,14.71,19.22,14.71s-19.78,8.73-15.28,12.53c4.51,3.8,29.85,0.19,29.85,3.68c0,3.5,0.35,16.95,8.34,14.45
				c7.99-2.5,10.85,0.31,10.85,0.31c-1.56,5.37-3.61,9.01-3.61,9.01s-11.92,11.26-15.58,16.08S259.56,545.87,279.46,561.35z"/>
			<path class="st21" d="M278.5,591.35c3.18,11.42-2.61,5.48-1.76,3.96c0.23-0.41-0.06-1.47-0.63-2.84
				C277.57,591.79,278.5,591.35,278.5,591.35z"/>
			<path class="st6" d="M251.96,477.44c29.32,8.12,28.28,28.62,24.82,40.55c0,0-2.86-2.81-10.85-0.31
				c-7.99,2.5-8.34-10.95-8.34-14.45c0-3.49-25.34,0.12-29.85-3.68c-4.5-3.8,15.28-12.53,15.28-12.53s-5.14-6.76-19.22-14.71
				c-2.38-1.34-4.04-2.01-5.12-2.22l0.1-0.47C230.94,472.19,242.45,474.8,251.96,477.44z"/>
			<path class="st21" d="M278.5,591.35c0,0-0.93,0.44-2.39,1.12c-1.54-3.71-5.18-9.71-6.41-11.22c0,0,0-0.01-0.01-0.01
				c1.86-0.02,3.74-0.03,5.63-0.04C276,583.43,277.14,586.44,278.5,591.35z"/>
			<path class="st23" d="M276.11,592.47c-2.5,1.16-6.56,3.01-10.18,4.55c-5.74,2.44-8.9,2.62-11.16,0
				c-2.25-2.63-12.95-0.76-18.99,1.19c-6.03,1.94-1.84-4.2,7.24-10.52c3.98-2.78,7.71-4.33,10.73-6.17
				c5.2-0.13,10.52-0.22,15.94-0.28c0.01,0,0.01,0.01,0.01,0.01C270.93,582.76,274.57,588.76,276.11,592.47z"/>
			<path class="st23" d="M263.79,561.81c4.74,1.44,7.03,1.9,6.75,4.61c-0.56,5.34-2.52,12.74-0.85,14.82
				c-5.42,0.06-10.74,0.15-15.94,0.28c3.87-2.37,6.59-5.21,7.22-11.72c0.29-3,0.43-4.45,0.38-5.05c0.09-0.09,0.17-0.18,0.25-0.27
				C262.41,563.57,263.14,562.68,263.79,561.81z"/>
			<path class="st12" d="M268.94,205.08l-35.15,12.68C240.04,213.55,250.84,209.19,268.94,205.08z"/>
			<path class="st13" d="M267.79,198.98c0.23,2,0.6,4.05,1.15,6.1c-18.1,4.11-28.9,8.47-35.15,12.68l-13.6,4.9
				c2.89-6.85,3.8-8.3,5.09-9.85c9.01-10.89,24.86-12.9,30.41-13.61C260.63,198.58,264.82,198.72,267.79,198.98z"/>
			<path class="st3" d="M268.93,180.85c-0.42,1.85-0.84,4.14-1.12,6.73l-0.01,0.02l-1.87,4.85c0,0-6.11,2.25-13.25,3
				c-7.13,0.75-32.28,4.88-38.29,12.39c-3.28,4.1-5.66,12.44-7.82,19.73l-20.08,7.25c-0.53-0.59-1.06-1.2-1.58-1.84
				c-5.83-7.13-8.06-2.62-11.81,1.89c-3.69,4.42-24.09-1.66-24.83-1.88c6.05-0.57,13.43-1.09,20.7-4.69
				c2.74-1.36,5.16-3.01,7.29-4.82v0.01c1.83-1.66,10.35-3.64,13.73-1.76c3.38,1.88,7.13,7.48,9.76-0.76
				c2.63-8.25,4.17-18.76,8.28-22.89s17.62-9.74,31.14-10.5C252.47,186.83,268.43,181.03,268.93,180.85z"/>
			<path class="st4" d="M265.93,192.45l1.87-4.85c-0.36,3.39-0.48,7.29-0.01,11.38c-2.97-0.26-7.16-0.4-12.1,0.22
				c-5.55,0.71-21.4,2.72-30.41,13.61c-1.29,1.55-2.2,3-5.09,9.85l-13.62,4.91c2.16-7.29,4.54-15.63,7.82-19.73
				c6.01-7.51,31.16-11.64,38.29-12.39C259.82,194.7,265.93,192.45,265.93,192.45z"/>
			<path class="st21" d="M267.23,556.32c-0.79,1.53-1.9,3.44-3.44,5.49c-0.85-0.26-1.78-0.55-2.79-0.9
				C264.55,558.72,266.8,556.71,267.23,556.32z"/>
			<path class="st23" d="M263.79,561.81c-0.65,0.87-1.38,1.76-2.19,2.67c-0.08,0.09-0.16,0.18-0.25,0.27
				c-0.14-1.72-1.82,3.51-5.95-0.88c2.1-0.93,3.99-1.96,5.6-2.96C262.01,561.26,262.94,561.55,263.79,561.81z"/>
			<path class="st11" d="M261.35,564.75c0.05,0.6-0.09,2.05-0.38,5.05c-0.63,6.51-3.35,9.35-7.22,11.72
				c-24.43,0.58-46.34,1.85-63.75,3.61c-0.17-2.33-1.52-15.18-10.4-13.64c-9.76,1.69-9.61,16.2-9.61,16.2
				c-12,1.95-19.51,4.24-21,6.71l-1.15-0.44c0.55-0.96,1.03-1.72,1.36-2.26c15.48-24.83,51.55-35.77,64.05-25.45
				c3.08,2.54,3.48,5.35,8.3,8.09c9.08,5.17,19.69,2.05,22.87,1.12C246.07,574.98,254.28,572.44,261.35,564.75z"/>
			<path class="st7" d="M261,560.91c-1.61,1-3.5,2.03-5.6,2.96c-5.56-5.93-6.26-1.39-26.53-4.04c-4.87-0.64-7.63-1.34-8.88-2.29
				c-3.7-2.82,5.91-7.88,12.98-20.18c0.99-1.23,1.48-2.21,1.32-2.44c7.19-14.25-0.2-8.29-14.19-4.88c-0.23-0.7-0.48-1.42-0.74-2.16
				c-1.23-3.42-2.59-6.05-3.96-8.24c0.91-0.64,1.84-1.3,2.77-1.96c1.58-1.12,2.99-2.09,4.24-2.93c4.57,0.12,9.14,0.92,13.37,2.93
				c17.3,8.19,22.94,8.98,18.43,16.47c-4.5,7.49-29.76,4.93-11.19,17.63C250.51,556.9,256.53,559.41,261,560.91z"/>
			<path class="st23" d="M228.87,559.83c20.27,2.65,20.97-1.89,26.53,4.04c-6.14,2.73-14.14,4.61-22.8,2.3
				c-5.69-1.52-10.3-4.49-14-8.07l1.39-0.56C221.24,558.49,224,559.19,228.87,559.83z"/>
			<path class="st14" d="M184.92,717.57c-7.72-0.05-17.03-0.25-25.83-0.72c-7.79-0.43-15.18-1.07-20.7-2.03
				c-4.17-0.72-7.27-1.61-8.68-2.72c-7.8-6.12-4.63-20.02-4.53-20.46c16.68,6.39,61.06,7.89,68.55,6.97
				c4.52-0.55,15.45-5.79,25.45-11.37c2.61-1.44,5.15-2.91,7.5-4.33h0.01c5.65-1.84,13.99-1.88,15.9,1.34
				c2.9,4.9-9.68,16.15-12.6,18c-7.36,4.66-24.36,14.52-27.76,15.04C201.14,717.46,194.17,717.62,184.92,717.57z"/>
			<path class="st11" d="M125.18,691.64c-2.27-0.87-4.02-1.83-5.1-2.88c-9.07-8.82-6.24-29.57-6.24-29.57
				c12.47,15.57,44.2,16.08,48.73,18.68c4.53,2.59,50.99-5.71,58.36-8.3c2.11-0.74,5.28-2.17,8.15-3.84
				c4.18-1.87,8.19-2.16,10.05-0.46c2.47,2.26,1.1,7.71-0.64,9.49c-1.68,1.71-6.19,4.77-11.8,8.15h-0.01
				c-3.61,1.17-6.09,3.06-7.5,4.33c-10,5.58-20.93,10.82-25.45,11.37C186.24,699.53,141.86,698.03,125.18,691.64z"/>
			<path class="st23" d="M220.1,530.04c13.99-3.41,21.38-9.37,14.19,4.88c-0.43-0.6-5.39,4.18-9.58,2.53
				C222.15,536.44,221.26,533.56,220.1,530.04z"/>
			<path class="st2" d="M234.29,534.92c0.16,0.23-0.33,1.21-1.32,2.44C233.42,536.58,233.86,535.76,234.29,534.92z"/>
			<path class="st23" d="M224.71,537.45c4.19,1.65,9.15-3.13,9.58-2.53c-0.43,0.84-0.87,1.66-1.32,2.44
				c-2.05,2.56-6.23,6.19-11.07,6.29c-8.78,0.17-14.62-11.36-15.9-11.83c5.15,0.04,9.92-0.75,14.1-1.78
				C221.26,533.56,222.15,536.44,224.71,537.45z"/>
			<path class="st13" d="M220.19,222.66l13.6-4.9c-5.25,3.52-7.29,6.93-7.76,9.98c-0.33,2.12-0.69,9.36-3.39,19.34
				c-1.43,5.3-2.29,6.81-3.37,8.06c-4.37,5.03-12.9,6.27-19.52,4.51c-12.84-3.44-17.1-17.82-22.15-16.15
				c-3.09,1.03-1.5,6.41-6.33,10.49c-4.25,3.59-10.04,3.29-15.07,3.03c0,0-4.15-0.22-18.77-4.51l11.77-4.25
				c5.64,1.51,9.35,0.77,11.88-0.63c2.57-1.41,4.78-3.99,7.29-6.28l12.19-4.4c0.01,0,0.01,0,0.01,0c0.12,0.02,0.24,0.05,0.36,0.08
				c5.59,1.33,6.35,6.23,12.06,11.22c1.22,1.07,7.94,6.94,12.8,5c2.51-1.01,3.6-3.74,4.1-5
				C214.96,235.47,218.1,227.64,220.19,222.66z"/>
			<path class="st11" d="M228.8,510.86c6.59-3.36,0.04,3.61,0.07,0.54C228.87,511.21,228.85,511.03,228.8,510.86z"/>
			<path class="st12" d="M164.48,658.16c13.35-0.08,38.48-3.98,59.28-3.11c17.79,0.74,12.49,6.49,5.32,10.68
				c-2.87,1.67-6.04,3.1-8.15,3.84c-7.37,2.59-53.83,10.89-58.36,8.3c-4.53-2.6-36.26-3.11-48.73-18.68
				c-0.25-0.6-0.71-1.4-1.51-2.07l-0.01-0.01c-9.3-14.07,7.36-20.1,7.36-20.1c5.34-2.56,10.68-5.11,16.02-7.67
				c4.97,2.5,10.24,4.44,14.59,5.74c0.34,2.8,1.32,7.84,4.62,13.18C158.16,653.5,162.15,656.6,164.48,658.16L164.48,658.16z"/>
			<path class="st6" d="M225.49,478.24c4.51-1.45,11.83,9.91-18.51,10.97c1.08-6.75,2.76-13.89,2.56-21.52
				c3.11,0.64,6.2,1.28,9.24,1.93l-0.1,0.47C213.33,469.07,221.75,479.45,225.49,478.24z"/>
			<path class="st7" d="M209.23,510.7c9.05-3.25,18.73-3.33,19.57,0.16c-1.43,0.74-3.5,1.97-6.39,3.89
				c-3.36-0.09-6.72,0.19-9.95,0.62C211.27,513.77,210.16,512.31,209.23,510.7z"/>
			<path class="st23" d="M221.9,543.65c4.84-0.1,9.02-3.73,11.07-6.29c-7.07,12.3-16.68,17.36-12.98,20.18l-1.39,0.56
				c-3.25-3.14-5.79-6.76-7.73-10.28c0-0.03-0.02-0.05-0.03-0.08c-2.1-4.39-2.36-4.94-2.39-5.01l-0.01-0.01
				c-2.43-5.87-3.09-10.57-2.59-10.9c0.05,0,0.1,0,0.15,0C207.28,532.29,213.12,543.82,221.9,543.65z"/>
			<path class="st21" d="M212.46,515.37c3.23-0.43,6.59-0.71,9.95-0.62c-1.25,0.84-2.66,1.81-4.24,2.93
				c-0.93,0.66-1.86,1.32-2.77,1.96C214.41,518.03,213.4,516.66,212.46,515.37z"/>
			<path class="st4" d="M206.57,227.57l13.62-4.91c-2.09,4.98-5.23,12.81-10.3,25.59c-0.5,1.26-1.59,3.99-4.1,5
				c-4.86,1.94-11.58-3.93-12.8-5c-5.71-4.99-6.47-9.89-12.06-11.22c-0.12-0.03-0.24-0.06-0.36-0.08l5.92-2.13
				c5.38,5.92,11,8.76,14.76,5.68C203.13,238.96,204.77,233.63,206.57,227.57z"/>
			<path class="st21" d="M219.36,527.88c0.26,0.74,0.51,1.46,0.74,2.16c-4.18,1.03-8.95,1.82-14.1,1.78c-0.06-0.03-0.11-0.03-0.15,0
				c-3.87-0.04-6.33,0.25-7.75,0.77c4.75-3.9,10.72-8.27,17.3-12.95C216.77,521.83,218.13,524.46,219.36,527.88z"/>
			<path class="st17" d="M215.01,732.22c0.33,0.38,2.87,3.4,2.5,5.3c-0.92,4.83-21.27,5.36-36.12,4.4
				c-1.21-0.08-2.39-0.16-3.52-0.26c-1.03-0.08-7.63-0.67-16.17-2.59c-8.58-1.93-12.94-2.95-16.17-5.7
				c-6.11-5.2-7.09-13.64-7.14-18.55c5.52,0.96,12.91,1.6,20.7,2.03l-0.01,0.08c7.63,7.08,14.43,9.41,19.31,10.21
				c1.56,0.25,4.18,0.56,7.5,0.71c3.23,0.15,7.12,0.15,11.28-0.19c2.45-0.2,9.09-0.85,14.1,1.68
				C213.4,730.42,214.6,731.74,215.01,732.22z"/>
			<path class="st21" d="M210.87,547.82c2.24,4.97-10.78,6.75-20.85,2.27c-6.25-2.78-2.45-8.54,6.52-16.18
				c-0.78,3.17,11.9,8.81,11.9,8.81l0.01,0.01C209.11,544.36,209.92,546.08,210.87,547.82z"/>
			<path class="st11" d="M210.84,547.74c0.01,0.03,0.03,0.05,0.03,0.08c-0.95-1.74-1.76-3.46-2.42-5.09
				C208.48,542.8,208.74,543.35,210.84,547.74z"/>
			<path class="st7" d="M209.23,510.7c0.93,1.61,2.04,3.07,3.23,4.67c-10.28,1.4-19.2,4.43-22.44,2.31
				c-5.64-3.69-16.9-6.45-41.77-6.28c-24.88,0.17-13.42-2.42-13.19-11.85c0.24-9.43,34.68-0.71,41.2-10.34
				c6.52-9.63-31.29-10.64-50.32-11.77c-19.03-1.14-38.63-16.53-35.03-24.1c3.59-7.58-14.08-23.75,15.76-32.39
				c1.92-0.56,3.66-0.99,5.22-1.32c-0.35,0.49-13.6,18.66-9.16,23.84c4.51,5.26,10.38,1.53,11.67,9.87
				c1.28,8.34-10.1,8.9,21.5,13.41c31.59,4.5,34.41-1.13,41.73,7.88c7.32,9.01,18.26,22.81,2.37,24.92
				c-15.89,2.11-37.78-0.94-22.61,3.68C172.56,507.85,199.72,514.11,209.23,510.7z"/>
			<path class="st6" d="M209.54,467.69c0.2,7.63-1.48,14.77-2.56,21.52c-30.34,1.06-1.76-10.07-9.64-16.9
				c-7.89-6.82-39.99-12.32-53.02-16.29c-13.03-3.97-10.99-6.37-10.99-6.37C148.46,455.59,179.92,461.57,209.54,467.69z"/>
			<path class="st3" d="M186.49,234.82l20.08-7.25c-1.8,6.06-3.44,11.39-5.32,12.93C197.49,243.58,191.87,240.74,186.49,234.82z"/>
			<path class="st8" d="M206.98,489.21c-1.22,7.62-1.66,14.74,2.25,21.49c-9.51,3.41-36.67-2.85-51.84-7.47
				c-15.17-4.62,6.72-1.57,22.61-3.68c15.89-2.11,4.95-15.91-2.37-24.92c-7.32-9.01-10.14-3.38-41.73-7.88
				c-31.6-4.51-20.22-5.07-21.5-13.41c-1.29-8.34-7.16-4.61-11.67-9.87c-4.44-5.18,8.81-23.35,9.16-23.84
				c0.01-0.01,0.01-0.01,0.01-0.01c22.72-4.76,9.6,13.49,12.34,23.85c0.54,2.06,3.83,4.12,9.09,6.18c0,0-2.04,2.4,10.99,6.37
				c13.03,3.97,45.13,9.47,53.02,16.29C205.22,479.14,176.64,490.27,206.98,489.21z"/>
			<path class="st11" d="M206,531.82c-0.05,0-0.1,0-0.15,0C205.89,531.79,205.94,531.79,206,531.82z"/>
			<path class="st21" d="M198.1,532.59c1.42-0.52,3.88-0.81,7.75-0.77c-0.5,0.33,0.16,5.03,2.59,10.9c0,0-12.68-5.64-11.9-8.81
				C197.04,533.47,197.56,533.04,198.1,532.59z"/>
			<path class="st2" d="M198.1,532.59c-0.54,0.45-1.06,0.88-1.56,1.32C196.66,533.4,197.14,532.94,198.1,532.59z"/>
			<path class="st12" d="M190,585.13c-7.58,0.76-14.3,1.62-20.01,2.56c0,0-0.15-14.51,9.61-16.2
				C188.48,569.95,189.83,582.8,190,585.13z"/>
			<path class="st1" d="M188.14,721.46c0.59,2.29-0.3,4.8-2.25,6.39c-3.32-0.15-5.94-0.46-7.5-0.71
				c-4.88-0.8-11.68-3.13-19.31-10.21l0.01-0.08c8.8,0.47,18.11,0.67,25.83,0.72C185.3,717.77,187.48,718.92,188.14,721.46z"/>
			<path class="st4" d="M186.49,234.82l-5.92,2.13c0,0,0,0-0.01,0c-1.14-0.24-2.05-0.22-2.58-0.2c-4.02,0.1-6.98,2.19-9.61,4.6
				l-19.17,6.91c-3.77-1.01-8.4-3.02-14.12-6.5c-0.25-1.26-0.2-2.43,0.46-3.75c1.91-3.85,6.64-4.46,12.73-5.02
				c0.74,0.22,21.14,6.3,24.83,1.88c3.75-4.51,5.98-9.02,11.81-1.89C185.43,233.62,185.96,234.23,186.49,234.82z"/>
			<path class="st22" d="M185.28,420.62c0,0,1.6,6,1.67,6.07c-5.12-5.11-10.98-10.51-17.42-16.5c-3.27-3.04-5.98-5.32-9.75-8.41
				v-0.01l-2.61-9.88C163.61,399.96,172.93,410.25,185.28,420.62z"/>
			<path class="st13" d="M180.56,236.95l-12.19,4.4c2.63-2.41,5.59-4.5,9.61-4.6C178.51,236.73,179.42,236.71,180.56,236.95z"/>
			<path class="st13" d="M149.2,248.26l19.17-6.91c-2.51,2.29-4.72,4.87-7.29,6.28C158.55,249.03,154.84,249.77,149.2,248.26z"/>
			<path class="st13" d="M157.17,391.89l2.61,9.88c-2.04-1.67-4.39-3.58-7.31-5.97c0,0-0.01-0.01-0.03-0.04
				c-0.69-0.73-11.64-12.53-11.91-19.08c-0.28-6.76-12.39-29-18.5-45.51c-5.98-16.18-0.25-44.26-0.01-45.42v-0.01
				c0.79-1.24,1.63-2.55,2.5-3.92c-0.96,17.14-0.64,54.97,21.47,94.19C145.99,376.01,149.62,382.44,157.17,391.89z"/>
			<path class="st13" d="M149.2,248.26l-11.77,4.25c-0.22-5.3-1.88-8.2-2.35-10.75C140.8,245.24,145.43,247.25,149.2,248.26z"/>
			<path class="st1" d="M147.84,593.96l1.15,0.44c-0.18,0.3-0.27,0.6-0.27,0.91c-1.36,3.77-3.02,9.77-3,17.28
				c0.01,3.85,0.46,7.29,1.08,10.24c-0.83,0.46-1.65,0.93-2.48,1.39c-0.47-0.81-0.9-1.67-1.26-2.58
				C138.9,611.19,144.65,599.45,147.84,593.96z"/>
			<path class="st18" d="M140.53,376.68c0.27,6.55,11.22,18.35,11.91,19.08c-5.85-4.79-14-11.55-26.5-22.28c0,0-0.62-7.78-2.87-18.2
				s-4.79-19.43-7.88-32.18c-3.06-12.59,3.72-32.25,3.9-32.77c0-0.01,0-0.01,0-0.01c0.91-1.42,1.88-2.94,2.93-4.57
				c-0.24,1.16-5.97,29.24,0.01,45.42C128.14,347.68,140.25,369.92,140.53,376.68z"/>
			<path class="st1" d="M146.8,622.83c0.56,2.7,1.27,4.98,1.92,6.77c-1.64-1.48-3.18-3.26-4.4-5.38
				C145.15,623.76,145.97,623.29,146.8,622.83z"/>
			<path class="st0" d="M138.39,714.82L0,826.58V690.31c55.03-11.81,78.91-20.65,89.64-27.03c3.11-1.85,17.18-10.68,22.68-6.17
				l0.01,0.01c0.44,0.67,0.94,1.36,1.51,2.07c0,0-2.83,20.75,6.24,29.57c1.08,1.05,2.83,2.01,5.1,2.88
				c-0.1,0.44-3.27,14.34,4.53,20.46C131.12,713.21,134.22,714.1,138.39,714.82z"/>
			<path class="st1" d="M135.7,629.34c-5.34,2.56-10.68,5.11-16.02,7.67c0,0-16.66,6.03-7.36,20.1c-5.5-4.51-19.57,4.32-22.68,6.17
				C78.91,669.66,55.03,678.5,0,690.31v-97.42l34.5-56.82c0.39,5.4,35.59-1.31,58.66,15.33c18.67,13.47,24.3,38.56,25.69,60.38
				C119.39,619.03,127.1,625.02,135.7,629.34z"/>
			<path class="st11" d="M134.05,531.82c11.9,14.82,7.57,40.98,0.57,56.31c-6.25,13.67-16.39,15.43-15.77,23.65
				c-1.39-21.82-7.02-46.91-25.69-60.38c-23.07-16.64-58.27-9.93-58.66-15.33c-0.05-0.62,0.26-2.64,18.49-8.69
				c15-4.99,27.76-7.93,36.78-9.7v-0.01C104.64,518.33,123.86,519.13,134.05,531.82z"/>
			<path class="st4" d="M123.07,355.28c2.25,10.42,2.87,18.2,2.87,18.2c-1.02-0.88-2.07-1.78-3.15-2.71
				c-1.95-1.68-3.85-3.32-5.66-5.02c0,0-0.53-11.88-4.19-21.17c-3.66-9.29-2.26-6.47-5.64-14.92c-3.32-8.34,7.5-32.41,7.79-33.07
				c0.01-0.01,0.01-0.01,0.01-0.01c1.18-1.84,2.5-3.91,3.99-6.25c-0.18,0.52-6.96,20.18-3.9,32.77
				C118.28,335.85,120.82,344.86,123.07,355.28z"/>
			<path class="st3" d="M112.94,344.58c3.66,9.29,4.19,21.17,4.19,21.17c-5.46-5.09-10.13-10.6-12.92-18.63
				c-4.93-14.17-1.01-27.54,0.42-32.19c1.05-3.42,1.81-4.76,10.46-18.34c-0.29,0.66-11.11,24.73-7.79,33.07
				C110.68,338.11,109.28,335.29,112.94,344.58z"/>
		</g>
		<g>
		</g>
	</g>
</g>
</svg>
