<?xml version="1.0" encoding="utf-8"?>
<!-- Generator: Adobe Illustrator 26.0.2, SVG Export Plug-In . SVG Version: 6.00 Build 0)  -->
<svg version="1.1" id="Calque_1" xmlns="http://www.w3.org/2000/svg" xmlns:xlink="http://www.w3.org/1999/xlink" x="0px" y="0px"
	 viewBox="0 0 841.89 595.28" style="enable-background:new 0 0 841.89 595.28;" xml:space="preserve">
<style type="text/css">
	.st0{stroke:#000000;stroke-miterlimit:10;}
	.st1{fill:#F6F6F6;stroke:#000000;stroke-miterlimit:10;}
	.st2{fill:none;}
	.st3{fill:#FFFFFF;stroke:#000000;stroke-miterlimit:10;}
	.st4{fill:#FFFFFF;}
</style>
<g>
	<path d="M290.53,152.57c0,22.4-23.9,40.55-53.37,40.55c-29.48,0-53.37-18.15-53.37-40.55c0-22.4,23.9-40.55,53.37-40.55
		C266.64,112.03,290.53,130.18,290.53,152.57z"/>
	<path class="st0" d="M279.68,188.99c0,5.21-18.43,9.43-41.16,9.43c-22.74,0-41.16-4.22-41.16-9.43c0-5.21,18.43-9.43,41.16-9.43
		C261.25,179.56,279.68,183.78,279.68,188.99z"/>
	<path class="st0" d="M284.65,113.95c0-6.56-19.95-11.87-44.55-11.87c-24.61,0-44.56,5.32-44.56,11.87
		c0,6.56,19.95,11.87,44.56,11.87C264.71,125.82,284.65,120.5,284.65,113.95z"/>
	<ellipse class="st0" cx="238.52" cy="98.68" rx="24.65" ry="7.92"/>
	<ellipse class="st0" cx="238.52" cy="87.15" rx="6.11" ry="3.62"/>
	<path d="M173.85,181.79c0,5.31,5.26,9.62,11.75,9.62c6.49,0,11.75-4.31,11.75-9.62c0-5.31-5.26-9.62-11.75-9.62
		C179.11,172.17,173.85,176.48,173.85,181.79z"/>
	<path d="M183.11,140.52c0,4.25-4.66,7.69-10.4,7.69c-5.74,0-10.4-3.44-10.4-7.69c0-4.25,4.66-7.69,10.4-7.69
		c3.73,0,6.99,1.45,8.83,3.62C182.54,137.64,183.11,139.03,183.11,140.52z"/>
	<path d="M194.37,142.4c0,3.96-4.59,7.17-10.26,7.17c-5.67,0-10.26-3.21-10.26-7.17c0-3.96,4.59-7.17,10.26-7.17
		C189.77,135.23,194.37,138.44,194.37,142.4z"/>
	<path d="M181.97,106.6c0-3.18-4.86-5.76-10.85-5.76c-5.99,0-10.85,2.58-10.85,5.76c0,3.18,4.86,5.76,10.85,5.76
		C177.12,112.36,181.97,109.78,181.97,106.6z"/>
	<path d="M332.38,109.65c0,3.03-6.03,5.48-13.46,5.48c-7.43,0-13.46-2.46-13.46-5.48c0-3.03,6.03-5.48,13.46-5.48
		C326.35,104.16,332.38,106.62,332.38,109.65z"/>
	<path d="M306.62,157.05c5.36-8.39,4.35-18.61-2.27-22.84c-6.62-4.23-16.32-0.86-21.69,7.52c-5.36,8.39-4.35,18.61,2.27,22.84
		C291.55,168.8,301.26,165.43,306.62,157.05z"/>
	<path d="M295.19,125.27c-5.04,9.38-5.47,18.95-0.95,21.38c4.52,2.43,12.28-3.2,17.32-12.57c5.04-9.38,5.47-18.95,0.95-21.38
		c-3.51-1.89-8.97,1.08-13.59,6.89C297.58,121.26,296.32,123.17,295.19,125.27z"/>
	<polygon points="307.66,108.86 302.83,112.36 301.67,117.24 298.91,119.59 310.02,112.36 	"/>
	<polyline points="314.17,114.22 314.83,125.82 328.31,113.95 315.64,114.22 	"/>
	<path d="M399.29,193.25"/>
	<path d="M204.22,350.39c0,10.99-21.99,19.9-49.11,19.9c-27.13,0-49.12-8.91-49.12-19.9c0-10.99,21.99-19.9,49.12-19.9
		C182.23,330.49,204.22,339.4,204.22,350.39z"/>
	<path d="M199.94,358.76c0,10.37-8.04,18.77-17.96,18.77c-9.92,0-17.97-8.4-17.97-18.77c0-10.37,8.04-18.77,17.97-18.77
		C191.9,339.99,199.94,348.4,199.94,358.76z"/>
	<path d="M206.16,287.97"/>
	<path d="M170.22,287.97"/>
	<path d="M202.33,313.33c0,3.01-3.16,5.46-7.07,5.46c-3.9,0-7.07-2.44-7.07-5.46c0-3.01,3.17-5.45,7.07-5.45
		C199.17,307.88,202.33,310.32,202.33,313.33z"/>
	<polyline points="116.97,362.93 116.97,472.74 191.37,472.74 188.19,379.34 191.37,374.74 118.89,362.93 	"/>
	<ellipse cx="154.17" cy="476.31" rx="37.2" ry="9.67"/>
	<polygon points="191.37,472.74 191.37,481.56 120.58,481.56 120.58,477.15 119.59,472.74 	"/>
	<ellipse class="st0" cx="157" cy="334.13" rx="46.26" ry="37.86"/>
	<path class="st0" d="M701.69,313.32c0-25.78-19.44-46.69-43.42-46.69s-43.42,20.9-43.42,46.69c0,25.78,19.44,46.68,43.42,46.68
		S701.69,339.1,701.69,313.32z"/>
	<path class="st0" d="M701.69,276.26c0,7.27-20.51,13.17-45.8,13.17c-25.29,0-45.8-5.9-45.8-13.17c0-7.27,20.5-13.17,45.8-13.17
		C681.19,263.09,701.69,268.98,701.69,276.26z"/>
	<polygon class="st0" points="655.9,217.64 673.2,217.64 673.2,200 652.84,200 650.81,207.12 650.81,215.26 650.81,217.64 	"/>
	<polyline class="st0" points="701.69,299.63 701.69,298.04 701.69,279.08 692.68,284.85 	"/>
	<path class="st0" d="M680.66,263.09l3.73-10.68l21.03,3.22l-2.37,7.46c0,0-3.05,4.76-1.36,5.77c1.7,1.02,1.7,4.24,1.7,4.24
		l-1.7,2.23l-21.03-10.15V263.09z"/>
	<path class="st0" d="M680.66,261.06l-1.36-14.74l-3.73-2.9v-5.09l-6.11,5.43l-4.75-2.37l-2.71-7.81l-3.73-2.37v-13.57l-7.46,1.7
		v15.94c0,0-6.45,4.42-6.45,6.11c0,1.69-1.7,6.44-1.7,6.44l-3.39,1.37l-5.43-9.85h-6.45v6.97l-1.02,3.98v12.79v2.72l54.28-0.63
		V261.06z"/>
	<path class="st0" d="M684.26,252.48l-5.84-1.1l13.11-19.69l16.14,20.79h-3.39l-21.03,2.11l21.03,3.22c0,0-1.02-4.75,0-3.22"/>
	<path class="st1" d="M248.93,319.79"/>
	<path class="st1" d="M332.38,325.14"/>
	<rect x="380.1" y="325.14" class="st2" width="26.08" height="14.85"/>
	
		<rect x="197.79" y="310.83" transform="matrix(0.9997 -0.026 0.026 0.9997 -8.3966 10.9535)" class="st0" width="436.9" height="33.88"/>
	<rect x="218.96" y="322.7" class="st3" width="20.58" height="14.85"/>
	<rect x="255.26" y="323.29" class="st3" width="21.71" height="13.04"/>
	<rect x="294.64" y="323.29" class="st3" width="24.28" height="13.04"/>
	<rect x="337.58" y="321.25" class="st3" width="23.97" height="13.04"/>
	<rect x="375.12" y="321.06" class="st3" width="24.14" height="13.04"/>
	<rect x="411.52" y="321.25" class="st3" width="29.14" height="13.04"/>
	<rect x="457.97" y="320.57" class="st3" width="26.23" height="11.23"/>
	<rect x="505.84" y="317.98" class="st3" width="22.61" height="14.34"/>
	<rect x="552.88" y="317.9" class="st3" width="21.26" height="12.77"/>
	<rect x="592.23" y="315.33" class="st3" width="22.62" height="14.74"/>
	<rect x="284.65" y="321.44" class="st3" width="6.46" height="18.55"/>
	<rect x="325.37" y="319.79" class="st3" width="7.01" height="20.2"/>
	<rect x="244.62" y="324.29" class="st3" width="7.02" height="19.03"/>
	<rect x="365.17" y="321.44" class="st3" width="7.24" height="16.74"/>
	<rect x="403.73" y="321.02" class="st3" width="4.91" height="17.58"/>
	<rect x="443.87" y="316.92" class="st3" width="5.43" height="19.45"/>
	<rect x="488.88" y="317.39" class="st3" width="6.78" height="17.58"/>
	<rect x="538.41" y="317.89" class="st3" width="5.43" height="16.58"/>
	<rect x="579.12" y="315.47" class="st3" width="7.69" height="15.65"/>
	<rect x="116.97" y="476.31" class="st0" width="74.4" height="26.97"/>
	<rect x="641.54" y="479.87" class="st0" width="63.89" height="23.4"/>
	<rect x="191.37" y="481.56" class="st0" width="141" height="21.71"/>
	<rect x="541.12" y="479.87" class="st0" width="100.41" height="23.4"/>
	<polyline class="st0" points="332.38,503.27 361.55,489.79 408.42,485.98 446.59,485.98 463.7,485.98 495.67,491.57 517.15,497.85 
		538.41,503.27 610.1,479.87 561.02,468.9 531.62,466.64 492.27,463.02 460.84,458.95 440.65,458.95 418.45,458.95 390.5,457.14 
		368.79,457.14 337.58,457.14 318.92,457.14 310.06,464.38 310.06,472.74 298.91,472.74 281.95,476.31 266.11,479.87 253.45,479.87 
		244.62,477.15 238.52,477.15 232.41,477.15 229.25,469.8 224.5,466.64 215.46,472.74 194.37,480.21 194.06,503.27 	"/>
	<rect x="215" y="481.56" class="st3" width="19.9" height="18.55"/>
	<rect x="261.88" y="483.82" class="st3" width="10.57" height="11.31"/>
	<rect x="294.64" y="483.82" class="st3" width="8.74" height="7.75"/>
	<rect x="585" y="484.28" class="st3" width="18.54" height="16.28"/>
	<rect x="559.22" y="484.14" class="st3" width="9.5" height="11.31"/>
	<rect x="538.41" y="485.76" class="st3" width="6.78" height="7.43"/>
	<polygon class="st3" points="258.66,124.47 269.35,125.5 277.46,129.59 281.96,134.57 283.82,138.98 284.65,143.08 280.99,144.64 
		280.36,142.52 279.29,138.54 277.23,136.3 274.48,132.6 271.13,130.63 264.92,128.38 260.83,127.78 258.35,127.74 254.4,127.77 
		252.14,127.55 250.42,125.94 250.51,125.12 	"/>
	<path class="st3" d="M248.13,116.78h15.04h7.02l2.71-2.16l2.71-2.59v-2.38h1.36l2.71,1.87v0.84l-0.46,2.77l-2.25,2.55
		c0,0-3.84,0.68-4.75,0.91c-0.91,0.23-4.68,1.3-4.68,1.3h-5.72h-5.43h-3.84h-3.62h-4.3h-4.52h-4.75h-2.94v-3.11c0,0,12.79,0,14.25,0
		C248.13,116.78,248.13,116.78,248.13,116.78z"/>
	<path class="st3" d="M246.44,93.14"/>
	<path class="st3" d="M254.81,93.93l6.11,1.78l1.36,2.97l-1.58,3.39l-4.98,1.13h-4.41h-5.54h-5.43h-4.75v-1.13l0.91-2.46h2.94h4.75
		l3.61-0.93h5.8h2.35h2.49v-1.7c0,0-1.81-1.76-2.49-1.27c-0.68,0.48-2.35,0-2.35,0h-2.29v-1.78H254.81z"/>
	<polyline class="st3" points="241,87.15 242.59,85.57 245.08,85.57 245.08,87.15 243.04,89.07 239.65,89.86 237.16,89.07 
		238.06,87.71 237.16,85.57 241,85.57 	"/>
	<polygon class="st3" points="314.17,111.52 322.88,112.36 328.87,111.52 328.87,109.65 327.18,106.6 325.37,108.86 321.52,108.86 
		315.64,109.48 311.8,108.86 307.66,108.86 307.66,111.52 	"/>
	<polygon class="st3" points="269.09,185.07 272.9,189.26 267.54,193.13 258.43,194.57 251.42,196.61 252.32,198.42 262.76,196.61 
		270.64,195.94 274.48,193.13 277.65,189.26 278.48,186.73 273.27,183.94 268.83,181.79 266.34,181.79 260.46,181.79 256.05,181.79 
		256.05,183.94 	"/>
	<path class="st0" d="M430.98,372.73v-13.17l14.93-1.24l-1.53,13.06v1.36l-13.23,1.36h-4.58l-1.62,7.29l-2.28,5.26l-1.7,4.24
		l-1.36,4.41v4.75l-1.35,3.73l1.69,5.94l3.05,6.95l1.7,3.56h3.41l3.03-4.92l-2.21-3.39l-2.37,0.68l-0.68,1.7l0.68-6.11l-0.51-4.41
		v-5.09l2.88-6.28l2.21-4.75l2.71-1.02l-1.02,3.22l-2.54,7.29l-0.85,4.41l0.51,3.73l1.02,4.75l1.19,6.95l-0.17,4.41l-0.17,7.97v8.31
		l-0.51,7.8l-0.17,4.92l-1.02,1.53l-5.18,3.9v1.7l18.75-0.85v-6.1c0,0-0.68-8.99,0-10.18c0.68-1.19,0.85-12.38,0.85-12.38v-5.43
		l3.22-1.19v6.95l0.85,9.5l0.85,6.62v6.62v3.9l1.87,1.02v0.68l15.6,0.85l-2.37-4.24l-5.26-1.7l-1.87-0.34l0.34-5.43l0.68-9.16
		c0,0-0.85-8.99-0.85-10.52c0-1.53-1.53-12.55-1.7-13.57c-0.17-1.02-2.04-9.5-2.04-9.5l-1.02-8.14l2.04,0.51l0.51-11.19l-0.85-7.97
		l-5.94-2.21l-1.36,4.58l1.36,2.37l2.71-1.19v2.37l-6.78-8.14l-3.39-1.36"/>
	<path class="st0" d="M431.7,362.64h-3.56l-0.7-15.09l23.07-3.22c0,0-1.17,15.37-0.49,15.88c0.68,0.51-1.87,1.19-1.87,1.19"/>
	<path d="M242.36,413.9c0-10.6,11.98-19.19,26.76-19.19l0,0c14.78,0,26.76,8.59,26.76,19.19v23.98c0,10.6-11.98,19.19-26.76,19.19
		l0,0c-14.78,0-26.76-8.59-26.76-19.19V413.9z"/>
	<path d="M222.26,399.22c0-7.64,17.74-13.83,39.62-13.83c21.88,0,39.62,6.19,39.62,13.83c0,7.63-17.74,13.82-39.62,13.82
		c-12.69,0-23.99-2.08-31.24-5.32c-2.61-1.17-4.69-2.48-6.13-3.9C223.05,402.38,222.26,400.83,222.26,399.22z"/>
	<path d="M256.05,422.33c0,0.51-0.18,0.92-0.39,0.92c-0.22,0-0.39-0.41-0.39-0.92c0-0.51,0.18-0.92,0.39-0.92
		C255.87,421.41,256.05,421.82,256.05,422.33z"/>
	<path d="M283.18,399.71c0,0.51-0.18,0.92-0.39,0.92c-0.22,0-0.39-0.41-0.39-0.92c0-0.51,0.18-0.92,0.39-0.92
		C283.01,398.79,283.18,399.2,283.18,399.71z"/>
	<polyline points="244.62,422.33 243.39,408.73 230.35,401.82 	"/>
	<ellipse cx="267.16" cy="451.56" rx="39.69" ry="28.31"/>
	<path d="M229.11,433.88c-3.95-1.76-9.02,0.99-11.32,6.15c-2.3,5.16-0.96,10.77,3,12.53c3.95,1.76,9.02-0.99,11.32-6.15
		C234.41,441.25,233.07,435.64,229.11,433.88z"/>
	<path d="M230.95,455.46c3.84,5.69,4.05,12.25,0.47,14.66c-3.57,2.41-9.57-0.25-13.4-5.94c-3.83-5.69-4.05-12.25-0.47-14.65
		C221.12,447.12,227.12,449.78,230.95,455.46z"/>
	<path d="M249.77,474.49c-1.28,3.84-7.82,5.11-14.6,2.85c-6.78-2.27-11.24-7.21-9.96-11.05c1.28-3.84,7.82-5.11,14.6-2.85
		C246.59,465.71,251.05,470.66,249.77,474.49z"/>
	<path d="M250.03,425.01c1,2.62-3.25,6.68-9.49,9.06c-6.24,2.38-12.12,2.18-13.12-0.45c-1-2.62,3.25-6.68,9.49-9.06
		C243.16,422.18,249.03,422.38,250.03,425.01z"/>
	<path d="M311.12,469.17c0,2.67-4.89,4.83-10.92,4.83c-6.03,0-10.92-2.17-10.92-4.83c0-2.67,4.89-4.83,10.92-4.83
		C306.23,464.34,311.12,466.51,311.12,469.17z"/>
	<path d="M314.57,460.92c3.08-5.29,2.74-11.23-0.77-13.27c-3.5-2.04-8.84,0.59-11.92,5.88c-3.08,5.29-2.74,11.23,0.76,13.27
		C306.15,468.84,311.49,466.21,314.57,460.92z"/>
	<path d="M318.49,443.68c-1.92-4.91-6.77-7.6-10.85-6.01c-4.07,1.59-5.82,6.86-3.9,11.77c1.92,4.91,6.77,7.6,10.84,6.01
		C318.66,453.86,320.41,448.59,318.49,443.68z"/>
	<path d="M311.27,442.46c-1.32,3.4-6.11,4.71-10.7,2.93c-4.59-1.78-7.24-5.98-5.91-9.38c1.32-3.4,6.11-4.71,10.7-2.93
		C309.95,434.86,312.59,439.06,311.27,442.46z"/>
	<path d="M286.96,428.08c0.74-2.9,6.09-4.04,11.94-2.55c5.85,1.5,9.99,5.06,9.25,7.97c-0.74,2.91-6.09,4.05-11.94,2.55
		C290.35,434.56,286.21,430.99,286.96,428.08z"/>
	<path d="M289.72,384.61c-2.89,4.74-2.55,10.23,0.78,12.26c3.32,2.02,8.36-0.18,11.26-4.92c2.9-4.75,2.55-10.24-0.78-12.26
		C297.65,377.66,292.61,379.86,289.72,384.61z"/>
	<path d="M300.83,421.24c-3.08,6.29-2.28,13.01,1.81,15.02c4.09,2.01,9.9-1.47,12.99-7.75c3.08-6.29,2.28-13.01-1.81-15.01
		C309.73,411.48,303.92,414.96,300.83,421.24z"/>
	<path d="M311.29,421.17c-5.71,5.37-8.35,11.85-5.9,14.46c2.46,2.61,9.08,0.37,14.79-5.01c5.71-5.38,8.35-11.85,5.9-14.46
		C323.63,413.55,317,415.79,311.29,421.17z"/>
	<polygon points="326.53,423.11 330.04,419.19 330.04,383.68 319.07,380.52 310.93,380.52 299.04,382.67 318.16,395.9 
		321.78,398.22 323.36,401.82 322.46,407.97 320.08,412.86 316,417.36 	"/>
	<path class="st4" d="M232.53,400.01l6.21,2.6h7.01h10.75h8.28l2.57,2l-7.86,1.08h-7.97h-9.28l-5.09-1.08l-4.63-1.76l-2.04-2.35
		v-4.05l5.86-2.53l5.89-2.04h4.3h4.75h8.2l-3,0.96l-5.65,1.07l-5.09,1.32h-3.51c0,0-2.94-0.49-3.5,0c-0.56,0.49-3.63,2.75-3.63,2.75
		L232.53,400.01z"/>
	<polygon class="st4" points="241.12,411.26 244.3,418.79 244.3,424.87 242.71,433.85 241.12,439.95 238.73,445.61 241.12,452.62 
		244.3,457.14 244.3,453.52 242.82,448.64 243.56,443.22 244.3,441.69 244.62,434.98 245.99,429.32 245.99,423.25 244.62,416.96 	
		"/>
	<polygon class="st4" points="276.62,453.09 287.53,449.24 294.29,440.35 294.29,435.87 294.29,430.94 292.28,426.18 292.28,420.07 
		292.28,411.7 292.28,407.92 285.45,409.73 278.65,410.74 272.09,410.74 270.51,414.42 274.81,414.42 277.97,414.19 282.04,413.51 
		285.21,411.7 287.53,411.7 288.93,411.7 290.76,411.7 290.76,413.96 288.93,418.99 290.76,424.82 290.76,430.48 290.76,435.38 
		290.76,439.07 290.76,441.88 288.93,444.27 284.3,447.3 	"/>
	<polyline class="st4" points="236.75,427.74 235.95,428.16 231,430.79 231,434.2 227.72,436.27 223.03,436.27 223.03,439.72 
		223.03,443.22 220.14,446.56 218.19,450.58 219.24,451.56 220.14,455.9 221.04,458.91 223.03,457.14 223.03,453.29 222.17,451.56 
		220.59,450.58 222.17,448.64 225.31,446.56 225.31,441.69 224.69,438.82 227.47,439.05 230.17,437.21 232.13,435.07 232.13,431.84 
			"/>
	<rect x="624.86" y="344.32" class="st0" width="66.83" height="145.28"/>
	<polygon points="303.71,385.39 308.23,388.27 301.49,397.62 297.55,396.27 	"/>
	<rect x="127.8" y="283.45" width="36.33" height="19.67"/>
	<rect x="126.66" y="280.63" width="38.62" height="5.65"/>
	<path d="M170.22,280.06c0,1.87-10.42,3.39-23.28,3.39c-12.86,0-23.28-1.52-23.28-3.39c0-1.87,10.42-3.39,23.28-3.39
		C159.8,276.68,170.22,278.19,170.22,280.06z"/>
	<ellipse cx="142.19" cy="285.83" rx="1.12" ry="0.11"/>
	<rect x="143.15" y="254.17" width="7.92" height="15.15"/>
	<polyline points="128.94,280.06 147.11,261.74 165.28,280.06 130.28,280.06 	"/>
	<path d="M155.54,251.06c0,1.72-1.39,3.11-3.11,3.11h-10.64c-1.72,0-3.11-1.39-3.11-3.11l0,0c0-1.72,1.39-3.11,3.11-3.11h10.64
		C154.14,247.95,155.54,249.34,155.54,251.06L155.54,251.06z"/>
	<path d="M147.18,254.28c-1.72,0.01-3.12-1.37-3.14-3.08l-0.09-10.64c-0.01-1.72,1.37-3.12,3.08-3.14l0,0
		c1.72-0.01,3.12,1.37,3.14,3.08l0.09,10.64C150.27,252.86,148.89,254.26,147.18,254.28L147.18,254.28z"/>
	<rect x="170.22" y="285.72" width="25.43" height="27.61"/>
	<path d="M183.79,283.68c0,3.75-3.04,6.78-6.78,6.78l0,0c-3.75,0-6.78-3.04-6.78-6.78v-11.76c0-3.75,3.04-6.78,6.78-6.78l0,0
		c3.75,0,6.78,3.04,6.78,6.78V283.68z"/>
	<path d="M203.91,289.51c0,2.86-2.96,5.17-6.62,5.17h-18.2c-3.65,0-6.62-2.32-6.62-5.17l0,0c0-2.86,2.96-5.17,6.62-5.17h18.2
		C200.95,284.34,203.91,286.65,203.91,289.51L203.91,289.51z"/>
	<rect x="183.91" y="265.13" width="14.93" height="21.94"/>
	<polyline points="183.91,265.13 191.37,259.93 198.84,265.13 198.84,280.07 198.84,284.49 208.44,289.51 203.26,291.71 
		170.31,270.9 165.28,277.98 170.22,277.8 	"/>
	<polygon points="128.94,277.92 109.84,326.65 128.94,326.65 	"/>
	<rect x="111.02" y="277.92" width="20.05" height="46.37"/>
	<path d="M111.02,277.92"/>
	<polyline points="111.87,277.92 121.05,272.6 129.65,277.8 	"/>
	<rect x="119.74" y="259.93" width="2.62" height="16.06"/>
	<rect x="113.81" y="266.04" width="13.9" height="1.81"/>
	<path class="st2" d="M156.65,121.53c-6.83-0.74-10.74,7.72-10.18,13.34"/>
	<path class="st2" d="M159.59,127.18c-3.29,0.9-7.89,0.9-9.4,4.81c-1.28,3.31,1.6,6.7-1.68,8.78c-2.26,1.43-5.74,2.25-8.39,2.45
		c1.85-0.14-2.49-17.46,4.09-18.53"/>
	<path d="M185.6,135.41v-7.23v-6.69l-2.49-7.26l-2.6-4.75l-16.5,2.55l-8.47,2.2l-4.47,3.91c0,0-2.33,2.63-2.33,3.35
		c0,0.72-6.54,8.64-6.55,9.77s-1.65,6.12-1.61,8.15c0.05,2.03-0.17,6.59,0.49,7.81c0.66,1.22,1.47,5.29,2.08,6.42
		c0.61,1.13,2.54,3.84,3.27,5.2s3.58,3.62,4.64,4.75c1.07,1.13,5.13,1.77,5.59,2.81c0.45,1.04,1.8,1.94,3.61,3.07
		c1.81,1.13,4.13,2.01,5.01,2.7c0.88,0.69,1.78,0.69,2.91,1.6c1.13,0.91,2.7,0.68,2.93,1.36c0.23,0.68,2.51,0.45,2.73,0.91
		c0.22,0.45,2.35,0,2.35,0l5.36-3.94l6.63-4.88l4.06,6.65l-8.14-5.29l-5.74-0.45h-4.51l-3.63-1.72l-4.95-1.22l-2.97-2.26l-5.3-3.62
		l-2.84-5.65l-3.1-6.42l-0.8-6.69l1.28-5.11l3.57-5.74l2.9-3.85l4.29-1.35c0,0,3.24-1.81,4.11-1.81s4.71-1.18,4.71-1.18
		s0.45-0.27,1.59,0c1.13,0.27,4.53,2.76,4.3,2.98c-0.23,0.23,1.36,3.12,0,3.71c-1.36,0.59-4.3,3.74-4.3,4.2
		c0,0.46-0.23,1.58-0.23,1.58"/>
	<path d="M172.47,121.48l2.73,4.34c0,0-0.13,2.81,0,3.85c0.13,1.04-1.14,3.16-1.14,3.16l4.3-4.66v-5.29l-4.3-1.4l-1.59,1.85"/>
	<path d="M183.79,135.09c0,1.5-2.48,2.72-5.54,2.72c-3.06,0-5.54-1.22-5.54-2.72c0-1.5,2.48-2.72,5.54-2.72
		C181.31,132.38,183.79,133.59,183.79,135.09z"/>
	<path d="M191.14,172.17c0,1.5-2.48,2.72-5.54,2.72c-3.06,0-5.54-1.22-5.54-2.72c0-1.5,2.48-2.72,5.54-2.72
		C188.66,169.46,191.14,170.67,191.14,172.17z"/>
	<path d="M143.96,154.95l6.31,11.45c0,0,2.55,0.81,3.68,1.94c1.13,1.13,3.85,4.04,4.52,3.83c0.68-0.21,3.61,0.47,3.84,0.92
		c0.23,0.45,4.11,1.8,4.11,1.8s2.91,0.41,3.81,1.34c0.9,0.93,5.19,1.84,5.19,1.84l2.83-1.84l-5.77-1.34c0,0-4.92-2.71-6.06-2.72
		c-1.14,0-6.82-3.13-6.82-3.13l-2.94-2.64L143.96,154.95z"/>
	<path class="st3" d="M430.98,360.29"/>
	<rect x="632.49" y="225.56" class="st3" width="1.36" height="13.79"/>
	<rect x="626.38" y="229.17" class="st3" width="13.24" height="2.52"/>
	<path d="M318.26,107.42h13.52l52.3,75h0.25v-75h10.72v90.31h-13.52l-52.3-75h-0.26v75h-10.71V107.42z"/>
	<path d="M507.97,100.44h25.24c4.74,0,9.46,0.28,14.15,0.83c4.69,0.56,8.9,1.76,12.62,3.61c3.72,1.85,6.74,4.56,9.06,8.12
		c2.32,3.56,3.48,8.4,3.48,14.5c0,7.22-2.18,13.05-6.55,17.49c-4.37,4.44-10.41,7.26-18.13,8.47l28.03,45.25h-14.36l-26.77-44.14
		h-15.06v44.14h-11.71V100.44z M519.68,143.74h10.46c3.25,0,6.62-0.09,10.11-0.28c3.49-0.18,6.69-0.78,9.62-1.8
		c2.93-1.02,5.35-2.61,7.25-4.79c1.9-2.17,2.86-5.3,2.86-9.37c0-3.52-0.7-6.34-2.09-8.47c-1.39-2.13-3.23-3.77-5.51-4.93
		c-2.28-1.16-4.83-1.92-7.67-2.29c-2.84-0.37-5.69-0.56-8.57-0.56h-16.45V143.74z"/>
	<path d="M586.81,103.28h60.41v10.2h-49.01v29.03h45.75v10.2h-45.75v32.95h51.45v10.2h-62.85V103.28z"/>
	<path d="M711.28,115.43c-1.79-2.89-4.17-4.99-7.14-6.31c-2.98-1.32-6.08-1.98-9.31-1.98c-2.38,0-4.72,0.3-7.02,0.89
		c-2.3,0.6-4.36,1.49-6.19,2.68c-1.83,1.19-3.3,2.76-4.4,4.72c-1.11,1.96-1.66,4.25-1.66,6.89c0,2.04,0.32,3.85,0.96,5.42
		c0.64,1.58,1.68,3,3.12,4.27c1.44,1.28,3.4,2.47,5.87,3.57c2.46,1.11,5.48,2.21,9.06,3.32c3.49,1.11,6.87,2.3,10.14,3.57
		c3.27,1.28,6.16,2.89,8.67,4.85c2.51,1.96,4.51,4.4,5.99,7.33c1.49,2.93,2.23,6.61,2.23,11.03c0,4.51-0.89,8.42-2.68,11.73
		c-1.79,3.32-4.14,6.06-7.08,8.23c-2.93,2.17-6.31,3.78-10.14,4.85c-3.83,1.06-7.78,1.6-11.86,1.6c-2.64,0-5.27-0.24-7.91-0.7
		c-2.64-0.47-5.17-1.19-7.59-2.17c-2.42-0.98-4.7-2.25-6.82-3.83c-2.13-1.57-3.95-3.51-5.48-5.8l9.18-7.53
		c1.96,3.32,4.68,5.83,8.16,7.53c3.49,1.7,7.18,2.55,11.1,2.55c2.3,0,4.61-0.34,6.95-1.02c2.34-0.68,4.44-1.68,6.31-3
		c1.87-1.32,3.4-2.95,4.59-4.91c1.19-1.96,1.79-4.21,1.79-6.76c0-2.81-0.47-5.08-1.4-6.82c-0.94-1.74-2.38-3.25-4.34-4.53
		c-1.96-1.27-4.42-2.42-7.4-3.44c-2.98-1.02-6.46-2.21-10.46-3.57c-3.23-1.02-6.21-2.19-8.93-3.51c-2.72-1.32-5.08-2.93-7.08-4.85
		c-2-1.91-3.57-4.21-4.72-6.89c-1.15-2.68-1.72-5.89-1.72-9.63c0-4.34,0.85-8.12,2.55-11.35c1.7-3.23,4-5.93,6.89-8.1
		c2.89-2.17,6.16-3.8,9.82-4.91c3.66-1.1,7.48-1.66,11.48-1.66c5.1,0,9.76,0.79,13.97,2.36c4.21,1.57,7.97,4.32,11.29,8.23
		L711.28,115.43z"/>
	<path d="M440.88,286.49c-3.66,4.59-7.57,8.16-11.73,10.71c-4.17,2.55-9.27,3.83-15.31,3.83c-3.83,0-7.48-0.58-10.97-1.72
		c-3.49-1.15-6.53-2.83-9.12-5.04c-2.6-2.21-4.68-4.91-6.25-8.1c-1.57-3.19-2.36-6.82-2.36-10.91c0-3.14,0.53-6.06,1.6-8.74
		c1.06-2.68,2.51-5.1,4.34-7.27c1.83-2.17,3.95-4.08,6.38-5.74c2.42-1.66,4.99-3.13,7.72-4.4c-2.98-2.98-5.53-6.12-7.65-9.44
		c-2.13-3.32-3.19-7.14-3.19-11.48c0-3.32,0.64-6.27,1.91-8.87c1.27-2.59,2.97-4.76,5.1-6.51c2.12-1.74,4.59-3.06,7.4-3.95
		c2.81-0.89,5.78-1.34,8.93-1.34c3.06,0,5.95,0.43,8.67,1.28c2.72,0.85,5.12,2.1,7.21,3.76c2.08,1.66,3.72,3.74,4.91,6.25
		c1.19,2.51,1.79,5.42,1.79,8.74c0,2.81-0.57,5.38-1.72,7.72c-1.15,2.34-2.64,4.42-4.46,6.25c-1.83,1.83-3.87,3.49-6.12,4.97
		c-2.25,1.49-4.53,2.83-6.82,4.02l19.13,20.28l12.12-20.28h12.12l-17.35,27.81l20.66,21.17h-14.67L440.88,286.49z M411.8,255.62
		c-1.96,1.02-3.87,2.15-5.74,3.38c-1.87,1.23-3.57,2.61-5.1,4.15c-1.53,1.53-2.76,3.27-3.7,5.23c-0.94,1.96-1.4,4.13-1.4,6.51
		c0,2.47,0.47,4.72,1.4,6.76c0.93,2.04,2.21,3.83,3.83,5.36c1.62,1.53,3.49,2.72,5.61,3.57c2.12,0.85,4.38,1.28,6.76,1.28
		c2.3,0,4.42-0.34,6.38-1.02c1.95-0.68,3.76-1.6,5.42-2.74c1.66-1.15,3.23-2.46,4.72-3.95c1.49-1.49,2.95-3.08,4.4-4.78
		L411.8,255.62z M414.48,244.01c1.7-0.94,3.44-1.91,5.23-2.93c1.78-1.02,3.4-2.17,4.85-3.44c1.45-1.28,2.64-2.76,3.57-4.46
		c0.93-1.7,1.4-3.65,1.4-5.87c0-3.32-1.13-5.91-3.38-7.78c-2.25-1.87-4.95-2.81-8.1-2.81c-3.57,0-6.63,1.08-9.18,3.25
		c-2.55,2.17-3.83,5.12-3.83,8.87c0,2.47,0.66,4.66,1.98,6.57c1.32,1.91,2.74,3.68,4.27,5.29L414.48,244.01z"/>
	<path d="M111.02,92.89h12.37v88.12h47.73v10.91h-60.1V92.89z"/>
	<path d="M328.5,366.92h15.94l30.61,70.79h0.25l30.87-70.79h15.56v90.31h-10.71v-75.77h-0.25l-32.4,75.77h-6.5l-32.4-75.77h-0.26
		v75.77H328.5V366.92z"/>
	<path d="M462.74,371.04h56.76v9.95h-46.05v28.32h42.98v9.95h-42.98v32.14h48.34v9.95h-59.06V371.04z M498.2,364.66h-9.06
		l-18.24-18.37h14.03L498.2,364.66z"/>
	<path d="M521.82,370.3h23.09c4.34,0,8.65,0.25,12.95,0.76c4.29,0.51,8.14,1.62,11.54,3.32c3.4,1.7,6.16,4.19,8.29,7.46
		c2.12,3.27,3.19,7.72,3.19,13.33c0,6.63-2,11.99-5.99,16.07c-4,4.08-9.52,6.68-16.58,7.78l25.64,41.58H570.8l-24.49-40.56h-13.78
		v40.56h-10.71V370.3z M532.54,410.09h9.57c2.98,0,6.06-0.08,9.25-0.26c3.19-0.17,6.12-0.72,8.8-1.66c2.68-0.94,4.89-2.4,6.63-4.4
		c1.74-2,2.61-4.87,2.61-8.61c0-3.23-0.64-5.82-1.91-7.78c-1.27-1.95-2.96-3.46-5.04-4.53c-2.08-1.06-4.42-1.77-7.02-2.1
		c-2.59-0.34-5.21-0.51-7.84-0.51h-15.05V410.09z"/>
	<path d="M580.57,371.81h56.76v9.95h-46.05v28.32h42.99v9.95h-42.99v32.14h48.34v9.95h-59.06V371.81z"/>
	<path d="M736.39,388.63c-1.79-2.89-4.17-5-7.14-6.32c-2.98-1.32-6.08-1.98-9.31-1.98c-2.38,0-4.72,0.3-7.02,0.89
		c-2.3,0.6-4.36,1.49-6.19,2.68c-1.83,1.19-3.3,2.77-4.4,4.72c-1.11,1.96-1.66,4.25-1.66,6.89c0,2.04,0.32,3.85,0.96,5.42
		c0.64,1.57,1.68,2.99,3.12,4.27c1.44,1.28,3.4,2.47,5.87,3.57c2.46,1.11,5.48,2.21,9.06,3.32c3.49,1.11,6.87,2.3,10.14,3.57
		c3.27,1.28,6.16,2.89,8.67,4.85c2.51,1.96,4.51,4.4,5.99,7.33c1.49,2.94,2.23,6.62,2.23,11.04c0,4.51-0.89,8.42-2.68,11.74
		c-1.79,3.32-4.14,6.06-7.08,8.23c-2.93,2.17-6.31,3.78-10.14,4.84c-3.83,1.07-7.78,1.6-11.86,1.6c-2.64,0-5.27-0.23-7.91-0.7
		c-2.64-0.47-5.17-1.19-7.59-2.17c-2.42-0.98-4.7-2.25-6.82-3.83c-2.13-1.57-3.95-3.51-5.48-5.8l9.18-7.53
		c1.96,3.32,4.68,5.83,8.16,7.53c3.49,1.7,7.18,2.55,11.1,2.55c2.3,0,4.61-0.34,6.95-1.02c2.34-0.68,4.44-1.68,6.31-3
		c1.87-1.32,3.4-2.95,4.59-4.91c1.19-1.96,1.79-4.21,1.79-6.76c0-2.8-0.47-5.08-1.4-6.82c-0.94-1.74-2.38-3.25-4.34-4.53
		c-1.96-1.27-4.42-2.42-7.4-3.44c-2.98-1.02-6.46-2.21-10.46-3.57c-3.23-1.02-6.21-2.19-8.93-3.51c-2.72-1.31-5.08-2.93-7.08-4.84
		c-2-1.91-3.57-4.21-4.72-6.89c-1.15-2.68-1.72-5.89-1.72-9.63c0-4.34,0.85-8.12,2.55-11.35c1.7-3.23,4-5.93,6.89-8.1
		c2.89-2.17,6.16-3.81,9.82-4.91c3.66-1.1,7.48-1.66,11.48-1.66c5.1,0,9.76,0.79,13.97,2.36c4.21,1.57,7.97,4.31,11.29,8.23
		L736.39,388.63z"/>
	<line class="st2" x1="433.59" y1="198.83" x2="457.97" y2="193.25"/>
	<line class="st2" x1="433.59" y1="198.83" x2="408.59" y2="198.83"/>
	<line class="st2" x1="437.15" y1="198.01" x2="412.15" y2="198.01"/>
	<line class="st2" x1="438.97" y1="197.6" x2="413.97" y2="197.6"/>
	<line class="st2" x1="432.12" y1="198.83" x2="406.18" y2="193.13"/>
	<polyline class="st2" points="432.12,198.83 456.23,193.62 457.97,193.25 	"/>
	<line class="st2" x1="372.64" y1="225.56" x2="372.86" y2="225.56"/>
	<polyline class="st2" points="431.21,198.83 428.63,198.06 406.18,191.41 	"/>
	<path d="M499.77,121.92c-1.21-4.63-2.82-8.73-4.85-12.28c-2.03-3.55-4.38-6.59-7.06-9.11c-2.67-2.52-5.46-4.57-8.35-6.14
		c-2.9-1.57-5.81-2.72-8.75-3.44c-2.93-0.72-5.72-1.08-8.35-1.08h-4.44v-3.89h-0.05c0.01-0.17,0.05-0.34,0.05-0.51
		c0-7.44-11.96-13.48-26.72-13.48c-14.76,0-26.72,6.03-26.72,13.48c0,1.63,0.6,3.18,1.65,4.62v108.74h25.03h0.9h25.85v-12.85v-0.55
		h4.44c2.63,0,5.42-0.36,8.35-1.08c2.94-0.72,5.85-1.87,8.75-3.44c2.9-1.57,5.68-3.62,8.35-6.14c2.67-2.52,5.02-5.56,7.06-9.11
		c2.03-3.55,3.65-7.65,4.85-12.28c1.2-4.63,1.81-9.88,1.81-15.73C501.58,131.8,500.97,126.55,499.77,121.92z M438.97,175.68v-7.7
		h8.07v7.7H438.97z M447.04,177.33v8.09h-8.07v-8.09H447.04z M415.87,175.68v-7.7h8.78v7.7H415.87z M424.65,177.33v8.09h-8.78v-8.09
		H424.65z M411.14,167.98h3.19v7.7h-3.19V167.98z M424.65,114.85v9.9h-8.78v-9.9H424.65z M415.87,113.6V98.2h8.78v15.41H415.87z
		 M452.25,166.4h-3.36v-6.91h3.36V166.4z M429.8,148.39h-3.71v-11.51h3.71V148.39z M433.59,136.89h3.56v11.51h-3.56V136.89z
		 M429.8,149.55v8.89h-3.71v-8.89H429.8z M433.59,149.55h3.56v8.89h-3.56V149.55z M438.97,149.55h8.07v8.89h-8.07V149.55z
		 M438.97,148.39v-11.51h8.07v11.51H438.97z M438.97,135.68v-9.72h8.07v9.72H438.97z M437.15,135.68h-3.56v-9.72h3.56V135.68z
		 M429.8,135.68h-3.71v-9.72h3.71V135.68z M424.65,135.68h-8.78v-9.72h8.78V135.68z M424.65,136.89v11.51h-8.78v-11.51H424.65z
		 M424.65,149.55v8.89h-8.78v-8.89H424.65z M424.65,159.49v6.91h-8.78v-6.91H424.65z M426.08,159.49h3.71v6.91h-3.71V159.49z
		 M433.59,159.49h3.56v6.91h-3.56V159.49z M438.97,159.49h8.07v6.91h-8.07V159.49z M452.25,158.44h-3.36v-8.89h3.29v-1.15h-3.29
		v-11.51h3.36V158.44z M452.25,135.68h-3.36v-9.72h3.29v-1.22h-3.29v-9.9h3.36V135.68z M447.04,124.74h-8.07v-9.9h8.07V124.74z
		 M437.15,124.74h-3.56v-9.9h3.56V124.74z M429.8,124.74h-3.71v-9.9h3.71V124.74z M414.33,124.74h-3.19v-9.9h3.19V124.74z
		 M414.33,125.97v9.72h-3.19v-9.72H414.33z M411.14,136.89h3.19v11.51h-3.19V136.89z M414.33,149.55v8.89h-3.19v-8.89H414.33z
		 M411.14,159.49h3.19v6.91h-3.19V159.49z M426.08,167.98h3.71v7.7h-3.71V167.98z M433.59,167.98h3.56v7.7h-3.56V167.98z
		 M448.89,167.98h3.36v7.7h-3.36V167.98z M452.25,98v15.6h-3.36V98H452.25z M447.04,113.6h-8.07V98h8.07V113.6z M437.15,98v15.6
		h-3.56V98H437.15z M429.8,113.6h-3.71V98.2h3.71V113.6z M414.33,98.2v15.41h-3.19V98.2H414.33z M411.14,177.33h3.19v8.09h-3.19
		V177.33z M426.08,185.43v-8.09h3.71v8.09H426.08z M433.59,177.33h3.56v8.09h-3.56V177.33z M448.89,185.43v-8.09h3.36v8.09H448.89z
		 M488.93,154.52c-1.66,4.68-3.91,8.53-6.77,11.54c-2.86,3.02-6.25,5.24-10.16,6.68c-3.91,1.44-8.17,2.16-12.76,2.16h-1.27v-74.51
		h1.27c4.59,0,8.84,0.72,12.76,2.16c3.91,1.44,7.3,3.67,10.16,6.68c2.86,3.02,5.12,6.86,6.77,11.54c1.65,4.68,2.48,10.31,2.48,16.87
		C491.42,144.21,490.59,149.84,488.93,154.52z"/>
	<line class="st4" x1="455.92" y1="207.53" x2="482.67" y2="200.06"/>
</g>
</svg>
